<svg width="134" height="77" viewBox="0 0 134 77" fill="none" xmlns="http://www.w3.org/2000/svg">
<path d="M133.316 66.0205C133.316 54.3378 130.187 42.8644 124.247 32.7715L106.973 42.7462C111.131 49.8112 113.321 57.8426 113.321 66.0205H133.316Z" fill="#D44C4C"/>
<path d="M124.422 33.0705C118.536 22.9469 110.043 14.5518 99.8103 8.74219L89.8672 25.9256C97.03 29.9923 102.975 35.8689 107.095 42.9554L124.422 33.0705Z" fill="#DF873A"/>
<path d="M99.8286 8.75169C89.5978 2.93903 77.9931 -0.0804003 66.1992 0.00162784L66.3396 19.807C74.5954 19.7496 82.7186 21.8632 89.8802 25.9321L99.8286 8.75169Z" fill="#ECB004"/>
<path d="M33.2476 8.89844C23.0431 14.7562 14.5906 23.1913 8.75293 33.3425L26.1269 43.1456C30.2133 36.0397 36.1301 30.1352 43.2732 26.0347L33.2476 8.89844Z" fill="#83C605"/>
<path d="M66.665 0.326025C66.665 0.145522 66.5171 -0.000889609 66.3349 4.06953e-06C54.7648 0.0567473 43.4086 3.0961 33.384 8.81896C33.2262 8.90909 33.1729 9.10934 33.2646 9.26528L43.0023 25.8113C43.094 25.9673 43.2961 26.0199 43.4542 25.93C50.4217 21.9719 58.3031 19.8625 66.3349 19.8062C66.5172 19.805 66.665 19.6588 66.665 19.4783V0.326025Z" fill="#BCD103"/>
<path d="M9.09192 32.7578C3.15002 42.8495 0.0180106 54.3224 0.015625 66.005L20.0106 66.009C20.0123 57.8312 22.2047 49.8002 26.364 42.736L9.09192 32.7578Z" fill="#1C8D13"/>
<path d="M74.585 66.0171C74.585 64.0234 73.7854 62.1114 72.3622 60.7017C70.939 59.292 69.0088 58.5 66.9961 58.5C64.9834 58.5 63.0531 59.292 61.63 60.7017C60.2068 62.1114 59.4072 64.0234 59.4072 66.0171L66.9961 66.0171H74.585Z" fill="#212225"/>
<path d="M96.5864 57.0901C97.0693 57.0432 97.2012 57.7371 96.7342 57.8675L72.5514 64.6189C72.327 64.6816 72.0964 64.5384 72.0528 64.3094L71.2301 59.9817C71.1865 59.7527 71.3488 59.5362 71.5809 59.5137L96.5864 57.0901Z" fill="#212225"/>
</svg>
