<svg width="134" height="77" viewBox="0 0 134 77" fill="none" xmlns="http://www.w3.org/2000/svg">
<path d="M133.301 66.0205C133.301 54.3378 130.171 42.8644 124.231 32.7715L106.957 42.7462C111.115 49.8112 113.306 57.8426 113.306 66.0205H133.301Z" fill="#D44C4C"/>
<path d="M124.407 33.0705C118.52 22.9469 110.027 14.5518 99.7947 8.74219L89.8516 25.9256C97.0143 29.9923 102.959 35.8689 107.08 42.9554L124.407 33.0705Z" fill="#DF873A"/>
<path d="M99.813 8.75169C89.5822 2.93903 77.9775 -0.0804003 66.1836 0.00162784L66.324 19.807C74.5797 19.7496 82.703 21.8632 89.8645 25.9321L99.813 8.75169Z" fill="#ECB004"/>
<path d="M33.232 8.89844C23.0275 14.7562 14.5749 23.1913 8.7373 33.3425L26.1113 43.1456C30.1977 36.0397 36.1144 30.1352 43.2576 26.0347L33.232 8.89844Z" fill="#83C605"/>
<path d="M66.6494 0.326025C66.6494 0.145522 66.5015 -0.000889609 66.3193 4.06953e-06C54.7491 0.0567473 43.393 3.0961 33.3684 8.81896C33.2105 8.90909 33.1572 9.10934 33.249 9.26528L42.9866 25.8113C43.0784 25.9673 43.2805 26.0199 43.4385 25.93C50.4061 21.9719 58.2874 19.8625 66.3193 19.8062C66.5015 19.805 66.6494 19.6588 66.6494 19.4783V0.326025Z" fill="#BCD103"/>
<path d="M9.0763 32.7578C3.1344 42.8495 0.00238557 54.3224 0 66.005L19.995 66.009C19.9967 57.8312 22.1891 49.8002 26.3484 42.736L9.0763 32.7578Z" fill="#1C8D13"/>
<path d="M74.5693 66.0171C74.5693 64.0234 73.7698 62.1114 72.3466 60.7017C70.9234 59.292 68.9932 58.5 66.9805 58.5C64.9678 58.5 63.0375 59.292 61.6143 60.7017C60.1911 62.1114 59.3916 64.0234 59.3916 66.0171L66.9805 66.0171H74.5693Z" fill="#212225"/>
<path d="M43.8707 50.879C43.4743 50.5991 43.8275 49.9875 44.2663 50.1937L66.9908 60.8701C67.2017 60.9692 67.2829 61.2282 67.1664 61.4301L64.9638 65.2452C64.8472 65.447 64.583 65.505 64.3925 65.3705L43.8707 50.879Z" fill="#212225"/>
</svg>
