<svg width="60" height="60" viewBox="0 0 60 60" fill="none" xmlns="http://www.w3.org/2000/svg">
<g filter="url(#filter0_d_975_43640)">
<rect x="2" y="1" width="56" height="56" rx="8" fill="#F7F8FF"/>
<rect x="2.5" y="1.5" width="55" height="55" rx="7.5" stroke="#142E56"/>
<path d="M21 23H23M23 23H39M23 23V37C23 37.5304 23.2107 38.0391 23.5858 38.4142C23.9609 38.7893 24.4696 39 25 39H35C35.5304 39 36.0391 38.7893 36.4142 38.4142C36.7893 38.0391 37 37.5304 37 37V23H23ZM26 23V21C26 20.4696 26.2107 19.9609 26.5858 19.5858C26.9609 19.2107 27.4696 19 28 19H32C32.5304 19 33.0391 19.2107 33.4142 19.5858C33.7893 19.9609 34 20.4696 34 21V23M28 28V34M32 28V34" stroke="#142E56" stroke-width="1.5" stroke-linecap="round" stroke-linejoin="round"/>
</g>
<defs>
<filter id="filter0_d_975_43640" x="0" y="0" width="60" height="60" filterUnits="userSpaceOnUse" color-interpolation-filters="sRGB">
<feFlood flood-opacity="0" result="BackgroundImageFix"/>
<feColorMatrix in="SourceAlpha" type="matrix" values="0 0 0 0 0 0 0 0 0 0 0 0 0 0 0 0 0 0 127 0" result="hardAlpha"/>
<feOffset dy="1"/>
<feGaussianBlur stdDeviation="1"/>
<feColorMatrix type="matrix" values="0 0 0 0 0.0627451 0 0 0 0 0.0941176 0 0 0 0 0.156863 0 0 0 0.05 0"/>
<feBlend mode="normal" in2="BackgroundImageFix" result="effect1_dropShadow_975_43640"/>
<feBlend mode="normal" in="SourceGraphic" in2="effect1_dropShadow_975_43640" result="shape"/>
</filter>
</defs>
</svg>
