<svg width="28" height="29" viewBox="0 0 28 29" fill="none" xmlns="http://www.w3.org/2000/svg">
<rect x="0.5" y="1.16675" width="27" height="27" rx="13.5" fill="#FBFBFB"/>
<rect x="0.5" y="1.16675" width="27" height="27" rx="13.5" stroke="#676C76"/>
<path d="M13.9281 16.5032C13.8115 16.5032 13.6948 16.4602 13.6027 16.3681L12.0308 14.7961C11.8527 14.6181 11.8527 14.3233 12.0308 14.1453C12.2088 13.9672 12.5036 13.9672 12.6816 14.1453L13.9281 15.3918L15.1746 14.1453C15.3527 13.9672 15.6474 13.9672 15.8255 14.1453C16.0036 14.3233 16.0036 14.6181 15.8255 14.7961L14.2536 16.3681C14.1615 16.4602 14.0448 16.5032 13.9281 16.5032Z" fill="#242424"/>
<path d="M13.9278 16.46C13.6761 16.46 13.4673 16.2512 13.4673 15.9995V9.75472C13.4673 9.50296 13.6761 9.29419 13.9278 9.29419C14.1796 9.29419 14.3883 9.50296 14.3883 9.75472V15.9995C14.3883 16.2512 14.1796 16.46 13.9278 16.46Z" fill="#242424"/>
<path d="M14.0017 20.1502C10.8394 20.1502 8.62891 17.9397 8.62891 14.7774C8.62891 14.5257 8.83768 14.3169 9.08943 14.3169C9.34119 14.3169 9.54996 14.5257 9.54996 14.7774C9.54996 17.3994 11.3798 19.2292 14.0017 19.2292C16.6236 19.2292 18.4535 17.3994 18.4535 14.7774C18.4535 14.5257 18.6622 14.3169 18.914 14.3169C19.1657 14.3169 19.3745 14.5257 19.3745 14.7774C19.3745 17.9397 17.164 20.1502 14.0017 20.1502Z" fill="#242424"/>
</svg>
