<svg width="16" height="16" viewBox="0 0 16 16" fill="none" xmlns="http://www.w3.org/2000/svg">
<g clip-path="url(#clip0_1008_46205)">
<path d="M2.34367 13.6547C1.57959 12.9167 0.970134 12.034 0.550862 11.0579C0.13159 10.0819 -0.0891002 9.03214 -0.0983308 7.96991C-0.107561 6.90767 0.0948523 5.85423 0.497099 4.87106C0.899347 3.88789 1.49337 2.99468 2.24451 2.24354C2.99565 1.49239 3.88887 0.89837 4.87204 0.496123C5.85521 0.0938758 6.90865 -0.108538 7.97088 -0.0993073C9.03312 -0.0900768 10.0829 0.130613 11.0589 0.549885C12.0349 0.969157 12.9177 1.57861 13.6557 2.3427C15.1129 3.85151 15.9193 5.87233 15.9011 7.96991C15.8828 10.0675 15.0415 12.074 13.5582 13.5572C12.075 15.0405 10.0685 15.8819 7.97088 15.9001C5.87331 15.9183 3.85249 15.112 2.34367 13.6547ZM7.19967 3.9987V8.7987H8.79967V3.9987H7.19967ZM7.19967 10.3987V11.9987H8.79967V10.3987H7.19967Z" fill="#142E56"/>
</g>
<defs>
<clipPath id="clip0_1008_46205">
<rect width="16" height="16" fill="white"/>
</clipPath>
</defs>
</svg>
