<svg width="568" height="377" viewBox="0 0 568 377" fill="none" xmlns="http://www.w3.org/2000/svg">
<rect width="568" height="377" rx="8" fill="white"/>
<circle cx="31" cy="27" r="7" fill="#142E56"/>
<path d="M53.824 30.52H48.96L48.064 33H46.528L50.56 21.912H52.24L56.256 33H54.72L53.824 30.52ZM53.408 29.336L51.392 23.704L49.376 29.336H53.408ZM68.5573 24.072C69.2399 24.072 69.8479 24.216 70.3813 24.504C70.9146 24.7813 71.3359 25.2027 71.6453 25.768C71.9546 26.3333 72.1093 27.0213 72.1093 27.832V33H70.6693V28.04C70.6693 27.1653 70.4506 26.4987 70.0133 26.04C69.5866 25.5707 69.0053 25.336 68.2693 25.336C67.5119 25.336 66.9093 25.5813 66.4613 26.072C66.0133 26.552 65.7893 27.2507 65.7893 28.168V33H64.3493V28.04C64.3493 27.1653 64.1306 26.4987 63.6933 26.04C63.2666 25.5707 62.6853 25.336 61.9493 25.336C61.1919 25.336 60.5893 25.5813 60.1413 26.072C59.6933 26.552 59.4693 27.2507 59.4693 28.168V33H58.0133V24.232H59.4693V25.496C59.7573 25.0373 60.1413 24.6853 60.6213 24.44C61.1119 24.1947 61.6506 24.072 62.2373 24.072C62.9733 24.072 63.6239 24.2373 64.1893 24.568C64.7546 24.8987 65.1759 25.384 65.4533 26.024C65.6986 25.4053 66.1039 24.9253 66.6693 24.584C67.2346 24.2427 67.8639 24.072 68.5573 24.072ZM78.3216 33.144C77.5003 33.144 76.7536 32.9573 76.0816 32.584C75.4203 32.2107 74.8976 31.6827 74.5136 31C74.1403 30.3067 73.9536 29.5067 73.9536 28.6C73.9536 27.704 74.1456 26.9147 74.5296 26.232C74.9243 25.5387 75.4576 25.0107 76.1296 24.648C76.8016 24.2747 77.5536 24.088 78.3856 24.088C79.2176 24.088 79.9696 24.2747 80.6416 24.648C81.3136 25.0107 81.8416 25.5333 82.2256 26.216C82.6203 26.8987 82.8176 27.6933 82.8176 28.6C82.8176 29.5067 82.615 30.3067 82.2096 31C81.815 31.6827 81.2763 32.2107 80.5936 32.584C79.911 32.9573 79.1536 33.144 78.3216 33.144ZM78.3216 31.864C78.8443 31.864 79.335 31.7413 79.7936 31.496C80.2523 31.2507 80.6203 30.8827 80.8976 30.392C81.1856 29.9013 81.3296 29.304 81.3296 28.6C81.3296 27.896 81.191 27.2987 80.9136 26.808C80.6363 26.3173 80.2736 25.9547 79.8256 25.72C79.3776 25.4747 78.8923 25.352 78.3696 25.352C77.8363 25.352 77.3456 25.4747 76.8976 25.72C76.4603 25.9547 76.1083 26.3173 75.8416 26.808C75.575 27.2987 75.4416 27.896 75.4416 28.6C75.4416 29.3147 75.5696 29.9173 75.8256 30.408C76.0923 30.8987 76.4443 31.2667 76.8816 31.512C77.319 31.7467 77.799 31.864 78.3216 31.864ZM92.508 24.232V33H91.052V31.704C90.7747 32.152 90.3853 32.504 89.884 32.76C89.3933 33.0053 88.8493 33.128 88.252 33.128C87.5693 33.128 86.956 32.9893 86.412 32.712C85.868 32.424 85.436 31.9973 85.116 31.432C84.8067 30.8667 84.652 30.1787 84.652 29.368V24.232H86.092V29.176C86.092 30.04 86.3107 30.7067 86.748 31.176C87.1853 31.6347 87.7827 31.864 88.54 31.864C89.3187 31.864 89.932 31.624 90.38 31.144C90.828 30.664 91.052 29.9653 91.052 29.048V24.232H92.508ZM99.2384 24.072C100.305 24.072 101.169 24.3973 101.83 25.048C102.492 25.688 102.822 26.616 102.822 27.832V33H101.382V28.04C101.382 27.1653 101.164 26.4987 100.726 26.04C100.289 25.5707 99.6917 25.336 98.9344 25.336C98.1664 25.336 97.553 25.576 97.0944 26.056C96.6464 26.536 96.4224 27.2347 96.4224 28.152V33H94.9664V24.232H96.4224V25.48C96.7104 25.032 97.0997 24.6853 97.5904 24.44C98.0917 24.1947 98.641 24.072 99.2384 24.072ZM106.977 25.432V30.6C106.977 31.0267 107.067 31.3307 107.249 31.512C107.43 31.6827 107.745 31.768 108.193 31.768H109.265V33H107.953C107.142 33 106.534 32.8133 106.129 32.44C105.723 32.0667 105.521 31.4533 105.521 30.6V25.432H104.385V24.232H105.521V22.024H106.977V24.232H109.265V25.432H106.977ZM116.047 22.808C115.769 22.808 115.535 22.712 115.343 22.52C115.151 22.328 115.055 22.0933 115.055 21.816C115.055 21.5387 115.151 21.304 115.343 21.112C115.535 20.92 115.769 20.824 116.047 20.824C116.313 20.824 116.537 20.92 116.719 21.112C116.911 21.304 117.007 21.5387 117.007 21.816C117.007 22.0933 116.911 22.328 116.719 22.52C116.537 22.712 116.313 22.808 116.047 22.808ZM116.751 24.232V33H115.295V24.232H116.751ZM123.504 24.072C124.571 24.072 125.435 24.3973 126.096 25.048C126.757 25.688 127.088 26.616 127.088 27.832V33H125.648V28.04C125.648 27.1653 125.429 26.4987 124.992 26.04C124.555 25.5707 123.957 25.336 123.2 25.336C122.432 25.336 121.819 25.576 121.36 26.056C120.912 26.536 120.688 27.2347 120.688 28.152V33H119.232V24.232H120.688V25.48C120.976 25.032 121.365 24.6853 121.856 24.44C122.357 24.1947 122.907 24.072 123.504 24.072ZM132.73 31.656L135.45 24.232H137.002L133.562 33H131.866L128.426 24.232H129.994L132.73 31.656ZM146.435 28.28C146.435 28.5573 146.419 28.8507 146.387 29.16H139.379C139.432 30.024 139.726 30.7013 140.259 31.192C140.803 31.672 141.459 31.912 142.227 31.912C142.856 31.912 143.379 31.768 143.795 31.48C144.222 31.1813 144.52 30.7867 144.691 30.296H146.259C146.024 31.1387 145.555 31.8267 144.851 32.36C144.147 32.8827 143.272 33.144 142.227 33.144C141.395 33.144 140.648 32.9573 139.987 32.584C139.336 32.2107 138.824 31.6827 138.451 31C138.078 30.3067 137.891 29.5067 137.891 28.6C137.891 27.6933 138.072 26.8987 138.435 26.216C138.798 25.5333 139.304 25.0107 139.955 24.648C140.616 24.2747 141.374 24.088 142.227 24.088C143.059 24.088 143.795 24.2693 144.435 24.632C145.075 24.9947 145.566 25.496 145.907 26.136C146.259 26.7653 146.435 27.48 146.435 28.28ZM144.931 27.976C144.931 27.4213 144.808 26.9467 144.563 26.552C144.318 26.1467 143.982 25.8427 143.555 25.64C143.139 25.4267 142.675 25.32 142.163 25.32C141.427 25.32 140.798 25.5547 140.275 26.024C139.763 26.4933 139.47 27.144 139.395 27.976H144.931ZM151.461 33.144C150.789 33.144 150.186 33.032 149.653 32.808C149.12 32.5733 148.698 32.2533 148.389 31.848C148.08 31.432 147.909 30.9573 147.877 30.424H149.381C149.424 30.8613 149.626 31.2187 149.989 31.496C150.362 31.7733 150.848 31.912 151.445 31.912C152 31.912 152.437 31.7893 152.757 31.544C153.077 31.2987 153.237 30.9893 153.237 30.616C153.237 30.232 153.066 29.9493 152.725 29.768C152.384 29.576 151.856 29.3893 151.141 29.208C150.49 29.0373 149.957 28.8667 149.541 28.696C149.136 28.5147 148.784 28.2533 148.485 27.912C148.197 27.56 148.053 27.1013 148.053 26.536C148.053 26.088 148.186 25.6773 148.453 25.304C148.72 24.9307 149.098 24.6373 149.589 24.424C150.08 24.2 150.64 24.088 151.269 24.088C152.24 24.088 153.024 24.3333 153.621 24.824C154.218 25.3147 154.538 25.9867 154.581 26.84H153.125C153.093 26.3813 152.906 26.0133 152.565 25.736C152.234 25.4587 151.786 25.32 151.221 25.32C150.698 25.32 150.282 25.432 149.973 25.656C149.664 25.88 149.509 26.1733 149.509 26.536C149.509 26.824 149.6 27.064 149.781 27.256C149.973 27.4373 150.208 27.5867 150.485 27.704C150.773 27.8107 151.168 27.9333 151.669 28.072C152.298 28.2427 152.81 28.4133 153.205 28.584C153.6 28.744 153.936 28.9893 154.213 29.32C154.501 29.6507 154.65 30.0827 154.661 30.616C154.661 31.096 154.528 31.528 154.261 31.912C153.994 32.296 153.616 32.6 153.125 32.824C152.645 33.0373 152.09 33.144 151.461 33.144ZM158.492 25.432V30.6C158.492 31.0267 158.583 31.3307 158.764 31.512C158.946 31.6827 159.26 31.768 159.708 31.768H160.78V33H159.468C158.658 33 158.05 32.8133 157.644 32.44C157.239 32.0667 157.036 31.4533 157.036 30.6V25.432H155.9V24.232H157.036V22.024H158.492V24.232H160.78V25.432H158.492ZM170.545 28.28C170.545 28.5573 170.529 28.8507 170.497 29.16H163.489C163.542 30.024 163.835 30.7013 164.369 31.192C164.913 31.672 165.569 31.912 166.337 31.912C166.966 31.912 167.489 31.768 167.905 31.48C168.331 31.1813 168.63 30.7867 168.801 30.296H170.369C170.134 31.1387 169.665 31.8267 168.961 32.36C168.257 32.8827 167.382 33.144 166.337 33.144C165.505 33.144 164.758 32.9573 164.097 32.584C163.446 32.2107 162.934 31.6827 162.561 31C162.187 30.3067 162.001 29.5067 162.001 28.6C162.001 27.6933 162.182 26.8987 162.545 26.216C162.907 25.5333 163.414 25.0107 164.065 24.648C164.726 24.2747 165.483 24.088 166.337 24.088C167.169 24.088 167.905 24.2693 168.545 24.632C169.185 24.9947 169.675 25.496 170.017 26.136C170.369 26.7653 170.545 27.48 170.545 28.28ZM169.041 27.976C169.041 27.4213 168.918 26.9467 168.673 26.552C168.427 26.1467 168.091 25.8427 167.665 25.64C167.249 25.4267 166.785 25.32 166.273 25.32C165.537 25.32 164.907 25.5547 164.385 26.024C163.873 26.4933 163.579 27.144 163.505 27.976H169.041ZM171.922 28.584C171.922 27.688 172.104 26.904 172.466 26.232C172.829 25.5493 173.325 25.0213 173.954 24.648C174.594 24.2747 175.309 24.088 176.098 24.088C176.781 24.088 177.416 24.248 178.002 24.568C178.589 24.8773 179.037 25.288 179.346 25.8V21.16H180.818V33H179.346V31.352C179.058 31.8747 178.632 32.3067 178.066 32.648C177.501 32.9787 176.84 33.144 176.082 33.144C175.304 33.144 174.594 32.952 173.954 32.568C173.325 32.184 172.829 31.6453 172.466 30.952C172.104 30.2587 171.922 29.4693 171.922 28.584ZM179.346 28.6C179.346 27.9387 179.213 27.3627 178.946 26.872C178.68 26.3813 178.317 26.008 177.858 25.752C177.41 25.4853 176.914 25.352 176.37 25.352C175.826 25.352 175.33 25.48 174.882 25.736C174.434 25.992 174.077 26.3653 173.81 26.856C173.544 27.3467 173.41 27.9227 173.41 28.584C173.41 29.256 173.544 29.8427 173.81 30.344C174.077 30.8347 174.434 31.2133 174.882 31.48C175.33 31.736 175.826 31.864 176.37 31.864C176.914 31.864 177.41 31.736 177.858 31.48C178.317 31.2133 178.68 30.8347 178.946 30.344C179.213 29.8427 179.346 29.2613 179.346 28.6Z" fill="#242424"/>
<circle cx="218" cy="27" r="7" fill="#9FC4FF"/>
<path d="M241.688 25.112C241.688 26.04 241.368 26.8133 240.728 27.432C240.099 28.04 239.133 28.344 237.832 28.344H235.688V33H234.232V21.848H237.832C239.091 21.848 240.045 22.152 240.696 22.76C241.357 23.368 241.688 24.152 241.688 25.112ZM237.832 27.144C238.643 27.144 239.24 26.968 239.624 26.616C240.008 26.264 240.2 25.7627 240.2 25.112C240.2 23.736 239.411 23.048 237.832 23.048H235.688V27.144H237.832ZM244.954 25.656C245.21 25.1547 245.572 24.7653 246.042 24.488C246.522 24.2107 247.103 24.072 247.786 24.072V25.576H247.402C245.77 25.576 244.954 26.4613 244.954 28.232V33H243.498V24.232H244.954V25.656ZM253.29 33.144C252.469 33.144 251.722 32.9573 251.05 32.584C250.389 32.2107 249.866 31.6827 249.482 31C249.109 30.3067 248.922 29.5067 248.922 28.6C248.922 27.704 249.114 26.9147 249.498 26.232C249.893 25.5387 250.426 25.0107 251.098 24.648C251.77 24.2747 252.522 24.088 253.354 24.088C254.186 24.088 254.938 24.2747 255.61 24.648C256.282 25.0107 256.81 25.5333 257.194 26.216C257.589 26.8987 257.786 27.6933 257.786 28.6C257.786 29.5067 257.584 30.3067 257.178 31C256.784 31.6827 256.245 32.2107 255.562 32.584C254.88 32.9573 254.122 33.144 253.29 33.144ZM253.29 31.864C253.813 31.864 254.304 31.7413 254.762 31.496C255.221 31.2507 255.589 30.8827 255.866 30.392C256.154 29.9013 256.298 29.304 256.298 28.6C256.298 27.896 256.16 27.2987 255.882 26.808C255.605 26.3173 255.242 25.9547 254.794 25.72C254.346 25.4747 253.861 25.352 253.338 25.352C252.805 25.352 252.314 25.4747 251.866 25.72C251.429 25.9547 251.077 26.3173 250.81 26.808C250.544 27.2987 250.41 27.896 250.41 28.6C250.41 29.3147 250.538 29.9173 250.794 30.408C251.061 30.8987 251.413 31.2667 251.85 31.512C252.288 31.7467 252.768 31.864 253.29 31.864ZM263.269 25.432H261.429V33H259.973V25.432H258.837V24.232H259.973V23.608C259.973 22.6267 260.223 21.912 260.725 21.464C261.237 21.0053 262.053 20.776 263.173 20.776V21.992C262.533 21.992 262.079 22.12 261.813 22.376C261.557 22.6213 261.429 23.032 261.429 23.608V24.232H263.269V25.432ZM265.718 22.808C265.441 22.808 265.206 22.712 265.014 22.52C264.822 22.328 264.726 22.0933 264.726 21.816C264.726 21.5387 264.822 21.304 265.014 21.112C265.206 20.92 265.441 20.824 265.718 20.824C265.985 20.824 266.209 20.92 266.39 21.112C266.582 21.304 266.678 21.5387 266.678 21.816C266.678 22.0933 266.582 22.328 266.39 22.52C266.209 22.712 265.985 22.808 265.718 22.808ZM266.422 24.232V33H264.966V24.232H266.422ZM270.68 25.432V30.6C270.68 31.0267 270.771 31.3307 270.952 31.512C271.133 31.6827 271.448 31.768 271.896 31.768H272.968V33H271.656C270.845 33 270.237 32.8133 269.832 32.44C269.427 32.0667 269.224 31.4533 269.224 30.6V25.432H268.088V24.232H269.224V22.024H270.68V24.232H272.968V25.432H270.68ZM289.542 24.072C290.224 24.072 290.832 24.216 291.366 24.504C291.899 24.7813 292.32 25.2027 292.63 25.768C292.939 26.3333 293.094 27.0213 293.094 27.832V33H291.654V28.04C291.654 27.1653 291.435 26.4987 290.998 26.04C290.571 25.5707 289.99 25.336 289.254 25.336C288.496 25.336 287.894 25.5813 287.446 26.072C286.998 26.552 286.774 27.2507 286.774 28.168V33H285.334V28.04C285.334 27.1653 285.115 26.4987 284.678 26.04C284.251 25.5707 283.67 25.336 282.934 25.336C282.176 25.336 281.574 25.5813 281.126 26.072C280.678 26.552 280.454 27.2507 280.454 28.168V33H278.998V24.232H280.454V25.496C280.742 25.0373 281.126 24.6853 281.606 24.44C282.096 24.1947 282.635 24.072 283.222 24.072C283.958 24.072 284.608 24.2373 285.174 24.568C285.739 24.8987 286.16 25.384 286.438 26.024C286.683 25.4053 287.088 24.9253 287.654 24.584C288.219 24.2427 288.848 24.072 289.542 24.072ZM294.938 28.584C294.938 27.688 295.119 26.904 295.482 26.232C295.845 25.5493 296.341 25.0213 296.97 24.648C297.61 24.2747 298.319 24.088 299.098 24.088C299.866 24.088 300.533 24.2533 301.098 24.584C301.663 24.9147 302.085 25.3307 302.362 25.832V24.232H303.834V33H302.362V31.368C302.074 31.88 301.642 32.3067 301.066 32.648C300.501 32.9787 299.839 33.144 299.082 33.144C298.303 33.144 297.599 32.952 296.97 32.568C296.341 32.184 295.845 31.6453 295.482 30.952C295.119 30.2587 294.938 29.4693 294.938 28.584ZM302.362 28.6C302.362 27.9387 302.229 27.3627 301.962 26.872C301.695 26.3813 301.333 26.008 300.874 25.752C300.426 25.4853 299.93 25.352 299.386 25.352C298.842 25.352 298.346 25.48 297.898 25.736C297.45 25.992 297.093 26.3653 296.826 26.856C296.559 27.3467 296.426 27.9227 296.426 28.584C296.426 29.256 296.559 29.8427 296.826 30.344C297.093 30.8347 297.45 31.2133 297.898 31.48C298.346 31.736 298.842 31.864 299.386 31.864C299.93 31.864 300.426 31.736 300.874 31.48C301.333 31.2133 301.695 30.8347 301.962 30.344C302.229 29.8427 302.362 29.2613 302.362 28.6ZM305.751 28.584C305.751 27.688 305.932 26.904 306.295 26.232C306.657 25.5493 307.153 25.0213 307.783 24.648C308.423 24.2747 309.137 24.088 309.927 24.088C310.609 24.088 311.244 24.248 311.831 24.568C312.417 24.8773 312.865 25.288 313.175 25.8V21.16H314.647V33H313.175V31.352C312.887 31.8747 312.46 32.3067 311.895 32.648C311.329 32.9787 310.668 33.144 309.911 33.144C309.132 33.144 308.423 32.952 307.783 32.568C307.153 32.184 306.657 31.6453 306.295 30.952C305.932 30.2587 305.751 29.4693 305.751 28.584ZM313.175 28.6C313.175 27.9387 313.041 27.3627 312.775 26.872C312.508 26.3813 312.145 26.008 311.687 25.752C311.239 25.4853 310.743 25.352 310.199 25.352C309.655 25.352 309.159 25.48 308.711 25.736C308.263 25.992 307.905 26.3653 307.639 26.856C307.372 27.3467 307.239 27.9227 307.239 28.584C307.239 29.256 307.372 29.8427 307.639 30.344C307.905 30.8347 308.263 31.2133 308.711 31.48C309.159 31.736 309.655 31.864 310.199 31.864C310.743 31.864 311.239 31.736 311.687 31.48C312.145 31.2133 312.508 30.8347 312.775 30.344C313.041 29.8427 313.175 29.2613 313.175 28.6ZM325.107 28.28C325.107 28.5573 325.091 28.8507 325.059 29.16H318.051C318.104 30.024 318.398 30.7013 318.931 31.192C319.475 31.672 320.131 31.912 320.899 31.912C321.528 31.912 322.051 31.768 322.467 31.48C322.894 31.1813 323.192 30.7867 323.363 30.296H324.931C324.696 31.1387 324.227 31.8267 323.523 32.36C322.819 32.8827 321.944 33.144 320.899 33.144C320.067 33.144 319.32 32.9573 318.659 32.584C318.008 32.2107 317.496 31.6827 317.123 31C316.75 30.3067 316.563 29.5067 316.563 28.6C316.563 27.6933 316.744 26.8987 317.107 26.216C317.47 25.5333 317.976 25.0107 318.627 24.648C319.288 24.2747 320.046 24.088 320.899 24.088C321.731 24.088 322.467 24.2693 323.107 24.632C323.747 24.9947 324.238 25.496 324.579 26.136C324.931 26.7653 325.107 27.48 325.107 28.28ZM323.603 27.976C323.603 27.4213 323.48 26.9467 323.235 26.552C322.99 26.1467 322.654 25.8427 322.227 25.64C321.811 25.4267 321.347 25.32 320.835 25.32C320.099 25.32 319.47 25.5547 318.947 26.024C318.435 26.4933 318.142 27.144 318.067 27.976H323.603Z" fill="#242424"/>
<path d="M253.868 348.14H250.22L249.548 350H248.396L251.42 341.684H252.68L255.692 350H254.54L253.868 348.14ZM253.556 347.252L252.044 343.028L250.532 347.252H253.556ZM264.918 343.304C265.43 343.304 265.886 343.412 266.286 343.628C266.686 343.836 267.002 344.152 267.234 344.576C267.466 345 267.582 345.516 267.582 346.124V350H266.502V346.28C266.502 345.624 266.338 345.124 266.01 344.78C265.69 344.428 265.254 344.252 264.702 344.252C264.134 344.252 263.682 344.436 263.346 344.804C263.01 345.164 262.842 345.688 262.842 346.376V350H261.762V346.28C261.762 345.624 261.598 345.124 261.27 344.78C260.95 344.428 260.514 344.252 259.962 344.252C259.394 344.252 258.942 344.436 258.606 344.804C258.27 345.164 258.102 345.688 258.102 346.376V350H257.01V343.424H258.102V344.372C258.318 344.028 258.606 343.764 258.966 343.58C259.334 343.396 259.738 343.304 260.178 343.304C260.73 343.304 261.218 343.428 261.642 343.676C262.066 343.924 262.382 344.288 262.59 344.768C262.774 344.304 263.078 343.944 263.502 343.688C263.926 343.432 264.398 343.304 264.918 343.304ZM272.241 350.108C271.625 350.108 271.065 349.968 270.561 349.688C270.065 349.408 269.673 349.012 269.385 348.5C269.105 347.98 268.965 347.38 268.965 346.7C268.965 346.028 269.109 345.436 269.397 344.924C269.693 344.404 270.093 344.008 270.597 343.736C271.101 343.456 271.665 343.316 272.289 343.316C272.913 343.316 273.477 343.456 273.981 343.736C274.485 344.008 274.881 344.4 275.169 344.912C275.465 345.424 275.613 346.02 275.613 346.7C275.613 347.38 275.461 347.98 275.157 348.5C274.861 349.012 274.457 349.408 273.945 349.688C273.433 349.968 272.865 350.108 272.241 350.108ZM272.241 349.148C272.633 349.148 273.001 349.056 273.345 348.872C273.689 348.688 273.965 348.412 274.173 348.044C274.389 347.676 274.497 347.228 274.497 346.7C274.497 346.172 274.393 345.724 274.185 345.356C273.977 344.988 273.705 344.716 273.369 344.54C273.033 344.356 272.669 344.264 272.277 344.264C271.877 344.264 271.509 344.356 271.173 344.54C270.845 344.716 270.581 344.988 270.381 345.356C270.181 345.724 270.081 346.172 270.081 346.7C270.081 347.236 270.177 347.688 270.369 348.056C270.569 348.424 270.833 348.7 271.161 348.884C271.489 349.06 271.849 349.148 272.241 349.148ZM282.881 343.424V350H281.789V349.028C281.581 349.364 281.289 349.628 280.913 349.82C280.545 350.004 280.137 350.096 279.689 350.096C279.177 350.096 278.717 349.992 278.309 349.784C277.901 349.568 277.577 349.248 277.337 348.824C277.105 348.4 276.989 347.884 276.989 347.276V343.424H278.069V347.132C278.069 347.78 278.233 348.28 278.561 348.632C278.889 348.976 279.337 349.148 279.905 349.148C280.489 349.148 280.949 348.968 281.285 348.608C281.621 348.248 281.789 347.724 281.789 347.036V343.424H282.881ZM287.929 343.304C288.729 343.304 289.377 343.548 289.873 344.036C290.369 344.516 290.617 345.212 290.617 346.124V350H289.537V346.28C289.537 345.624 289.373 345.124 289.045 344.78C288.717 344.428 288.269 344.252 287.701 344.252C287.125 344.252 286.665 344.432 286.321 344.792C285.985 345.152 285.817 345.676 285.817 346.364V350H284.725V343.424H285.817V344.36C286.033 344.024 286.325 343.764 286.693 343.58C287.069 343.396 287.481 343.304 287.929 343.304ZM293.733 344.324V348.2C293.733 348.52 293.801 348.748 293.937 348.884C294.073 349.012 294.309 349.076 294.645 349.076H295.449V350H294.465C293.857 350 293.401 349.86 293.097 349.58C292.793 349.3 292.641 348.84 292.641 348.2V344.324H291.789V343.424H292.641V341.768H293.733V343.424H295.449V344.324H293.733ZM300.535 342.356C300.327 342.356 300.151 342.284 300.007 342.14C299.863 341.996 299.791 341.82 299.791 341.612C299.791 341.404 299.863 341.228 300.007 341.084C300.151 340.94 300.327 340.868 300.535 340.868C300.735 340.868 300.903 340.94 301.039 341.084C301.183 341.228 301.255 341.404 301.255 341.612C301.255 341.82 301.183 341.996 301.039 342.14C300.903 342.284 300.735 342.356 300.535 342.356ZM301.063 343.424V350H299.971V343.424H301.063ZM306.128 343.304C306.928 343.304 307.576 343.548 308.072 344.036C308.568 344.516 308.816 345.212 308.816 346.124V350H307.736V346.28C307.736 345.624 307.572 345.124 307.244 344.78C306.916 344.428 306.468 344.252 305.9 344.252C305.324 344.252 304.864 344.432 304.52 344.792C304.184 345.152 304.016 345.676 304.016 346.364V350H302.924V343.424H304.016V344.36C304.232 344.024 304.524 343.764 304.892 343.58C305.268 343.396 305.68 343.304 306.128 343.304ZM319.028 343.335L318.739 344.324H313.216L313.506 343.335H319.028ZM316.438 350L313.318 346.182L313.301 345.466H314.852C315.256 345.466 315.599 345.409 315.884 345.295C316.168 345.179 316.385 345.006 316.536 344.776C316.686 344.543 316.761 344.25 316.761 343.898C316.761 343.378 316.605 342.97 316.293 342.675C315.98 342.376 315.5 342.227 314.852 342.227H313.216L313.506 341.273H314.852C315.545 341.273 316.114 341.388 316.557 341.618C317.003 341.845 317.332 342.158 317.545 342.555C317.761 342.95 317.869 343.398 317.869 343.898C317.869 344.349 317.77 344.766 317.571 345.146C317.375 345.524 317.06 345.828 316.625 346.058C316.193 346.288 315.622 346.403 314.912 346.403H314.886L317.767 349.932V350H316.438ZM319.028 341.273L318.739 342.261L314.392 342.227L314.682 341.273H319.028Z" fill="#242424"/>
<path d="M117.54 292.5V291.252H120.036V300H118.656V292.5H117.54ZM123.463 298.896H126.283V300H122.095V291.66H123.463V298.896Z" fill="#676C76"/>
<path d="M46.72 295.512C46.72 294.128 46.952 293.048 47.416 292.272C47.888 291.488 48.696 291.096 49.84 291.096C50.984 291.096 51.788 291.488 52.252 292.272C52.724 293.048 52.96 294.128 52.96 295.512C52.96 296.912 52.724 298.008 52.252 298.8C51.788 299.584 50.984 299.976 49.84 299.976C48.696 299.976 47.888 299.584 47.416 298.8C46.952 298.008 46.72 296.912 46.72 295.512ZM51.616 295.512C51.616 294.864 51.572 294.316 51.484 293.868C51.404 293.42 51.236 293.056 50.98 292.776C50.724 292.488 50.344 292.344 49.84 292.344C49.336 292.344 48.956 292.488 48.7 292.776C48.444 293.056 48.272 293.42 48.184 293.868C48.104 294.316 48.064 294.864 48.064 295.512C48.064 296.184 48.104 296.748 48.184 297.204C48.264 297.66 48.432 298.028 48.688 298.308C48.952 298.588 49.336 298.728 49.84 298.728C50.344 298.728 50.724 298.588 50.98 298.308C51.244 298.028 51.416 297.66 51.496 297.204C51.576 296.748 51.616 296.184 51.616 295.512Z" fill="#676C76"/>
<path d="M174.476 298.14C175.244 297.476 175.848 296.932 176.288 296.508C176.736 296.076 177.108 295.628 177.404 295.164C177.7 294.7 177.848 294.236 177.848 293.772C177.848 293.292 177.732 292.916 177.5 292.644C177.276 292.372 176.92 292.236 176.432 292.236C175.96 292.236 175.592 292.388 175.328 292.692C175.072 292.988 174.936 293.388 174.92 293.892H173.6C173.624 292.98 173.896 292.284 174.416 291.804C174.944 291.316 175.612 291.072 176.42 291.072C177.292 291.072 177.972 291.312 178.46 291.792C178.956 292.272 179.204 292.912 179.204 293.712C179.204 294.288 179.056 294.844 178.76 295.38C178.472 295.908 178.124 296.384 177.716 296.808C177.316 297.224 176.804 297.708 176.18 298.26L175.64 298.74H179.444V299.88H173.612V298.884L174.476 298.14ZM182.194 298.896H185.014V300H180.826V291.66H182.194V298.896Z" fill="#676C76"/>
<path d="M225.696 293.412C225.744 292.668 226.028 292.088 226.548 291.672C227.076 291.256 227.748 291.048 228.564 291.048C229.124 291.048 229.608 291.148 230.016 291.348C230.424 291.548 230.732 291.82 230.94 292.164C231.148 292.508 231.252 292.896 231.252 293.328C231.252 293.824 231.12 294.248 230.856 294.6C230.592 294.952 230.276 295.188 229.908 295.308V295.356C230.38 295.5 230.748 295.764 231.012 296.148C231.276 296.524 231.408 297.008 231.408 297.6C231.408 298.072 231.3 298.492 231.084 298.86C230.868 299.228 230.548 299.52 230.124 299.736C229.7 299.944 229.192 300.048 228.6 300.048C227.736 300.048 227.024 299.828 226.464 299.388C225.912 298.94 225.616 298.3 225.576 297.468H226.896C226.928 297.892 227.092 298.24 227.388 298.512C227.684 298.776 228.084 298.908 228.588 298.908C229.076 298.908 229.452 298.776 229.716 298.512C229.98 298.24 230.112 297.892 230.112 297.468C230.112 296.908 229.932 296.512 229.572 296.28C229.22 296.04 228.676 295.92 227.94 295.92H227.628V294.792H227.952C228.6 294.784 229.092 294.676 229.428 294.468C229.772 294.26 229.944 293.932 229.944 293.484C229.944 293.1 229.82 292.796 229.572 292.572C229.324 292.34 228.972 292.224 228.516 292.224C228.068 292.224 227.72 292.34 227.472 292.572C227.224 292.796 227.076 293.076 227.028 293.412H225.696ZM234.393 298.896H237.213V300H233.025V291.66H234.393V298.896Z" fill="#676C76"/>
<path d="M278.552 298.509V297.477L282.584 291.693H284.24V297.321H285.356V298.509H284.24V300.333H282.896V298.509H278.552ZM282.956 293.085L280.124 297.321H282.956V293.085ZM288.038 299.229H290.858V300.333H286.67V291.993H288.038V299.229Z" fill="#676C76"/>
<path d="M339.36 292.761H335.34V295.149C335.508 294.925 335.756 294.737 336.084 294.585C336.42 294.433 336.776 294.357 337.152 294.357C337.824 294.357 338.368 294.501 338.784 294.789C339.208 295.077 339.508 295.441 339.684 295.881C339.868 296.321 339.96 296.785 339.96 297.273C339.96 297.865 339.844 298.393 339.612 298.857C339.388 299.313 339.048 299.673 338.592 299.937C338.144 300.201 337.592 300.333 336.936 300.333C336.064 300.333 335.364 300.117 334.836 299.685C334.308 299.253 333.992 298.681 333.888 297.969H335.22C335.308 298.345 335.504 298.645 335.808 298.869C336.112 299.085 336.492 299.193 336.948 299.193C337.516 299.193 337.94 299.021 338.22 298.677C338.508 298.333 338.652 297.877 338.652 297.309C338.652 296.733 338.508 296.293 338.22 295.989C337.932 295.677 337.508 295.521 336.948 295.521C336.556 295.521 336.224 295.621 335.952 295.821C335.688 296.013 335.496 296.277 335.376 296.613H334.08V291.561H339.36V292.761ZM342.932 299.229H345.752V300.333H341.564V291.993H342.932V299.229Z" fill="#676C76"/>
<path d="M392.424 293.28C392.336 292.912 392.176 292.636 391.944 292.452C391.712 292.268 391.388 292.176 390.972 292.176C390.34 292.176 389.868 292.42 389.556 292.908C389.244 293.388 389.08 294.188 389.064 295.308C389.272 294.956 389.576 294.684 389.976 294.492C390.376 294.3 390.808 294.204 391.272 294.204C391.8 294.204 392.264 294.32 392.664 294.552C393.072 294.776 393.388 295.104 393.612 295.536C393.844 295.968 393.96 296.484 393.96 297.084C393.96 297.644 393.848 298.144 393.624 298.584C393.408 299.024 393.084 299.372 392.652 299.628C392.22 299.876 391.7 300 391.092 300C390.268 300 389.62 299.82 389.148 299.46C388.684 299.092 388.356 298.576 388.164 297.912C387.98 297.248 387.888 296.42 387.888 295.428C387.888 292.5 388.92 291.036 390.984 291.036C391.784 291.036 392.412 291.252 392.868 291.684C393.332 292.116 393.604 292.648 393.684 293.28H392.424ZM390.972 295.356C390.484 295.356 390.068 295.504 389.724 295.8C389.388 296.088 389.22 296.508 389.22 297.06C389.22 297.612 389.376 298.052 389.688 298.38C390.008 298.7 390.452 298.86 391.02 298.86C391.524 298.86 391.92 298.704 392.208 298.392C392.504 298.08 392.652 297.664 392.652 297.144C392.652 296.6 392.508 296.168 392.22 295.848C391.94 295.52 391.524 295.356 390.972 295.356ZM396.967 298.896H399.787V300H395.599V291.66H396.967V298.896Z" fill="#676C76"/>
<path d="M447.264 292.308L443.928 300H442.548L445.92 292.452H441.48V291.288H447.264V292.308ZM449.983 298.896H452.803V300H448.615V291.66H449.983V298.896Z" fill="#676C76"/>
<path d="M498.196 295.428C497.364 295.012 496.948 294.356 496.948 293.46C496.948 293.028 497.056 292.632 497.272 292.272C497.488 291.912 497.812 291.628 498.244 291.42C498.676 291.204 499.204 291.096 499.828 291.096C500.444 291.096 500.968 291.204 501.4 291.42C501.84 291.628 502.168 291.912 502.384 292.272C502.6 292.632 502.708 293.028 502.708 293.46C502.708 293.908 502.592 294.304 502.36 294.648C502.136 294.984 501.836 295.244 501.46 295.428C501.916 295.596 502.276 295.872 502.54 296.256C502.804 296.632 502.936 297.076 502.936 297.588C502.936 298.108 502.804 298.568 502.54 298.968C502.276 299.368 501.908 299.676 501.436 299.892C500.964 300.108 500.428 300.216 499.828 300.216C499.228 300.216 498.692 300.108 498.22 299.892C497.756 299.676 497.392 299.368 497.128 298.968C496.864 298.568 496.732 298.108 496.732 297.588C496.732 297.068 496.864 296.62 497.128 296.244C497.392 295.868 497.748 295.596 498.196 295.428ZM501.4 293.628C501.4 293.18 501.26 292.836 500.98 292.596C500.7 292.356 500.316 292.236 499.828 292.236C499.348 292.236 498.968 292.356 498.688 292.596C498.408 292.836 498.268 293.184 498.268 293.64C498.268 294.04 498.412 294.368 498.7 294.624C498.996 294.872 499.372 294.996 499.828 294.996C500.284 294.996 500.66 294.868 500.956 294.612C501.252 294.356 501.4 294.028 501.4 293.628ZM499.828 296.028C499.3 296.028 498.868 296.16 498.532 296.424C498.204 296.68 498.04 297.052 498.04 297.54C498.04 297.996 498.2 298.368 498.52 298.656C498.84 298.936 499.276 299.076 499.828 299.076C500.372 299.076 500.8 298.932 501.112 298.644C501.432 298.356 501.592 297.988 501.592 297.54C501.592 297.06 501.428 296.688 501.1 296.424C500.78 296.16 500.356 296.028 499.828 296.028ZM505.92 298.896H508.74V300H504.552V291.66H505.92V298.896Z" fill="#676C76"/>
<rect x="285" y="185" width="24" height="215" transform="rotate(90 285 185)" fill="#142E56"/>
<rect x="410" y="185" width="24" height="125" transform="rotate(90 410 185)" fill="#9FC4FF"/>
<line x1="69.5" y1="91" x2="69.5" y2="305" stroke="#CBCBCB"/>
<line x1="38" y1="274.5" x2="530" y2="274.5" stroke="#CBCBCB"/>
<line x1="123.5" y1="90" x2="123.5" y2="274" stroke="#CFCFCF" stroke-dasharray="5 5"/>
<line x1="231.5" y1="90" x2="231.5" y2="274" stroke="#CFCFCF" stroke-dasharray="5 5"/>
<line x1="339.5" y1="90" x2="339.5" y2="274" stroke="#CFCFCF" stroke-dasharray="5 5"/>
<line x1="447.5" y1="90" x2="447.5" y2="274" stroke="#CFCFCF" stroke-dasharray="5 5"/>
<line x1="177.5" y1="90" x2="177.5" y2="274" stroke="#CFCFCF" stroke-dasharray="5 5"/>
<line x1="285.5" y1="90" x2="285.5" y2="274" stroke="#CFCFCF" stroke-dasharray="5 5"/>
<line x1="393.5" y1="90" x2="393.5" y2="274" stroke="#CFCFCF" stroke-dasharray="5 5"/>
<line x1="501.5" y1="90" x2="501.5" y2="274" stroke="#CFCFCF" stroke-dasharray="5 5"/>
<g filter="url(#filter0_dd_2390_10202)">
<rect x="281" y="133" width="137" height="34" rx="8" fill="white"/>
<path d="M299.946 148.216C299.946 148.664 299.838 149.084 299.622 149.476C299.414 149.868 299.082 150.184 298.626 150.424C298.178 150.664 297.61 150.784 296.922 150.784H295.518V154H293.838V145.624H296.922C297.57 145.624 298.122 145.736 298.578 145.96C299.034 146.184 299.374 146.492 299.598 146.884C299.83 147.276 299.946 147.72 299.946 148.216ZM296.85 149.428C297.314 149.428 297.658 149.324 297.882 149.116C298.106 148.9 298.218 148.6 298.218 148.216C298.218 147.4 297.762 146.992 296.85 146.992H295.518V149.428H296.85ZM302.819 148.384C303.035 148.032 303.315 147.756 303.659 147.556C304.011 147.356 304.411 147.256 304.859 147.256V149.02H304.415C303.887 149.02 303.487 149.144 303.215 149.392C302.951 149.64 302.819 150.072 302.819 150.688V154H301.139V147.352H302.819V148.384ZM308.942 154.108C308.302 154.108 307.726 153.968 307.214 153.688C306.702 153.4 306.298 152.996 306.002 152.476C305.714 151.956 305.57 151.356 305.57 150.676C305.57 149.996 305.718 149.396 306.014 148.876C306.318 148.356 306.73 147.956 307.25 147.676C307.77 147.388 308.35 147.244 308.99 147.244C309.63 147.244 310.21 147.388 310.73 147.676C311.25 147.956 311.658 148.356 311.954 148.876C312.258 149.396 312.41 149.996 312.41 150.676C312.41 151.356 312.254 151.956 311.942 152.476C311.638 152.996 311.222 153.4 310.694 153.688C310.174 153.968 309.59 154.108 308.942 154.108ZM308.942 152.644C309.246 152.644 309.53 152.572 309.794 152.428C310.066 152.276 310.282 152.052 310.442 151.756C310.602 151.46 310.682 151.1 310.682 150.676C310.682 150.044 310.514 149.56 310.178 149.224C309.85 148.88 309.446 148.708 308.966 148.708C308.486 148.708 308.082 148.88 307.754 149.224C307.434 149.56 307.274 150.044 307.274 150.676C307.274 151.308 307.43 151.796 307.742 152.14C308.062 152.476 308.462 152.644 308.942 152.644ZM316.69 148.732H315.526V154H313.822V148.732H313.066V147.352H313.822V147.016C313.822 146.2 314.054 145.6 314.518 145.216C314.982 144.832 315.682 144.652 316.618 144.676V146.092C316.21 146.084 315.926 146.152 315.766 146.296C315.606 146.44 315.526 146.7 315.526 147.076V147.352H316.69V148.732ZM318.631 146.56C318.335 146.56 318.087 146.468 317.887 146.284C317.695 146.092 317.599 145.856 317.599 145.576C317.599 145.296 317.695 145.064 317.887 144.88C318.087 144.688 318.335 144.592 318.631 144.592C318.927 144.592 319.171 144.688 319.363 144.88C319.563 145.064 319.663 145.296 319.663 145.576C319.663 145.856 319.563 146.092 319.363 146.284C319.171 146.468 318.927 146.56 318.631 146.56ZM319.459 147.352V154H317.779V147.352H319.459ZM323.075 148.732V151.948C323.075 152.172 323.127 152.336 323.231 152.44C323.343 152.536 323.527 152.584 323.783 152.584H324.563V154H323.507C322.091 154 321.383 153.312 321.383 151.936V148.732H320.591V147.352H321.383V145.708H323.075V147.352H324.563V148.732H323.075ZM329.375 154.084C329.071 154.084 328.819 153.992 328.619 153.808C328.427 153.616 328.331 153.38 328.331 153.1C328.331 152.82 328.427 152.588 328.619 152.404C328.819 152.212 329.071 152.116 329.375 152.116C329.671 152.116 329.915 152.212 330.107 152.404C330.299 152.588 330.395 152.82 330.395 153.1C330.395 153.38 330.299 153.616 330.107 153.808C329.915 153.992 329.671 154.084 329.375 154.084ZM329.375 149.116C329.071 149.116 328.819 149.024 328.619 148.84C328.427 148.648 328.331 148.412 328.331 148.132C328.331 147.852 328.427 147.62 328.619 147.436C328.819 147.244 329.071 147.148 329.375 147.148C329.671 147.148 329.915 147.244 330.107 147.436C330.299 147.62 330.395 147.852 330.395 148.132C330.395 148.412 330.299 148.648 330.107 148.84C329.915 149.024 329.671 149.116 329.375 149.116Z" fill="#242424"/>
<path d="M340.172 147.403L339.87 148.52H334.215L334.522 147.403H340.172ZM337.33 154L334.347 150.412L334.343 149.466H335.817C336.17 149.466 336.464 149.408 336.699 149.291C336.938 149.172 337.118 149.006 337.241 148.793C337.366 148.577 337.428 148.324 337.428 148.034C337.428 147.599 337.3 147.25 337.045 146.986C336.789 146.722 336.38 146.589 335.817 146.589H334.215L334.547 145.273H335.817C336.533 145.273 337.126 145.384 337.594 145.605C338.066 145.824 338.418 146.134 338.651 146.534C338.887 146.935 339.005 147.403 339.005 147.94C339.005 148.415 338.918 148.838 338.745 149.21C338.572 149.582 338.299 149.888 337.927 150.126C337.555 150.365 337.067 150.524 336.465 150.604L336.414 150.621L339.107 153.923V154H337.33ZM340.181 145.273L339.87 146.406L335.285 146.389L335.596 145.273H340.181ZM343.973 146.8V145.252H346.865V154H345.137V146.8H343.973ZM349.053 152.104C349.821 151.464 350.433 150.932 350.889 150.508C351.345 150.076 351.725 149.628 352.029 149.164C352.333 148.7 352.485 148.244 352.485 147.796C352.485 147.388 352.389 147.068 352.197 146.836C352.005 146.604 351.709 146.488 351.309 146.488C350.909 146.488 350.601 146.624 350.385 146.896C350.169 147.16 350.057 147.524 350.049 147.988H348.417C348.449 147.028 348.733 146.3 349.269 145.804C349.813 145.308 350.501 145.06 351.333 145.06C352.245 145.06 352.945 145.304 353.433 145.792C353.921 146.272 354.165 146.908 354.165 147.7C354.165 148.324 353.997 148.92 353.661 149.488C353.325 150.056 352.941 150.552 352.509 150.976C352.077 151.392 351.513 151.896 350.817 152.488H354.357V153.88H348.429V152.632L349.053 152.104ZM355.415 149.512C355.415 148.128 355.663 147.044 356.159 146.26C356.663 145.476 357.495 145.084 358.655 145.084C359.815 145.084 360.643 145.476 361.139 146.26C361.643 147.044 361.895 148.128 361.895 149.512C361.895 150.904 361.643 151.996 361.139 152.788C360.643 153.58 359.815 153.976 358.655 153.976C357.495 153.976 356.663 153.58 356.159 152.788C355.663 151.996 355.415 150.904 355.415 149.512ZM360.239 149.512C360.239 148.92 360.199 148.424 360.119 148.024C360.047 147.616 359.895 147.284 359.663 147.028C359.439 146.772 359.103 146.644 358.655 146.644C358.207 146.644 357.867 146.772 357.635 147.028C357.411 147.284 357.259 147.616 357.179 148.024C357.107 148.424 357.071 148.92 357.071 149.512C357.071 150.12 357.107 150.632 357.179 151.048C357.251 151.456 357.403 151.788 357.635 152.044C357.867 152.292 358.207 152.416 358.655 152.416C359.103 152.416 359.443 152.292 359.675 152.044C359.907 151.788 360.059 151.456 360.131 151.048C360.203 150.632 360.239 150.12 360.239 149.512ZM363.173 149.512C363.173 148.128 363.421 147.044 363.917 146.26C364.421 145.476 365.253 145.084 366.413 145.084C367.573 145.084 368.401 145.476 368.897 146.26C369.401 147.044 369.653 148.128 369.653 149.512C369.653 150.904 369.401 151.996 368.897 152.788C368.401 153.58 367.573 153.976 366.413 153.976C365.253 153.976 364.421 153.58 363.917 152.788C363.421 151.996 363.173 150.904 363.173 149.512ZM367.997 149.512C367.997 148.92 367.957 148.424 367.877 148.024C367.805 147.616 367.653 147.284 367.421 147.028C367.197 146.772 366.861 146.644 366.413 146.644C365.965 146.644 365.625 146.772 365.393 147.028C365.169 147.284 365.017 147.616 364.937 148.024C364.865 148.424 364.829 148.92 364.829 149.512C364.829 150.12 364.865 150.632 364.937 151.048C365.009 151.456 365.161 151.788 365.393 152.044C365.625 152.292 365.965 152.416 366.413 152.416C366.861 152.416 367.201 152.292 367.433 152.044C367.665 151.788 367.817 151.456 367.889 151.048C367.961 150.632 367.997 150.12 367.997 149.512ZM376.886 156.364C376.11 155.612 375.506 154.652 375.074 153.484C374.65 152.316 374.438 151.064 374.438 149.728C374.438 148.36 374.662 147.076 375.11 145.876C375.558 144.668 376.21 143.68 377.066 142.912H378.758V143.068C377.878 143.908 377.206 144.916 376.742 146.092C376.286 147.268 376.058 148.48 376.058 149.728C376.058 150.944 376.274 152.12 376.706 153.256C377.146 154.384 377.77 155.364 378.578 156.196V156.364H376.886ZM379.411 146.8V145.252H382.303V154H380.575V146.8H379.411ZM384.49 152.104C385.258 151.464 385.87 150.932 386.326 150.508C386.782 150.076 387.162 149.628 387.466 149.164C387.77 148.7 387.922 148.244 387.922 147.796C387.922 147.388 387.826 147.068 387.634 146.836C387.442 146.604 387.146 146.488 386.746 146.488C386.346 146.488 386.038 146.624 385.822 146.896C385.606 147.16 385.494 147.524 385.486 147.988H383.854C383.886 147.028 384.17 146.3 384.706 145.804C385.25 145.308 385.938 145.06 386.77 145.06C387.682 145.06 388.382 145.304 388.87 145.792C389.358 146.272 389.602 146.908 389.602 147.7C389.602 148.324 389.434 148.92 389.098 149.488C388.762 150.056 388.378 150.552 387.946 150.976C387.514 151.392 386.95 151.896 386.254 152.488H389.794V153.88H383.866V152.632L384.49 152.104ZM390.661 147.4C390.661 146.792 390.837 146.316 391.189 145.972C391.549 145.628 392.009 145.456 392.569 145.456C393.129 145.456 393.585 145.628 393.937 145.972C394.297 146.316 394.477 146.792 394.477 147.4C394.477 148.016 394.297 148.496 393.937 148.84C393.585 149.184 393.129 149.356 392.569 149.356C392.009 149.356 391.549 149.184 391.189 148.84C390.837 148.496 390.661 148.016 390.661 147.4ZM398.365 145.6L393.649 154H392.017L396.721 145.6H398.365ZM392.557 146.464C392.117 146.464 391.897 146.776 391.897 147.4C391.897 148.032 392.117 148.348 392.557 148.348C392.773 148.348 392.941 148.272 393.061 148.12C393.181 147.96 393.241 147.72 393.241 147.4C393.241 146.776 393.013 146.464 392.557 146.464ZM395.929 152.188C395.929 151.572 396.105 151.096 396.457 150.76C396.817 150.416 397.277 150.244 397.837 150.244C398.397 150.244 398.849 150.416 399.193 150.76C399.545 151.096 399.721 151.572 399.721 152.188C399.721 152.804 399.545 153.284 399.193 153.628C398.849 153.972 398.397 154.144 397.837 154.144C397.269 154.144 396.809 153.972 396.457 153.628C396.105 153.284 395.929 152.804 395.929 152.188ZM397.825 151.252C397.369 151.252 397.141 151.564 397.141 152.188C397.141 152.82 397.369 153.136 397.825 153.136C398.273 153.136 398.497 152.82 398.497 152.188C398.497 151.564 398.273 151.252 397.825 151.252ZM400.562 156.364V156.196C401.37 155.364 401.99 154.384 402.422 153.256C402.862 152.12 403.082 150.944 403.082 149.728C403.082 148.48 402.85 147.268 402.386 146.092C401.93 144.916 401.262 143.908 400.382 143.068V142.912H402.074C402.93 143.68 403.582 144.668 404.03 145.876C404.478 147.076 404.702 148.36 404.702 149.728C404.702 151.064 404.486 152.316 404.054 153.484C403.63 154.652 403.03 155.612 402.254 156.364H400.562Z" fill="#219653"/>
<path d="M355.571 164.485C356.462 164.485 356.908 165.562 356.278 166.192L350.207 172.263C349.817 172.654 349.183 172.654 348.793 172.263L342.722 166.192C342.092 165.562 342.538 164.485 343.429 164.485L355.571 164.485Z" fill="white"/>
</g>
<defs>
<filter id="filter0_dd_2390_10202" x="269" y="133" width="161" height="64" filterUnits="userSpaceOnUse" color-interpolation-filters="sRGB">
<feFlood flood-opacity="0" result="BackgroundImageFix"/>
<feColorMatrix in="SourceAlpha" type="matrix" values="0 0 0 0 0 0 0 0 0 0 0 0 0 0 0 0 0 0 127 0" result="hardAlpha"/>
<feMorphology radius="2" operator="erode" in="SourceAlpha" result="effect1_dropShadow_2390_10202"/>
<feOffset dy="4"/>
<feGaussianBlur stdDeviation="3"/>
<feColorMatrix type="matrix" values="0 0 0 0 0.0627451 0 0 0 0 0.0941176 0 0 0 0 0.156863 0 0 0 0.03 0"/>
<feBlend mode="normal" in2="BackgroundImageFix" result="effect1_dropShadow_2390_10202"/>
<feColorMatrix in="SourceAlpha" type="matrix" values="0 0 0 0 0 0 0 0 0 0 0 0 0 0 0 0 0 0 127 0" result="hardAlpha"/>
<feMorphology radius="4" operator="erode" in="SourceAlpha" result="effect2_dropShadow_2390_10202"/>
<feOffset dy="12"/>
<feGaussianBlur stdDeviation="8"/>
<feColorMatrix type="matrix" values="0 0 0 0 0.0627451 0 0 0 0 0.0941176 0 0 0 0 0.156863 0 0 0 0.08 0"/>
<feBlend mode="normal" in2="effect1_dropShadow_2390_10202" result="effect2_dropShadow_2390_10202"/>
<feBlend mode="normal" in="SourceGraphic" in2="effect2_dropShadow_2390_10202" result="shape"/>
</filter>
</defs>
</svg>
