<svg width="568" height="377" viewBox="0 0 568 377" fill="none" xmlns="http://www.w3.org/2000/svg">
<rect width="568" height="377" rx="8" fill="white"/>
<circle cx="31" cy="27" r="7" fill="#142E56"/>
<path d="M56 33H54.544L48.688 24.12V33H47.232V21.832H48.688L54.544 30.696V21.832H56V33ZM66.258 24.232V33H64.802V31.704C64.5247 32.152 64.1353 32.504 63.634 32.76C63.1433 33.0053 62.5993 33.128 62.002 33.128C61.3193 33.128 60.706 32.9893 60.162 32.712C59.618 32.424 59.186 31.9973 58.866 31.432C58.5567 30.8667 58.402 30.1787 58.402 29.368V24.232H59.842V29.176C59.842 30.04 60.0607 30.7067 60.498 31.176C60.9353 31.6347 61.5327 31.864 62.29 31.864C63.0687 31.864 63.682 31.624 64.13 31.144C64.578 30.664 64.802 29.9653 64.802 29.048V24.232H66.258ZM79.2604 24.072C79.943 24.072 80.551 24.216 81.0844 24.504C81.6177 24.7813 82.039 25.2027 82.3484 25.768C82.6577 26.3333 82.8124 27.0213 82.8124 27.832V33H81.3724V28.04C81.3724 27.1653 81.1537 26.4987 80.7164 26.04C80.2897 25.5707 79.7084 25.336 78.9724 25.336C78.215 25.336 77.6124 25.5813 77.1644 26.072C76.7164 26.552 76.4924 27.2507 76.4924 28.168V33H75.0524V28.04C75.0524 27.1653 74.8337 26.4987 74.3964 26.04C73.9697 25.5707 73.3884 25.336 72.6524 25.336C71.895 25.336 71.2924 25.5813 70.8444 26.072C70.3964 26.552 70.1724 27.2507 70.1724 28.168V33H68.7164V24.232H70.1724V25.496C70.4604 25.0373 70.8444 24.6853 71.3244 24.44C71.815 24.1947 72.3537 24.072 72.9404 24.072C73.6764 24.072 74.327 24.2373 74.8924 24.568C75.4577 24.8987 75.879 25.384 76.1564 26.024C76.4017 25.4053 76.807 24.9253 77.3724 24.584C77.9377 24.2427 78.567 24.072 79.2604 24.072ZM86.6568 25.864C86.9554 25.3413 87.3928 24.9147 87.9688 24.584C88.5448 24.2533 89.2008 24.088 89.9368 24.088C90.7261 24.088 91.4354 24.2747 92.0648 24.648C92.6941 25.0213 93.1901 25.5493 93.5528 26.232C93.9154 26.904 94.0968 27.688 94.0968 28.584C94.0968 29.4693 93.9154 30.2587 93.5528 30.952C93.1901 31.6453 92.6887 32.184 92.0487 32.568C91.4194 32.952 90.7154 33.144 89.9368 33.144C89.1794 33.144 88.5128 32.9787 87.9368 32.648C87.3714 32.3173 86.9448 31.896 86.6568 31.384V33H85.2008V21.16H86.6568V25.864ZM92.6088 28.584C92.6088 27.9227 92.4754 27.3467 92.2088 26.856C91.9421 26.3653 91.5794 25.992 91.1208 25.736C90.6728 25.48 90.1768 25.352 89.6328 25.352C89.0994 25.352 88.6034 25.4853 88.1448 25.752C87.6968 26.008 87.3341 26.3867 87.0568 26.888C86.7901 27.3787 86.6568 27.9493 86.6568 28.6C86.6568 29.2613 86.7901 29.8427 87.0568 30.344C87.3341 30.8347 87.6968 31.2133 88.1448 31.48C88.6034 31.736 89.0994 31.864 89.6328 31.864C90.1768 31.864 90.6728 31.736 91.1208 31.48C91.5794 31.2133 91.9421 30.8347 92.2088 30.344C92.4754 29.8427 92.6088 29.256 92.6088 28.584ZM104.013 28.28C104.013 28.5573 103.997 28.8507 103.965 29.16H96.9573C97.0106 30.024 97.3039 30.7013 97.8373 31.192C98.3813 31.672 99.0373 31.912 99.8053 31.912C100.435 31.912 100.957 31.768 101.373 31.48C101.8 31.1813 102.099 30.7867 102.269 30.296H103.837C103.603 31.1387 103.133 31.8267 102.429 32.36C101.725 32.8827 100.851 33.144 99.8053 33.144C98.9733 33.144 98.2266 32.9573 97.5653 32.584C96.9146 32.2107 96.4026 31.6827 96.0293 31C95.6559 30.3067 95.4693 29.5067 95.4693 28.6C95.4693 27.6933 95.6506 26.8987 96.0133 26.216C96.3759 25.5333 96.8826 25.0107 97.5333 24.648C98.1946 24.2747 98.9519 24.088 99.8053 24.088C100.637 24.088 101.373 24.2693 102.013 24.632C102.653 24.9947 103.144 25.496 103.485 26.136C103.837 26.7653 104.013 27.48 104.013 28.28ZM102.509 27.976C102.509 27.4213 102.387 26.9467 102.141 26.552C101.896 26.1467 101.56 25.8427 101.133 25.64C100.717 25.4267 100.253 25.32 99.7413 25.32C99.0053 25.32 98.3759 25.5547 97.8533 26.024C97.3413 26.4933 97.0479 27.144 96.9733 27.976H102.509ZM107.391 25.656C107.647 25.1547 108.01 24.7653 108.479 24.488C108.959 24.2107 109.54 24.072 110.223 24.072V25.576H109.839C108.207 25.576 107.391 26.4613 107.391 28.232V33H105.935V24.232H107.391V25.656ZM119.994 33.144C119.172 33.144 118.426 32.9573 117.754 32.584C117.092 32.2107 116.57 31.6827 116.186 31C115.812 30.3067 115.626 29.5067 115.626 28.6C115.626 27.704 115.818 26.9147 116.202 26.232C116.596 25.5387 117.13 25.0107 117.802 24.648C118.474 24.2747 119.226 24.088 120.058 24.088C120.89 24.088 121.642 24.2747 122.314 24.648C122.986 25.0107 123.514 25.5333 123.898 26.216C124.292 26.8987 124.49 27.6933 124.49 28.6C124.49 29.5067 124.287 30.3067 123.882 31C123.487 31.6827 122.948 32.2107 122.266 32.584C121.583 32.9573 120.826 33.144 119.994 33.144ZM119.994 31.864C120.516 31.864 121.007 31.7413 121.466 31.496C121.924 31.2507 122.292 30.8827 122.57 30.392C122.858 29.9013 123.002 29.304 123.002 28.6C123.002 27.896 122.863 27.2987 122.586 26.808C122.308 26.3173 121.946 25.9547 121.498 25.72C121.05 25.4747 120.564 25.352 120.042 25.352C119.508 25.352 119.018 25.4747 118.57 25.72C118.132 25.9547 117.78 26.3173 117.514 26.808C117.247 27.2987 117.114 27.896 117.114 28.6C117.114 29.3147 117.242 29.9173 117.498 30.408C117.764 30.8987 118.116 31.2667 118.554 31.512C118.991 31.7467 119.471 31.864 119.994 31.864ZM129.972 25.432H128.132V33H126.676V25.432H125.54V24.232H126.676V23.608C126.676 22.6267 126.927 21.912 127.428 21.464C127.94 21.0053 128.756 20.776 129.876 20.776V21.992C129.236 21.992 128.783 22.12 128.516 22.376C128.26 22.6213 128.132 23.032 128.132 23.608V24.232H129.972V25.432ZM135.391 28.6C135.391 27.6933 135.572 26.904 135.935 26.232C136.298 25.5493 136.799 25.0213 137.439 24.648C138.09 24.2747 138.831 24.088 139.663 24.088C140.74 24.088 141.626 24.3493 142.319 24.872C143.023 25.3947 143.487 26.12 143.711 27.048H142.143C141.994 26.5147 141.7 26.0933 141.263 25.784C140.836 25.4747 140.303 25.32 139.663 25.32C138.831 25.32 138.159 25.608 137.647 26.184C137.135 26.7493 136.879 27.5547 136.879 28.6C136.879 29.656 137.135 30.472 137.647 31.048C138.159 31.624 138.831 31.912 139.663 31.912C140.303 31.912 140.836 31.7627 141.263 31.464C141.69 31.1653 141.983 30.7387 142.143 30.184H143.711C143.476 31.08 143.007 31.8 142.303 32.344C141.599 32.8773 140.719 33.144 139.663 33.144C138.831 33.144 138.09 32.9573 137.439 32.584C136.799 32.2107 136.298 31.6827 135.935 31C135.572 30.3173 135.391 29.5173 135.391 28.6ZM145.11 28.584C145.11 27.688 145.291 26.904 145.654 26.232C146.017 25.5493 146.513 25.0213 147.142 24.648C147.782 24.2747 148.491 24.088 149.27 24.088C150.038 24.088 150.705 24.2533 151.27 24.584C151.835 24.9147 152.257 25.3307 152.534 25.832V24.232H154.006V33H152.534V31.368C152.246 31.88 151.814 32.3067 151.238 32.648C150.673 32.9787 150.011 33.144 149.254 33.144C148.475 33.144 147.771 32.952 147.142 32.568C146.513 32.184 146.017 31.6453 145.654 30.952C145.291 30.2587 145.11 29.4693 145.11 28.584ZM152.534 28.6C152.534 27.9387 152.401 27.3627 152.134 26.872C151.867 26.3813 151.505 26.008 151.046 25.752C150.598 25.4853 150.102 25.352 149.558 25.352C149.014 25.352 148.518 25.48 148.07 25.736C147.622 25.992 147.265 26.3653 146.998 26.856C146.731 27.3467 146.598 27.9227 146.598 28.584C146.598 29.256 146.731 29.8427 146.998 30.344C147.265 30.8347 147.622 31.2133 148.07 31.48C148.518 31.736 149.014 31.864 149.558 31.864C150.102 31.864 150.598 31.736 151.046 31.48C151.505 31.2133 151.867 30.8347 152.134 30.344C152.401 29.8427 152.534 29.2613 152.534 28.6ZM157.922 21.16V33H156.466V21.16H157.922ZM161.86 21.16V33H160.404V21.16H161.86ZM167.445 33.144C166.773 33.144 166.171 33.032 165.637 32.808C165.104 32.5733 164.683 32.2533 164.373 31.848C164.064 31.432 163.893 30.9573 163.861 30.424H165.365C165.408 30.8613 165.611 31.2187 165.973 31.496C166.347 31.7733 166.832 31.912 167.429 31.912C167.984 31.912 168.421 31.7893 168.741 31.544C169.061 31.2987 169.221 30.9893 169.221 30.616C169.221 30.232 169.051 29.9493 168.709 29.768C168.368 29.576 167.84 29.3893 167.125 29.208C166.475 29.0373 165.941 28.8667 165.525 28.696C165.12 28.5147 164.768 28.2533 164.469 27.912C164.181 27.56 164.037 27.1013 164.037 26.536C164.037 26.088 164.171 25.6773 164.437 25.304C164.704 24.9307 165.083 24.6373 165.573 24.424C166.064 24.2 166.624 24.088 167.253 24.088C168.224 24.088 169.008 24.3333 169.605 24.824C170.203 25.3147 170.523 25.9867 170.565 26.84H169.109C169.077 26.3813 168.891 26.0133 168.549 25.736C168.219 25.4587 167.771 25.32 167.205 25.32C166.683 25.32 166.267 25.432 165.957 25.656C165.648 25.88 165.493 26.1733 165.493 26.536C165.493 26.824 165.584 27.064 165.765 27.256C165.957 27.4373 166.192 27.5867 166.469 27.704C166.757 27.8107 167.152 27.9333 167.653 28.072C168.283 28.2427 168.795 28.4133 169.189 28.584C169.584 28.744 169.92 28.9893 170.197 29.32C170.485 29.6507 170.635 30.0827 170.645 30.616C170.645 31.096 170.512 31.528 170.245 31.912C169.979 32.296 169.6 32.6 169.109 32.824C168.629 33.0373 168.075 33.144 167.445 33.144Z" fill="#242424"/>
<circle cx="207" cy="27" r="7" fill="#9FC4FF"/>
<path d="M229.824 30.52H224.96L224.064 33H222.528L226.56 21.912H228.24L232.256 33H230.72L229.824 30.52ZM229.408 29.336L227.392 23.704L225.376 29.336H229.408ZM233.469 28.6C233.469 27.6933 233.651 26.904 234.013 26.232C234.376 25.5493 234.877 25.0213 235.517 24.648C236.168 24.2747 236.909 24.088 237.741 24.088C238.819 24.088 239.704 24.3493 240.397 24.872C241.101 25.3947 241.565 26.12 241.789 27.048H240.221C240.072 26.5147 239.779 26.0933 239.341 25.784C238.915 25.4747 238.381 25.32 237.741 25.32C236.909 25.32 236.237 25.608 235.725 26.184C235.213 26.7493 234.957 27.5547 234.957 28.6C234.957 29.656 235.213 30.472 235.725 31.048C236.237 31.624 236.909 31.912 237.741 31.912C238.381 31.912 238.915 31.7627 239.341 31.464C239.768 31.1653 240.061 30.7387 240.221 30.184H241.789C241.555 31.08 241.085 31.8 240.381 32.344C239.677 32.8773 238.797 33.144 237.741 33.144C236.909 33.144 236.168 32.9573 235.517 32.584C234.877 32.2107 234.376 31.6827 234.013 31C233.651 30.3173 233.469 29.5173 233.469 28.6ZM245.508 25.432V30.6C245.508 31.0267 245.599 31.3307 245.78 31.512C245.961 31.6827 246.276 31.768 246.724 31.768H247.796V33H246.484C245.673 33 245.065 32.8133 244.66 32.44C244.255 32.0667 244.052 31.4533 244.052 30.6V25.432H242.916V24.232H244.052V22.024H245.508V24.232H247.796V25.432H245.508ZM250.312 22.808C250.035 22.808 249.8 22.712 249.608 22.52C249.416 22.328 249.32 22.0933 249.32 21.816C249.32 21.5387 249.416 21.304 249.608 21.112C249.8 20.92 250.035 20.824 250.312 20.824C250.579 20.824 250.803 20.92 250.984 21.112C251.176 21.304 251.272 21.5387 251.272 21.816C251.272 22.0933 251.176 22.328 250.984 22.52C250.803 22.712 250.579 22.808 250.312 22.808ZM251.016 24.232V33H249.56V24.232H251.016ZM257.322 33.144C256.5 33.144 255.754 32.9573 255.082 32.584C254.42 32.2107 253.898 31.6827 253.514 31C253.14 30.3067 252.954 29.5067 252.954 28.6C252.954 27.704 253.146 26.9147 253.53 26.232C253.924 25.5387 254.458 25.0107 255.13 24.648C255.802 24.2747 256.554 24.088 257.386 24.088C258.218 24.088 258.97 24.2747 259.642 24.648C260.314 25.0107 260.842 25.5333 261.226 26.216C261.62 26.8987 261.818 27.6933 261.818 28.6C261.818 29.5067 261.615 30.3067 261.21 31C260.815 31.6827 260.276 32.2107 259.594 32.584C258.911 32.9573 258.154 33.144 257.322 33.144ZM257.322 31.864C257.844 31.864 258.335 31.7413 258.794 31.496C259.252 31.2507 259.62 30.8827 259.898 30.392C260.186 29.9013 260.33 29.304 260.33 28.6C260.33 27.896 260.191 27.2987 259.914 26.808C259.636 26.3173 259.274 25.9547 258.826 25.72C258.378 25.4747 257.892 25.352 257.37 25.352C256.836 25.352 256.346 25.4747 255.898 25.72C255.46 25.9547 255.108 26.3173 254.842 26.808C254.575 27.2987 254.442 27.896 254.442 28.6C254.442 29.3147 254.57 29.9173 254.826 30.408C255.092 30.8987 255.444 31.2667 255.882 31.512C256.319 31.7467 256.799 31.864 257.322 31.864ZM268.004 24.072C269.071 24.072 269.935 24.3973 270.596 25.048C271.257 25.688 271.588 26.616 271.588 27.832V33H270.148V28.04C270.148 27.1653 269.929 26.4987 269.492 26.04C269.055 25.5707 268.457 25.336 267.7 25.336C266.932 25.336 266.319 25.576 265.86 26.056C265.412 26.536 265.188 27.2347 265.188 28.152V33H263.732V24.232H265.188V25.48C265.476 25.032 265.865 24.6853 266.356 24.44C266.857 24.1947 267.407 24.072 268.004 24.072ZM280.008 25.432V30.6C280.008 31.0267 280.099 31.3307 280.28 31.512C280.461 31.6827 280.776 31.768 281.224 31.768H282.296V33H280.984C280.173 33 279.565 32.8133 279.16 32.44C278.755 32.0667 278.552 31.4533 278.552 30.6V25.432H277.416V24.232H278.552V22.024H280.008V24.232H282.296V25.432H280.008ZM283.516 28.584C283.516 27.688 283.697 26.904 284.06 26.232C284.423 25.5493 284.919 25.0213 285.548 24.648C286.188 24.2747 286.897 24.088 287.676 24.088C288.444 24.088 289.111 24.2533 289.676 24.584C290.241 24.9147 290.663 25.3307 290.94 25.832V24.232H292.412V33H290.94V31.368C290.652 31.88 290.22 32.3067 289.644 32.648C289.079 32.9787 288.417 33.144 287.66 33.144C286.881 33.144 286.177 32.952 285.548 32.568C284.919 32.184 284.423 31.6453 284.06 30.952C283.697 30.2587 283.516 29.4693 283.516 28.584ZM290.94 28.6C290.94 27.9387 290.807 27.3627 290.54 26.872C290.273 26.3813 289.911 26.008 289.452 25.752C289.004 25.4853 288.508 25.352 287.964 25.352C287.42 25.352 286.924 25.48 286.476 25.736C286.028 25.992 285.671 26.3653 285.404 26.856C285.137 27.3467 285.004 27.9227 285.004 28.584C285.004 29.256 285.137 29.8427 285.404 30.344C285.671 30.8347 286.028 31.2133 286.476 31.48C286.924 31.736 287.42 31.864 287.964 31.864C288.508 31.864 289.004 31.736 289.452 31.48C289.911 31.2133 290.273 30.8347 290.54 30.344C290.807 29.8427 290.94 29.2613 290.94 28.6ZM299.769 33L296.329 29.128V33H294.873V21.16H296.329V28.12L299.705 24.232H301.737L297.609 28.6L301.753 33H299.769ZM311.107 28.28C311.107 28.5573 311.091 28.8507 311.059 29.16H304.051C304.104 30.024 304.398 30.7013 304.931 31.192C305.475 31.672 306.131 31.912 306.899 31.912C307.528 31.912 308.051 31.768 308.467 31.48C308.894 31.1813 309.192 30.7867 309.363 30.296H310.931C310.696 31.1387 310.227 31.8267 309.523 32.36C308.819 32.8827 307.944 33.144 306.899 33.144C306.067 33.144 305.32 32.9573 304.659 32.584C304.008 32.2107 303.496 31.6827 303.123 31C302.75 30.3067 302.563 29.5067 302.563 28.6C302.563 27.6933 302.744 26.8987 303.107 26.216C303.47 25.5333 303.976 25.0107 304.627 24.648C305.288 24.2747 306.046 24.088 306.899 24.088C307.731 24.088 308.467 24.2693 309.107 24.632C309.747 24.9947 310.238 25.496 310.579 26.136C310.931 26.7653 311.107 27.48 311.107 28.28ZM309.603 27.976C309.603 27.4213 309.48 26.9467 309.235 26.552C308.99 26.1467 308.654 25.8427 308.227 25.64C307.811 25.4267 307.347 25.32 306.835 25.32C306.099 25.32 305.47 25.5547 304.947 26.024C304.435 26.4933 304.142 27.144 304.067 27.976H309.603ZM317.301 24.072C318.368 24.072 319.232 24.3973 319.893 25.048C320.554 25.688 320.885 26.616 320.885 27.832V33H319.445V28.04C319.445 27.1653 319.226 26.4987 318.789 26.04C318.352 25.5707 317.754 25.336 316.997 25.336C316.229 25.336 315.616 25.576 315.157 26.056C314.709 26.536 314.485 27.2347 314.485 28.152V33H313.029V24.232H314.485V25.48C314.773 25.032 315.162 24.6853 315.653 24.44C316.154 24.1947 316.704 24.072 317.301 24.072Z" fill="#242424"/>
<path d="M393.654 265.595C384.758 281.901 371.978 295.761 356.445 305.948C340.913 316.135 323.109 322.334 304.608 323.997C286.108 325.659 267.484 322.733 250.384 315.478C233.285 308.223 218.239 296.863 206.578 282.404C194.918 267.945 187.004 250.834 183.536 232.586C180.068 214.338 181.155 195.516 186.698 177.788C192.242 160.06 202.073 143.973 215.319 130.951C228.566 117.93 244.819 108.376 262.639 103.137L294.5 211.5L393.654 265.595Z" fill="#142E56"/>
<path d="M265.705 115.317C284.728 109.622 305.013 109.696 323.994 115.529C342.975 121.363 359.8 132.694 372.341 148.089C384.883 163.485 392.577 182.253 394.452 202.022C396.326 221.791 392.296 241.671 382.872 259.149L294.5 211.5L265.705 115.317Z" fill="#9FC4FF"/>
<g filter="url(#filter0_dd_2390_10186)">
<rect x="83" y="251" width="130" height="34" rx="8" fill="white"/>
<path d="M101.341 270.404H98.005L97.453 272H95.689L98.701 263.612H100.657L103.669 272H101.893L101.341 270.404ZM100.885 269.06L99.673 265.556L98.461 269.06H100.885ZM104.363 268.676C104.363 267.988 104.503 267.388 104.783 266.876C105.063 266.356 105.451 265.956 105.947 265.676C106.443 265.388 107.011 265.244 107.651 265.244C108.475 265.244 109.155 265.452 109.691 265.868C110.235 266.276 110.599 266.852 110.783 267.596H108.971C108.875 267.308 108.711 267.084 108.479 266.924C108.255 266.756 107.975 266.672 107.639 266.672C107.159 266.672 106.779 266.848 106.499 267.2C106.219 267.544 106.079 268.036 106.079 268.676C106.079 269.308 106.219 269.8 106.499 270.152C106.779 270.496 107.159 270.668 107.639 270.668C108.319 270.668 108.763 270.364 108.971 269.756H110.783C110.599 270.476 110.235 271.048 109.691 271.472C109.147 271.896 108.467 272.108 107.651 272.108C107.011 272.108 106.443 271.968 105.947 271.688C105.451 271.4 105.063 271 104.783 270.488C104.503 269.968 104.363 269.364 104.363 268.676ZM113.97 266.732V269.948C113.97 270.172 114.022 270.336 114.126 270.44C114.238 270.536 114.422 270.584 114.678 270.584H115.458V272H114.402C112.986 272 112.278 271.312 112.278 269.936V266.732H111.486V265.352H112.278V263.708H113.97V265.352H115.458V266.732H113.97ZM117.518 264.56C117.222 264.56 116.974 264.468 116.774 264.284C116.582 264.092 116.486 263.856 116.486 263.576C116.486 263.296 116.582 263.064 116.774 262.88C116.974 262.688 117.222 262.592 117.518 262.592C117.814 262.592 118.058 262.688 118.25 262.88C118.45 263.064 118.55 263.296 118.55 263.576C118.55 263.856 118.45 264.092 118.25 264.284C118.058 264.468 117.814 264.56 117.518 264.56ZM118.346 265.352V272H116.666V265.352H118.346ZM122.958 272.108C122.318 272.108 121.742 271.968 121.23 271.688C120.718 271.4 120.314 270.996 120.018 270.476C119.73 269.956 119.586 269.356 119.586 268.676C119.586 267.996 119.734 267.396 120.03 266.876C120.334 266.356 120.746 265.956 121.266 265.676C121.786 265.388 122.366 265.244 123.006 265.244C123.646 265.244 124.226 265.388 124.746 265.676C125.266 265.956 125.674 266.356 125.97 266.876C126.274 267.396 126.426 267.996 126.426 268.676C126.426 269.356 126.27 269.956 125.958 270.476C125.654 270.996 125.238 271.4 124.71 271.688C124.19 271.968 123.606 272.108 122.958 272.108ZM122.958 270.644C123.262 270.644 123.546 270.572 123.81 270.428C124.082 270.276 124.298 270.052 124.458 269.756C124.618 269.46 124.698 269.1 124.698 268.676C124.698 268.044 124.53 267.56 124.194 267.224C123.866 266.88 123.462 266.708 122.982 266.708C122.502 266.708 122.098 266.88 121.77 267.224C121.45 267.56 121.29 268.044 121.29 268.676C121.29 269.308 121.446 269.796 121.758 270.14C122.078 270.476 122.478 270.644 122.958 270.644ZM131.342 265.256C132.134 265.256 132.774 265.508 133.262 266.012C133.75 266.508 133.994 267.204 133.994 268.1V272H132.314V268.328C132.314 267.8 132.182 267.396 131.918 267.116C131.654 266.828 131.294 266.684 130.838 266.684C130.374 266.684 130.006 266.828 129.734 267.116C129.47 267.396 129.338 267.8 129.338 268.328V272H127.658V265.352H129.338V266.18C129.562 265.892 129.846 265.668 130.19 265.508C130.542 265.34 130.926 265.256 131.342 265.256ZM140.407 266.732V269.948C140.407 270.172 140.459 270.336 140.563 270.44C140.675 270.536 140.859 270.584 141.115 270.584H141.895V272H140.839C139.423 272 138.715 271.312 138.715 269.936V266.732H137.923V265.352H138.715V263.708H140.407V265.352H141.895V266.732H140.407ZM142.671 268.652C142.671 267.98 142.803 267.384 143.067 266.864C143.339 266.344 143.703 265.944 144.159 265.664C144.623 265.384 145.139 265.244 145.707 265.244C146.203 265.244 146.635 265.344 147.003 265.544C147.379 265.744 147.679 265.996 147.903 266.3V265.352H149.595V272H147.903V271.028C147.687 271.34 147.387 271.6 147.003 271.808C146.627 272.008 146.191 272.108 145.695 272.108C145.135 272.108 144.623 271.964 144.159 271.676C143.703 271.388 143.339 270.984 143.067 270.464C142.803 269.936 142.671 269.332 142.671 268.652ZM147.903 268.676C147.903 268.268 147.823 267.92 147.663 267.632C147.503 267.336 147.287 267.112 147.015 266.96C146.743 266.8 146.451 266.72 146.139 266.72C145.827 266.72 145.539 266.796 145.275 266.948C145.011 267.1 144.795 267.324 144.627 267.62C144.467 267.908 144.387 268.252 144.387 268.652C144.387 269.052 144.467 269.404 144.627 269.708C144.795 270.004 145.011 270.232 145.275 270.392C145.547 270.552 145.835 270.632 146.139 270.632C146.451 270.632 146.743 270.556 147.015 270.404C147.287 270.244 147.503 270.02 147.663 269.732C147.823 269.436 147.903 269.084 147.903 268.676ZM155.172 272L152.916 269.168V272H151.236V263.12H152.916V268.172L155.148 265.352H157.332L154.404 268.688L157.356 272H155.172ZM164.424 268.532C164.424 268.772 164.408 268.988 164.376 269.18H159.516C159.556 269.66 159.724 270.036 160.02 270.308C160.316 270.58 160.68 270.716 161.112 270.716C161.736 270.716 162.18 270.448 162.444 269.912H164.256C164.064 270.552 163.696 271.08 163.152 271.496C162.608 271.904 161.94 272.108 161.148 272.108C160.508 272.108 159.932 271.968 159.42 271.688C158.916 271.4 158.52 270.996 158.232 270.476C157.952 269.956 157.812 269.356 157.812 268.676C157.812 267.988 157.952 267.384 158.232 266.864C158.512 266.344 158.904 265.944 159.408 265.664C159.912 265.384 160.492 265.244 161.148 265.244C161.78 265.244 162.344 265.38 162.84 265.652C163.344 265.924 163.732 266.312 164.004 266.816C164.284 267.312 164.424 267.884 164.424 268.532ZM162.684 268.052C162.676 267.62 162.52 267.276 162.216 267.02C161.912 266.756 161.54 266.624 161.1 266.624C160.684 266.624 160.332 266.752 160.044 267.008C159.764 267.256 159.592 267.604 159.528 268.052H162.684ZM169.334 265.256C170.126 265.256 170.766 265.508 171.254 266.012C171.742 266.508 171.986 267.204 171.986 268.1V272H170.306V268.328C170.306 267.8 170.174 267.396 169.91 267.116C169.646 266.828 169.286 266.684 168.83 266.684C168.366 266.684 167.998 266.828 167.726 267.116C167.462 267.396 167.33 267.8 167.33 268.328V272H165.65V265.352H167.33V266.18C167.554 265.892 167.838 265.668 168.182 265.508C168.534 265.34 168.918 265.256 169.334 265.256ZM177.187 272.084C176.883 272.084 176.631 271.992 176.431 271.808C176.239 271.616 176.143 271.38 176.143 271.1C176.143 270.82 176.239 270.588 176.431 270.404C176.631 270.212 176.883 270.116 177.187 270.116C177.483 270.116 177.727 270.212 177.919 270.404C178.111 270.588 178.207 270.82 178.207 271.1C178.207 271.38 178.111 271.616 177.919 271.808C177.727 271.992 177.483 272.084 177.187 272.084ZM177.187 267.116C176.883 267.116 176.631 267.024 176.431 266.84C176.239 266.648 176.143 266.412 176.143 266.132C176.143 265.852 176.239 265.62 176.431 265.436C176.631 265.244 176.883 265.148 177.187 265.148C177.483 265.148 177.727 265.244 177.919 265.436C178.111 265.62 178.207 265.852 178.207 266.132C178.207 266.412 178.111 266.648 177.919 266.84C177.727 267.024 177.483 267.116 177.187 267.116ZM182.059 264.8V263.252H184.951V272H183.223V264.8H182.059ZM187.139 270.104C187.907 269.464 188.519 268.932 188.975 268.508C189.431 268.076 189.811 267.628 190.115 267.164C190.419 266.7 190.571 266.244 190.571 265.796C190.571 265.388 190.475 265.068 190.283 264.836C190.091 264.604 189.795 264.488 189.395 264.488C188.995 264.488 188.687 264.624 188.471 264.896C188.255 265.16 188.143 265.524 188.135 265.988H186.503C186.535 265.028 186.819 264.3 187.355 263.804C187.899 263.308 188.587 263.06 189.419 263.06C190.331 263.06 191.031 263.304 191.519 263.792C192.007 264.272 192.251 264.908 192.251 265.7C192.251 266.324 192.083 266.92 191.747 267.488C191.411 268.056 191.027 268.552 190.595 268.976C190.163 269.392 189.599 269.896 188.903 270.488H192.443V271.88H186.515V270.632L187.139 270.104ZM193.501 267.512C193.501 266.128 193.749 265.044 194.245 264.26C194.749 263.476 195.581 263.084 196.741 263.084C197.901 263.084 198.729 263.476 199.225 264.26C199.729 265.044 199.981 266.128 199.981 267.512C199.981 268.904 199.729 269.996 199.225 270.788C198.729 271.58 197.901 271.976 196.741 271.976C195.581 271.976 194.749 271.58 194.245 270.788C193.749 269.996 193.501 268.904 193.501 267.512ZM198.325 267.512C198.325 266.92 198.285 266.424 198.205 266.024C198.133 265.616 197.981 265.284 197.749 265.028C197.525 264.772 197.189 264.644 196.741 264.644C196.293 264.644 195.953 264.772 195.721 265.028C195.497 265.284 195.345 265.616 195.265 266.024C195.193 266.424 195.157 266.92 195.157 267.512C195.157 268.12 195.193 268.632 195.265 269.048C195.337 269.456 195.489 269.788 195.721 270.044C195.953 270.292 196.293 270.416 196.741 270.416C197.189 270.416 197.529 270.292 197.761 270.044C197.993 269.788 198.145 269.456 198.217 269.048C198.289 268.632 198.325 268.12 198.325 267.512Z" fill="#242424"/>
<g clip-path="url(#clip0_2390_10186)">
<path d="M210.485 261.929C210.485 261.038 211.562 260.592 212.192 261.222L218.263 267.293C218.654 267.683 218.654 268.317 218.263 268.707L212.192 274.778C211.562 275.408 210.485 274.962 210.485 274.071L210.485 261.929Z" fill="white"/>
</g>
</g>
<g filter="url(#filter1_dd_2390_10186)">
<path d="M349.515 152.071C349.515 152.962 348.438 153.408 347.808 152.778L341.737 146.707C341.346 146.317 341.346 145.683 341.737 145.293L347.808 139.222C348.438 138.592 349.515 139.038 349.515 139.929L349.515 152.071Z" fill="white"/>
<rect x="347" y="129" width="152" height="34" rx="8" fill="white"/>
<path d="M367.453 150H365.773L361.969 144.252V150H360.289V141.612H361.969L365.773 147.372V141.612H367.453V150ZM375.389 143.352V150H373.697V149.16C373.481 149.448 373.197 149.676 372.845 149.844C372.501 150.004 372.125 150.084 371.717 150.084C371.197 150.084 370.737 149.976 370.337 149.76C369.937 149.536 369.621 149.212 369.389 148.788C369.165 148.356 369.053 147.844 369.053 147.252V143.352H370.733V147.012C370.733 147.54 370.865 147.948 371.129 148.236C371.393 148.516 371.753 148.656 372.209 148.656C372.673 148.656 373.037 148.516 373.301 148.236C373.565 147.948 373.697 147.54 373.697 147.012V143.352H375.389ZM385.303 143.256C386.119 143.256 386.775 143.508 387.271 144.012C387.775 144.508 388.027 145.204 388.027 146.1V150H386.347V146.328C386.347 145.808 386.215 145.412 385.951 145.14C385.687 144.86 385.327 144.72 384.871 144.72C384.415 144.72 384.051 144.86 383.779 145.14C383.515 145.412 383.383 145.808 383.383 146.328V150H381.703V146.328C381.703 145.808 381.571 145.412 381.307 145.14C381.043 144.86 380.683 144.72 380.227 144.72C379.763 144.72 379.395 144.86 379.123 145.14C378.859 145.412 378.727 145.808 378.727 146.328V150H377.047V143.352H378.727V144.156C378.943 143.876 379.219 143.656 379.555 143.496C379.899 143.336 380.275 143.256 380.683 143.256C381.203 143.256 381.667 143.368 382.075 143.592C382.483 143.808 382.799 144.12 383.023 144.528C383.239 144.144 383.551 143.836 383.959 143.604C384.375 143.372 384.823 143.256 385.303 143.256ZM391.301 144.324C391.517 144.004 391.813 143.744 392.189 143.544C392.573 143.344 393.009 143.244 393.497 143.244C394.065 143.244 394.577 143.384 395.033 143.664C395.497 143.944 395.861 144.344 396.125 144.864C396.397 145.376 396.533 145.972 396.533 146.652C396.533 147.332 396.397 147.936 396.125 148.464C395.861 148.984 395.497 149.388 395.033 149.676C394.577 149.964 394.065 150.108 393.497 150.108C393.001 150.108 392.565 150.012 392.189 149.82C391.821 149.62 391.525 149.364 391.301 149.052V150H389.621V141.12H391.301V144.324ZM394.817 146.652C394.817 146.252 394.733 145.908 394.565 145.62C394.405 145.324 394.189 145.1 393.917 144.948C393.653 144.796 393.365 144.72 393.053 144.72C392.749 144.72 392.461 144.8 392.189 144.96C391.925 145.112 391.709 145.336 391.541 145.632C391.381 145.928 391.301 146.276 391.301 146.676C391.301 147.076 391.381 147.424 391.541 147.72C391.709 148.016 391.925 148.244 392.189 148.404C392.461 148.556 392.749 148.632 393.053 148.632C393.365 148.632 393.653 148.552 393.917 148.392C394.189 148.232 394.405 148.004 394.565 147.708C394.733 147.412 394.817 147.06 394.817 146.652ZM403.934 146.532C403.934 146.772 403.918 146.988 403.886 147.18H399.026C399.066 147.66 399.234 148.036 399.53 148.308C399.826 148.58 400.19 148.716 400.622 148.716C401.246 148.716 401.69 148.448 401.954 147.912H403.766C403.574 148.552 403.206 149.08 402.662 149.496C402.118 149.904 401.45 150.108 400.658 150.108C400.018 150.108 399.442 149.968 398.93 149.688C398.426 149.4 398.03 148.996 397.742 148.476C397.462 147.956 397.322 147.356 397.322 146.676C397.322 145.988 397.462 145.384 397.742 144.864C398.022 144.344 398.414 143.944 398.918 143.664C399.422 143.384 400.002 143.244 400.658 143.244C401.29 143.244 401.854 143.38 402.35 143.652C402.854 143.924 403.242 144.312 403.514 144.816C403.794 145.312 403.934 145.884 403.934 146.532ZM402.194 146.052C402.186 145.62 402.03 145.276 401.726 145.02C401.422 144.756 401.05 144.624 400.61 144.624C400.194 144.624 399.842 144.752 399.554 145.008C399.274 145.256 399.102 145.604 399.038 146.052H402.194ZM406.84 144.384C407.056 144.032 407.336 143.756 407.68 143.556C408.032 143.356 408.432 143.256 408.88 143.256V145.02H408.436C407.908 145.02 407.508 145.144 407.236 145.392C406.972 145.64 406.84 146.072 406.84 146.688V150H405.16V143.352H406.84V144.384ZM415.823 150.108C415.183 150.108 414.607 149.968 414.095 149.688C413.583 149.4 413.179 148.996 412.883 148.476C412.595 147.956 412.451 147.356 412.451 146.676C412.451 145.996 412.599 145.396 412.895 144.876C413.199 144.356 413.611 143.956 414.131 143.676C414.651 143.388 415.231 143.244 415.871 143.244C416.511 143.244 417.091 143.388 417.611 143.676C418.131 143.956 418.539 144.356 418.835 144.876C419.139 145.396 419.291 145.996 419.291 146.676C419.291 147.356 419.135 147.956 418.823 148.476C418.519 148.996 418.103 149.4 417.575 149.688C417.055 149.968 416.471 150.108 415.823 150.108ZM415.823 148.644C416.127 148.644 416.411 148.572 416.675 148.428C416.947 148.276 417.163 148.052 417.323 147.756C417.483 147.46 417.563 147.1 417.563 146.676C417.563 146.044 417.395 145.56 417.059 145.224C416.731 144.88 416.327 144.708 415.847 144.708C415.367 144.708 414.963 144.88 414.635 145.224C414.315 145.56 414.155 146.044 414.155 146.676C414.155 147.308 414.311 147.796 414.623 148.14C414.943 148.476 415.343 148.644 415.823 148.644ZM423.571 144.732H422.407V150H420.703V144.732H419.947V143.352H420.703V143.016C420.703 142.2 420.935 141.6 421.399 141.216C421.863 140.832 422.563 140.652 423.499 140.676V142.092C423.091 142.084 422.807 142.152 422.647 142.296C422.487 142.44 422.407 142.7 422.407 143.076V143.352H423.571V144.732ZM427.087 146.676C427.087 145.988 427.227 145.388 427.507 144.876C427.787 144.356 428.175 143.956 428.671 143.676C429.167 143.388 429.735 143.244 430.375 143.244C431.199 143.244 431.879 143.452 432.415 143.868C432.959 144.276 433.323 144.852 433.507 145.596H431.695C431.599 145.308 431.435 145.084 431.203 144.924C430.979 144.756 430.699 144.672 430.363 144.672C429.883 144.672 429.503 144.848 429.223 145.2C428.943 145.544 428.803 146.036 428.803 146.676C428.803 147.308 428.943 147.8 429.223 148.152C429.503 148.496 429.883 148.668 430.363 148.668C431.043 148.668 431.487 148.364 431.695 147.756H433.507C433.323 148.476 432.959 149.048 432.415 149.472C431.871 149.896 431.191 150.108 430.375 150.108C429.735 150.108 429.167 149.968 428.671 149.688C428.175 149.4 427.787 149 427.507 148.488C427.227 147.968 427.087 147.364 427.087 146.676ZM434.306 146.652C434.306 145.98 434.438 145.384 434.702 144.864C434.974 144.344 435.338 143.944 435.794 143.664C436.258 143.384 436.774 143.244 437.342 143.244C437.838 143.244 438.27 143.344 438.638 143.544C439.014 143.744 439.314 143.996 439.538 144.3V143.352H441.23V150H439.538V149.028C439.322 149.34 439.022 149.6 438.638 149.808C438.262 150.008 437.826 150.108 437.33 150.108C436.77 150.108 436.258 149.964 435.794 149.676C435.338 149.388 434.974 148.984 434.702 148.464C434.438 147.936 434.306 147.332 434.306 146.652ZM439.538 146.676C439.538 146.268 439.458 145.92 439.298 145.632C439.138 145.336 438.922 145.112 438.65 144.96C438.378 144.8 438.086 144.72 437.774 144.72C437.462 144.72 437.174 144.796 436.91 144.948C436.646 145.1 436.43 145.324 436.262 145.62C436.102 145.908 436.022 146.252 436.022 146.652C436.022 147.052 436.102 147.404 436.262 147.708C436.43 148.004 436.646 148.232 436.91 148.392C437.182 148.552 437.47 148.632 437.774 148.632C438.086 148.632 438.378 148.556 438.65 148.404C438.922 148.244 439.138 148.02 439.298 147.732C439.458 147.436 439.538 147.084 439.538 146.676ZM444.551 141.12V150H442.871V141.12H444.551ZM447.891 141.12V150H446.211V141.12H447.891ZM452.095 150.108C451.551 150.108 451.063 150.012 450.631 149.82C450.199 149.62 449.855 149.352 449.599 149.016C449.351 148.68 449.215 148.308 449.191 147.9H450.883C450.915 148.156 451.039 148.368 451.255 148.536C451.479 148.704 451.755 148.788 452.083 148.788C452.403 148.788 452.651 148.724 452.827 148.596C453.011 148.468 453.103 148.304 453.103 148.104C453.103 147.888 452.991 147.728 452.767 147.624C452.551 147.512 452.203 147.392 451.723 147.264C451.227 147.144 450.819 147.02 450.499 146.892C450.187 146.764 449.915 146.568 449.683 146.304C449.459 146.04 449.347 145.684 449.347 145.236C449.347 144.868 449.451 144.532 449.659 144.228C449.875 143.924 450.179 143.684 450.571 143.508C450.971 143.332 451.439 143.244 451.975 143.244C452.767 143.244 453.399 143.444 453.871 143.844C454.343 144.236 454.603 144.768 454.651 145.44H453.043C453.019 145.176 452.907 144.968 452.707 144.816C452.515 144.656 452.255 144.576 451.927 144.576C451.623 144.576 451.387 144.632 451.219 144.744C451.059 144.856 450.979 145.012 450.979 145.212C450.979 145.436 451.091 145.608 451.315 145.728C451.539 145.84 451.887 145.956 452.359 146.076C452.839 146.196 453.235 146.32 453.547 146.448C453.859 146.576 454.127 146.776 454.351 147.048C454.583 147.312 454.703 147.664 454.711 148.104C454.711 148.488 454.603 148.832 454.387 149.136C454.179 149.44 453.875 149.68 453.475 149.856C453.083 150.024 452.623 150.108 452.095 150.108ZM459.693 150.084C459.389 150.084 459.137 149.992 458.937 149.808C458.745 149.616 458.649 149.38 458.649 149.1C458.649 148.82 458.745 148.588 458.937 148.404C459.137 148.212 459.389 148.116 459.693 148.116C459.989 148.116 460.233 148.212 460.425 148.404C460.617 148.588 460.713 148.82 460.713 149.1C460.713 149.38 460.617 149.616 460.425 149.808C460.233 149.992 459.989 150.084 459.693 150.084ZM459.693 145.116C459.389 145.116 459.137 145.024 458.937 144.84C458.745 144.648 458.649 144.412 458.649 144.132C458.649 143.852 458.745 143.62 458.937 143.436C459.137 143.244 459.389 143.148 459.693 143.148C459.989 143.148 460.233 143.244 460.425 143.436C460.617 143.62 460.713 143.852 460.713 144.132C460.713 144.412 460.617 144.648 460.425 144.84C460.233 145.024 459.989 145.116 459.693 145.116ZM465.297 148.104C466.065 147.464 466.677 146.932 467.133 146.508C467.589 146.076 467.969 145.628 468.273 145.164C468.577 144.7 468.729 144.244 468.729 143.796C468.729 143.388 468.633 143.068 468.441 142.836C468.249 142.604 467.953 142.488 467.553 142.488C467.153 142.488 466.845 142.624 466.629 142.896C466.413 143.16 466.301 143.524 466.293 143.988H464.661C464.693 143.028 464.977 142.3 465.513 141.804C466.057 141.308 466.745 141.06 467.577 141.06C468.489 141.06 469.189 141.304 469.677 141.792C470.165 142.272 470.409 142.908 470.409 143.7C470.409 144.324 470.241 144.92 469.905 145.488C469.569 146.056 469.185 146.552 468.753 146.976C468.321 147.392 467.757 147.896 467.061 148.488H470.601V149.88H464.673V148.632L465.297 148.104ZM471.659 145.512C471.659 144.128 471.907 143.044 472.403 142.26C472.907 141.476 473.739 141.084 474.899 141.084C476.059 141.084 476.887 141.476 477.383 142.26C477.887 143.044 478.139 144.128 478.139 145.512C478.139 146.904 477.887 147.996 477.383 148.788C476.887 149.58 476.059 149.976 474.899 149.976C473.739 149.976 472.907 149.58 472.403 148.788C471.907 147.996 471.659 146.904 471.659 145.512ZM476.483 145.512C476.483 144.92 476.443 144.424 476.363 144.024C476.291 143.616 476.139 143.284 475.907 143.028C475.683 142.772 475.347 142.644 474.899 142.644C474.451 142.644 474.111 142.772 473.879 143.028C473.655 143.284 473.503 143.616 473.423 144.024C473.351 144.424 473.315 144.92 473.315 145.512C473.315 146.12 473.351 146.632 473.423 147.048C473.495 147.456 473.647 147.788 473.879 148.044C474.111 148.292 474.451 148.416 474.899 148.416C475.347 148.416 475.687 148.292 475.919 148.044C476.151 147.788 476.303 147.456 476.375 147.048C476.447 146.632 476.483 146.12 476.483 145.512ZM479.417 145.512C479.417 144.128 479.665 143.044 480.161 142.26C480.665 141.476 481.497 141.084 482.657 141.084C483.817 141.084 484.645 141.476 485.141 142.26C485.645 143.044 485.897 144.128 485.897 145.512C485.897 146.904 485.645 147.996 485.141 148.788C484.645 149.58 483.817 149.976 482.657 149.976C481.497 149.976 480.665 149.58 480.161 148.788C479.665 147.996 479.417 146.904 479.417 145.512ZM484.241 145.512C484.241 144.92 484.201 144.424 484.121 144.024C484.049 143.616 483.897 143.284 483.665 143.028C483.441 142.772 483.105 142.644 482.657 142.644C482.209 142.644 481.869 142.772 481.637 143.028C481.413 143.284 481.261 143.616 481.181 144.024C481.109 144.424 481.073 144.92 481.073 145.512C481.073 146.12 481.109 146.632 481.181 147.048C481.253 147.456 481.405 147.788 481.637 148.044C481.869 148.292 482.209 148.416 482.657 148.416C483.105 148.416 483.445 148.292 483.677 148.044C483.909 147.788 484.061 147.456 484.133 147.048C484.205 146.632 484.241 146.12 484.241 145.512Z" fill="#242424"/>
</g>
<defs>
<filter id="filter0_dd_2390_10186" x="71" y="251" width="160" height="58" filterUnits="userSpaceOnUse" color-interpolation-filters="sRGB">
<feFlood flood-opacity="0" result="BackgroundImageFix"/>
<feColorMatrix in="SourceAlpha" type="matrix" values="0 0 0 0 0 0 0 0 0 0 0 0 0 0 0 0 0 0 127 0" result="hardAlpha"/>
<feMorphology radius="2" operator="erode" in="SourceAlpha" result="effect1_dropShadow_2390_10186"/>
<feOffset dy="4"/>
<feGaussianBlur stdDeviation="3"/>
<feColorMatrix type="matrix" values="0 0 0 0 0.0627451 0 0 0 0 0.0941176 0 0 0 0 0.156863 0 0 0 0.03 0"/>
<feBlend mode="normal" in2="BackgroundImageFix" result="effect1_dropShadow_2390_10186"/>
<feColorMatrix in="SourceAlpha" type="matrix" values="0 0 0 0 0 0 0 0 0 0 0 0 0 0 0 0 0 0 127 0" result="hardAlpha"/>
<feMorphology radius="4" operator="erode" in="SourceAlpha" result="effect2_dropShadow_2390_10186"/>
<feOffset dy="12"/>
<feGaussianBlur stdDeviation="8"/>
<feColorMatrix type="matrix" values="0 0 0 0 0.0627451 0 0 0 0 0.0941176 0 0 0 0 0.156863 0 0 0 0.08 0"/>
<feBlend mode="normal" in2="effect1_dropShadow_2390_10186" result="effect2_dropShadow_2390_10186"/>
<feBlend mode="normal" in="SourceGraphic" in2="effect2_dropShadow_2390_10186" result="shape"/>
</filter>
<filter id="filter1_dd_2390_10186" x="329" y="129" width="182" height="58" filterUnits="userSpaceOnUse" color-interpolation-filters="sRGB">
<feFlood flood-opacity="0" result="BackgroundImageFix"/>
<feColorMatrix in="SourceAlpha" type="matrix" values="0 0 0 0 0 0 0 0 0 0 0 0 0 0 0 0 0 0 127 0" result="hardAlpha"/>
<feMorphology radius="2" operator="erode" in="SourceAlpha" result="effect1_dropShadow_2390_10186"/>
<feOffset dy="4"/>
<feGaussianBlur stdDeviation="3"/>
<feColorMatrix type="matrix" values="0 0 0 0 0.0627451 0 0 0 0 0.0941176 0 0 0 0 0.156863 0 0 0 0.03 0"/>
<feBlend mode="normal" in2="BackgroundImageFix" result="effect1_dropShadow_2390_10186"/>
<feColorMatrix in="SourceAlpha" type="matrix" values="0 0 0 0 0 0 0 0 0 0 0 0 0 0 0 0 0 0 127 0" result="hardAlpha"/>
<feMorphology radius="4" operator="erode" in="SourceAlpha" result="effect2_dropShadow_2390_10186"/>
<feOffset dy="12"/>
<feGaussianBlur stdDeviation="8"/>
<feColorMatrix type="matrix" values="0 0 0 0 0.0627451 0 0 0 0 0.0941176 0 0 0 0 0.156863 0 0 0 0.08 0"/>
<feBlend mode="normal" in2="effect1_dropShadow_2390_10186" result="effect2_dropShadow_2390_10186"/>
<feBlend mode="normal" in="SourceGraphic" in2="effect2_dropShadow_2390_10186" result="shape"/>
</filter>
<clipPath id="clip0_2390_10186">
<rect width="16" height="6" fill="white" transform="matrix(0 -1 1 0 213 276)"/>
</clipPath>
</defs>
</svg>
