<svg width="429" height="26" viewBox="0 0 429 26" fill="none" xmlns="http://www.w3.org/2000/svg">
<path d="M1.663 18.7773V7.75712H3.67813V17.203H8.55851V18.7773H1.663ZM13.6801 18.9663C12.9244 18.9663 12.2422 18.7931 11.6335 18.4467C11.0352 18.1004 10.5577 17.6228 10.2008 17.0141C9.85449 16.3949 9.68132 15.6812 9.68132 14.873C9.68132 14.0649 9.85974 13.3564 10.2166 12.7477C10.5734 12.1285 11.051 11.6457 11.6492 11.2993C12.258 10.953 12.9402 10.7798 13.6958 10.7798C14.441 10.7798 15.1127 10.953 15.711 11.2993C16.3197 11.6457 16.7972 12.1285 17.1436 12.7477C17.5004 13.3564 17.6789 14.0649 17.6789 14.873C17.6789 15.6812 17.5004 16.3949 17.1436 17.0141C16.7972 17.6228 16.3197 18.1004 15.711 18.4467C15.1022 18.7931 14.4253 18.9663 13.6801 18.9663ZM13.6801 17.2188C14.2049 17.2188 14.6614 17.0246 15.0497 16.6363C15.4381 16.2374 15.6322 15.6497 15.6322 14.873C15.6322 14.0964 15.4381 13.5139 15.0497 13.1255C14.6614 12.7267 14.2101 12.5273 13.6958 12.5273C13.1606 12.5273 12.6988 12.7267 12.3104 13.1255C11.9326 13.5139 11.7437 14.0964 11.7437 14.873C11.7437 15.6497 11.9326 16.2374 12.3104 16.6363C12.6988 17.0246 13.1553 17.2188 13.6801 17.2188ZM20.7309 18.7773L18.4482 10.9687H20.4476L21.8015 16.589L23.3758 10.9687H25.6113L27.1856 16.589L28.5553 10.9687H30.5547L28.2562 18.7773H26.1623L24.4936 12.9366L22.8248 18.7773H20.7309ZM35.5774 18.7773V10.9687H37.3721L37.561 12.4328C37.8444 11.9291 38.2275 11.5302 38.7103 11.2364C39.2035 10.932 39.7808 10.7798 40.442 10.7798V12.9051H39.8752C39.4344 12.9051 39.0409 12.9734 38.6945 13.1098C38.3482 13.2462 38.0753 13.4824 37.8759 13.8182C37.6869 14.1541 37.5925 14.6211 37.5925 15.2194V18.7773H35.5774ZM42.9056 9.75651C42.5382 9.75651 42.2339 9.6463 41.9925 9.4259C41.7616 9.2055 41.6461 8.92737 41.6461 8.59151C41.6461 8.25566 41.7616 7.98278 41.9925 7.77287C42.2339 7.55246 42.5382 7.44226 42.9056 7.44226C43.2729 7.44226 43.572 7.55246 43.8029 7.77287C44.0443 7.98278 44.165 8.25566 44.165 8.59151C44.165 8.92737 44.0443 9.2055 43.8029 9.4259C43.572 9.6463 43.2729 9.75651 42.9056 9.75651ZM41.898 18.7773V10.9687H43.9131V18.7773H41.898ZM49.2438 18.9663C48.5511 18.9663 47.9423 18.8561 47.4176 18.6357C46.8928 18.4048 46.473 18.0899 46.1581 17.6911C45.8433 17.2922 45.6543 16.8304 45.5914 16.3057H47.6222C47.6852 16.61 47.8531 16.8724 48.126 17.0928C48.4094 17.3027 48.7715 17.4077 49.2123 17.4077C49.6531 17.4077 49.9732 17.3185 50.1726 17.1401C50.3825 16.9616 50.4875 16.757 50.4875 16.5261C50.4875 16.1902 50.3406 15.9646 50.0467 15.8491C49.7528 15.7232 49.3435 15.6025 48.8187 15.487C48.4829 15.4136 48.1418 15.3243 47.7954 15.2194C47.4491 15.1144 47.1289 14.9832 46.8351 14.8258C46.5517 14.6579 46.3208 14.448 46.1424 14.1961C45.964 13.9337 45.8747 13.6136 45.8747 13.2357C45.8747 12.543 46.1476 11.9606 46.6934 11.4883C47.2496 11.016 48.0263 10.7798 49.0234 10.7798C49.947 10.7798 50.6817 10.995 51.2274 11.4253C51.7837 11.8556 52.1143 12.4486 52.2192 13.2043H50.3143C50.1989 12.627 49.7633 12.3384 49.0076 12.3384C48.6298 12.3384 48.3359 12.4119 48.126 12.5588C47.9266 12.7057 47.8269 12.8894 47.8269 13.1098C47.8269 13.3407 47.9791 13.5244 48.2834 13.6608C48.5878 13.7973 48.9919 13.9232 49.4957 14.0386C50.0414 14.1646 50.54 14.3063 50.9913 14.4637C51.4531 14.6107 51.8204 14.8363 52.0933 15.1407C52.3662 15.4345 52.5026 15.8596 52.5026 16.4159C52.5131 16.8987 52.3872 17.3342 52.1248 17.7226C51.8624 18.1109 51.4846 18.4153 50.9913 18.6357C50.498 18.8561 49.9155 18.9663 49.2438 18.9663ZM54.2877 18.7773V7.44226H56.3029V14.1331L59.0737 10.9687H61.4666L58.2708 14.5267L61.9862 18.7773H59.4673L56.3029 14.8573V18.7773H54.2877Z" fill="#1C8D13"/>
<path d="M364.341 18.7773V7.75712H366.356V12.3384H371.3V7.75712H373.315V18.7773H371.3V13.9757H366.356V18.7773H364.341ZM376.496 9.75651C376.128 9.75651 375.824 9.6463 375.583 9.4259C375.352 9.2055 375.236 8.92737 375.236 8.59151C375.236 8.25566 375.352 7.98278 375.583 7.77287C375.824 7.55246 376.128 7.44226 376.496 7.44226C376.863 7.44226 377.162 7.55246 377.393 7.77287C377.635 7.98278 377.755 8.25566 377.755 8.59151C377.755 8.92737 377.635 9.2055 377.393 9.4259C377.162 9.6463 376.863 9.75651 376.496 9.75651ZM375.488 18.7773V10.9687H377.503V18.7773H375.488ZM382.913 16.4474C382.535 16.4474 382.183 16.4054 381.858 16.3214L381.275 16.9039C381.454 16.9984 381.695 17.0771 382 17.1401C382.304 17.203 382.797 17.266 383.479 17.329C384.518 17.4234 385.274 17.6701 385.746 18.0689C386.219 18.4677 386.455 19.0187 386.455 19.7219C386.455 20.1837 386.329 20.6193 386.077 21.0286C385.825 21.4484 385.437 21.7843 384.912 22.0362C384.387 22.2986 383.716 22.4298 382.897 22.4298C381.784 22.4298 380.887 22.2199 380.205 21.8C379.523 21.3907 379.182 20.7715 379.182 19.9423C379.182 19.2391 379.523 18.6304 380.205 18.1161C379.995 18.0217 379.811 17.922 379.654 17.817C379.507 17.7121 379.376 17.6019 379.26 17.4864V17.1243L380.63 15.6759C380.021 15.1407 379.717 14.4532 379.717 13.6136C379.717 13.0888 379.843 12.6113 380.095 12.181C380.357 11.7506 380.724 11.4095 381.197 11.1576C381.669 10.9058 382.241 10.7798 382.913 10.7798C383.353 10.7798 383.763 10.8428 384.141 10.9687H387.1V12.1967L385.762 12.2912C385.972 12.69 386.077 13.1308 386.077 13.6136C386.077 14.1384 385.951 14.6159 385.699 15.0462C385.447 15.4765 385.08 15.8176 384.597 16.0695C384.125 16.3214 383.563 16.4474 382.913 16.4474ZM382.913 14.9045C383.322 14.9045 383.658 14.7943 383.92 14.5739C384.193 14.3535 384.33 14.0386 384.33 13.6293C384.33 13.22 384.193 12.9051 383.92 12.6847C383.658 12.4643 383.322 12.3541 382.913 12.3541C382.482 12.3541 382.136 12.4643 381.874 12.6847C381.611 12.9051 381.48 13.22 381.48 13.6293C381.48 14.0386 381.611 14.3535 381.874 14.5739C382.136 14.7943 382.482 14.9045 382.913 14.9045ZM381.024 19.7377C381.024 20.126 381.202 20.4146 381.559 20.6036C381.926 20.803 382.372 20.9027 382.897 20.9027C383.401 20.9027 383.81 20.7977 384.125 20.5878C384.44 20.3884 384.597 20.1155 384.597 19.7692C384.597 19.4858 384.492 19.2496 384.282 19.0607C384.083 18.8718 383.679 18.7564 383.07 18.7144C382.64 18.6829 382.241 18.6357 381.874 18.5727C381.569 18.7406 381.349 18.9243 381.212 19.1237C381.086 19.3231 381.024 19.5278 381.024 19.7377ZM388.57 18.7773V7.44226H390.585V12.1652C390.847 11.7349 391.199 11.399 391.64 11.1576C392.091 10.9058 392.605 10.7798 393.183 10.7798C394.148 10.7798 394.893 11.0842 395.418 11.6929C395.953 12.3017 396.221 13.1938 396.221 14.3693V18.7773H394.222V14.5582C394.222 13.8865 394.085 13.3722 393.812 13.0153C393.55 12.6585 393.13 12.4801 392.553 12.4801C391.986 12.4801 391.514 12.6795 391.136 13.0783C390.769 13.4771 390.585 14.0334 390.585 14.7471V18.7773H388.57ZM401.899 18.7773V10.9687H403.694L403.883 12.4328C404.166 11.9291 404.549 11.5302 405.032 11.2364C405.525 10.932 406.103 10.7798 406.764 10.7798V12.9051H406.197C405.756 12.9051 405.363 12.9734 405.016 13.1098C404.67 13.2462 404.397 13.4824 404.198 13.8182C404.009 14.1541 403.914 14.6211 403.914 15.2194V18.7773H401.899ZM409.227 9.75651C408.86 9.75651 408.556 9.6463 408.314 9.4259C408.083 9.2055 407.968 8.92737 407.968 8.59151C407.968 8.25566 408.083 7.98278 408.314 7.77287C408.556 7.55246 408.86 7.44226 409.227 7.44226C409.595 7.44226 409.894 7.55246 410.125 7.77287C410.366 7.98278 410.487 8.25566 410.487 8.59151C410.487 8.92737 410.366 9.2055 410.125 9.4259C409.894 9.6463 409.595 9.75651 409.227 9.75651ZM408.22 18.7773V10.9687H410.235V18.7773H408.22ZM415.566 18.9663C414.873 18.9663 414.264 18.8561 413.739 18.6357C413.215 18.4048 412.795 18.0899 412.48 17.6911C412.165 17.2922 411.976 16.8304 411.913 16.3057H413.944C414.007 16.61 414.175 16.8724 414.448 17.0928C414.731 17.3027 415.093 17.4077 415.534 17.4077C415.975 17.4077 416.295 17.3185 416.494 17.1401C416.704 16.9616 416.809 16.757 416.809 16.5261C416.809 16.1902 416.662 15.9646 416.369 15.8491C416.075 15.7232 415.665 15.6025 415.141 15.487C414.805 15.4136 414.464 15.3243 414.117 15.2194C413.771 15.1144 413.451 14.9832 413.157 14.8258C412.874 14.6579 412.643 14.448 412.464 14.1961C412.286 13.9337 412.197 13.6136 412.197 13.2357C412.197 12.543 412.469 11.9606 413.015 11.4883C413.571 11.016 414.348 10.7798 415.345 10.7798C416.269 10.7798 417.004 10.995 417.549 11.4253C418.106 11.8556 418.436 12.4486 418.541 13.2043H416.636C416.521 12.627 416.085 12.3384 415.329 12.3384C414.952 12.3384 414.658 12.4119 414.448 12.5588C414.248 12.7057 414.149 12.8894 414.149 13.1098C414.149 13.3407 414.301 13.5244 414.605 13.6608C414.91 13.7973 415.314 13.9232 415.818 14.0386C416.363 14.1646 416.862 14.3063 417.313 14.4637C417.775 14.6107 418.142 14.8363 418.415 15.1407C418.688 15.4345 418.824 15.8596 418.824 16.4159C418.835 16.8987 418.709 17.3342 418.447 17.7226C418.184 18.1109 417.806 18.4153 417.313 18.6357C416.82 18.8561 416.237 18.9663 415.566 18.9663ZM420.61 18.7773V7.44226H422.625V14.1331L425.396 10.9687H427.788L424.593 14.5267L428.308 18.7773H425.789L422.625 14.8573V18.7773H420.61Z" fill="#D44C4C"/>
</svg>
