<svg width="134" height="77" viewBox="0 0 134 77" fill="none" xmlns="http://www.w3.org/2000/svg">
<path d="M133.65 66.0205C133.65 54.3378 130.521 42.8644 124.581 32.7715L107.307 42.7462C111.465 49.8112 113.655 57.8426 113.655 66.0205H133.65Z" fill="#D44C4C"/>
<path d="M124.756 33.0705C118.87 22.9469 110.377 14.5518 100.144 8.74219L90.2012 25.9256C97.3639 29.9923 103.309 35.8689 107.429 42.9554L124.756 33.0705Z" fill="#DF873A"/>
<path d="M100.163 8.75169C89.9318 2.93903 78.3271 -0.0804003 66.5332 0.00162784L66.6736 19.807C74.9293 19.7496 83.0526 21.8632 90.2141 25.9321L100.163 8.75169Z" fill="#ECB004"/>
<path d="M33.5816 8.89844C23.3771 14.7562 14.9246 23.1913 9.08691 33.3425L26.4609 43.1456C30.5473 36.0397 36.464 30.1352 43.6072 26.0347L33.5816 8.89844Z" fill="#83C605"/>
<path d="M66.999 0.326025C66.999 0.145522 66.8511 -0.000889609 66.6689 4.06953e-06C55.0987 0.0567473 43.7426 3.0961 33.718 8.81896C33.5602 8.90909 33.5069 9.10934 33.5986 9.26528L43.3362 25.8113C43.428 25.9673 43.6301 26.0199 43.7881 25.93C50.7557 21.9719 58.637 19.8625 66.6689 19.8062C66.8511 19.805 66.999 19.6588 66.999 19.4783V0.326025Z" fill="#BCD103"/>
<path d="M9.42591 32.7578C3.48401 42.8495 0.351995 54.3224 0.349609 66.005L20.3446 66.009C20.3463 57.8312 22.5387 49.8002 26.698 42.736L9.42591 32.7578Z" fill="#1C8D13"/>
<path d="M74.9189 66.019C74.9189 64.0254 74.1194 62.1134 72.6962 60.7037C71.273 59.2939 69.3428 58.502 67.3301 58.502C65.3174 58.502 63.3871 59.2939 61.9639 60.7037C60.5408 62.1134 59.7412 64.0254 59.7412 66.019L67.3301 66.019H74.9189Z" fill="#212225"/>
<path d="M74.5152 34.7288C74.6879 34.2754 75.3681 34.4657 75.2773 34.942L70.5745 59.6052C70.5309 59.8341 70.3001 59.977 70.0756 59.9142L65.8333 58.7273C65.6088 58.6645 65.4871 58.423 65.5701 58.2051L74.5152 34.7288Z" fill="#212225"/>
</svg>
