<svg width="447" height="312" viewBox="0 0 447 312" fill="none" xmlns="http://www.w3.org/2000/svg">
<circle cx="229" cy="156.667" r="123" fill="#142E56"/>
<path d="M352 156.667C352 128.736 342.494 101.637 325.045 79.8269C307.596 58.017 283.244 42.7953 255.994 36.6655C228.744 30.5358 200.219 33.8632 175.111 46.1003C150.004 58.3374 129.809 78.7555 117.848 103.996C105.887 129.236 102.874 157.796 109.302 184.977C115.731 212.158 131.219 236.342 153.22 253.55C175.22 270.758 202.422 279.966 230.351 279.66C258.28 279.353 285.274 269.549 306.89 251.862L229 156.667H352Z" fill="#09347A"/>
<path d="M352 156.667C352 141.189 349.079 125.85 343.39 111.456L229 156.667H352Z" fill="#E7F0FF"/>
<path d="M343.586 111.957C337.96 97.5376 329.663 84.3099 319.131 72.9682L229 156.667L343.586 111.957Z" fill="#D7E6FF"/>
<path d="M321.283 75.3474C311.05 63.7348 298.717 54.158 284.932 47.1197L229 156.667L321.283 75.3474Z" fill="#C1D8FF"/>
<path d="M285.651 47.49C264.063 36.2878 239.638 31.7375 215.464 34.4141L229 156.667L285.651 47.49Z" fill="#A8C9FF"/>
<path d="M216.108 34.3445C190.143 37.0811 165.722 48.0091 146.38 65.5468L229 156.667L216.108 34.3445Z" fill="#92BBFF"/>
<path d="M147.264 65.0289C135.017 75.9593 125.072 89.2215 118.011 104.04L229.5 157.167L147.264 65.0289Z" fill="#7AADFF"/>
<path d="M119.429 212.552C130.494 234.246 147.749 252.168 169.009 264.045L229 156.667L119.429 212.552Z" fill="#2B68CB"/>
<path d="M119.429 212.552C110.844 195.721 106.253 177.138 106.01 158.245L229 156.667L119.429 212.552Z" fill="#4281E7"/>
<path d="M106.019 158.814C105.658 138.149 110.51 117.727 120.127 99.4334L229 156.667L106.019 158.814Z" fill="#5E9BFF"/>
<path d="M167.5 263.188C180.904 270.927 195.649 276.067 210.959 278.337L229 156.667L167.5 263.188Z" fill="#16499B"/>
<g filter="url(#filter0_dd_647_34539)">
<rect x="88" y="254.667" width="98" height="30" rx="8" fill="white"/>
<path d="M105.638 266.717V267.647H103.788V273.667H102.648V267.647H100.788V266.717H105.638ZM110.983 272.247H108.073L107.573 273.667H106.383L108.873 266.707H110.193L112.683 273.667H111.483L110.983 272.247ZM110.663 271.317L109.533 268.087L108.393 271.317H110.663ZM118.256 266.717V267.647H116.406V273.667H115.266V267.647H113.406V266.717H118.256ZM123.6 272.247H120.69L120.19 273.667H119L121.49 266.707H122.81L125.3 273.667H124.1L123.6 272.247ZM123.28 271.317L122.15 268.087L121.01 271.317H123.28ZM128.673 273.737C128.206 273.737 127.786 273.657 127.413 273.497C127.039 273.33 126.746 273.097 126.533 272.797C126.319 272.497 126.213 272.147 126.213 271.747H127.433C127.459 272.047 127.576 272.294 127.783 272.487C127.996 272.68 128.293 272.777 128.673 272.777C129.066 272.777 129.373 272.684 129.593 272.497C129.813 272.304 129.923 272.057 129.923 271.757C129.923 271.524 129.853 271.334 129.713 271.187C129.579 271.04 129.409 270.927 129.203 270.847C129.003 270.767 128.723 270.68 128.363 270.587C127.909 270.467 127.539 270.347 127.253 270.227C126.973 270.1 126.733 269.907 126.533 269.647C126.333 269.387 126.233 269.04 126.233 268.607C126.233 268.207 126.333 267.857 126.533 267.557C126.733 267.257 127.013 267.027 127.373 266.867C127.733 266.707 128.149 266.627 128.623 266.627C129.296 266.627 129.846 266.797 130.273 267.137C130.706 267.47 130.946 267.93 130.993 268.517H129.733C129.713 268.264 129.593 268.047 129.373 267.867C129.153 267.687 128.863 267.597 128.503 267.597C128.176 267.597 127.909 267.68 127.703 267.847C127.496 268.014 127.393 268.254 127.393 268.567C127.393 268.78 127.456 268.957 127.583 269.097C127.716 269.23 127.883 269.337 128.083 269.417C128.283 269.497 128.556 269.584 128.903 269.677C129.363 269.804 129.736 269.93 130.023 270.057C130.316 270.184 130.563 270.38 130.763 270.647C130.969 270.907 131.073 271.257 131.073 271.697C131.073 272.05 130.976 272.384 130.783 272.697C130.596 273.01 130.319 273.264 129.953 273.457C129.593 273.644 129.166 273.737 128.673 273.737ZM136.908 266.717V267.647H135.058V273.667H133.918V267.647H132.058V266.717H136.908ZM139.203 267.637V269.677H141.603V270.607H139.203V272.737H141.903V273.667H138.063V266.707H141.903V267.637H139.203ZM144.447 267.637V269.677H146.847V270.607H144.447V272.737H147.147V273.667H143.307V266.707H147.147V267.637H144.447ZM149.691 272.747H152.041V273.667H148.551V266.717H149.691V272.747ZM156.052 273.737C155.845 273.737 155.672 273.667 155.532 273.527C155.392 273.387 155.322 273.214 155.322 273.007C155.322 272.8 155.392 272.627 155.532 272.487C155.672 272.347 155.845 272.277 156.052 272.277C156.252 272.277 156.422 272.347 156.562 272.487C156.702 272.627 156.772 272.8 156.772 273.007C156.772 273.214 156.702 273.387 156.562 273.527C156.422 273.667 156.252 273.737 156.052 273.737ZM156.052 269.537C155.845 269.537 155.672 269.467 155.532 269.327C155.392 269.187 155.322 269.014 155.322 268.807C155.322 268.6 155.392 268.427 155.532 268.287C155.672 268.147 155.845 268.077 156.052 268.077C156.252 268.077 156.422 268.147 156.562 268.287C156.702 268.427 156.772 268.6 156.772 268.807C156.772 269.014 156.702 269.187 156.562 269.327C156.422 269.467 156.252 269.537 156.052 269.537ZM161.121 272.117C161.761 271.564 162.264 271.11 162.631 270.757C163.004 270.397 163.314 270.024 163.561 269.637C163.807 269.25 163.931 268.864 163.931 268.477C163.931 268.077 163.834 267.764 163.641 267.537C163.454 267.31 163.157 267.197 162.751 267.197C162.357 267.197 162.051 267.324 161.831 267.577C161.617 267.824 161.504 268.157 161.491 268.577H160.391C160.411 267.817 160.637 267.237 161.071 266.837C161.511 266.43 162.067 266.227 162.741 266.227C163.467 266.227 164.034 266.427 164.441 266.827C164.854 267.227 165.061 267.76 165.061 268.427C165.061 268.907 164.937 269.37 164.691 269.817C164.451 270.257 164.161 270.654 163.821 271.007C163.487 271.354 163.061 271.757 162.541 272.217L162.091 272.617H165.261V273.567H160.401V272.737L161.121 272.117ZM166.082 268.137C166.082 267.65 166.222 267.27 166.502 266.997C166.789 266.717 167.155 266.577 167.602 266.577C168.049 266.577 168.412 266.717 168.692 266.997C168.979 267.27 169.122 267.65 169.122 268.137C169.122 268.624 168.979 269.007 168.692 269.287C168.412 269.567 168.049 269.707 167.602 269.707C167.155 269.707 166.789 269.567 166.502 269.287C166.222 269.007 166.082 268.624 166.082 268.137ZM172.182 266.707L168.192 273.667H167.072L171.062 266.707H172.182ZM167.602 267.267C167.182 267.267 166.972 267.557 166.972 268.137C166.972 268.724 167.182 269.017 167.602 269.017C167.802 269.017 167.955 268.947 168.062 268.807C168.175 268.66 168.232 268.437 168.232 268.137C168.232 267.557 168.022 267.267 167.602 267.267ZM170.152 272.227C170.152 271.74 170.292 271.36 170.572 271.087C170.859 270.807 171.225 270.667 171.672 270.667C172.112 270.667 172.472 270.807 172.752 271.087C173.039 271.36 173.182 271.74 173.182 272.227C173.182 272.714 173.039 273.097 172.752 273.377C172.472 273.657 172.112 273.797 171.672 273.797C171.225 273.797 170.859 273.657 170.572 273.377C170.292 273.097 170.152 272.714 170.152 272.227ZM171.662 271.357C171.242 271.357 171.032 271.647 171.032 272.227C171.032 272.807 171.242 273.097 171.662 273.097C172.082 273.097 172.292 272.807 172.292 272.227C172.292 271.647 172.082 271.357 171.662 271.357Z" fill="#242424"/>
<g clip-path="url(#clip0_647_34539)">
<path d="M183.485 263.596C183.485 262.705 184.562 262.259 185.192 262.889L191.263 268.96C191.654 269.35 191.654 269.984 191.263 270.374L185.192 276.445C184.562 277.075 183.485 276.629 183.485 275.738L183.485 263.596Z" fill="white"/>
</g>
</g>
<g filter="url(#filter1_dd_647_34539)">
<rect x="55" y="215.667" width="80" height="30" rx="8" fill="white"/>
<path d="M69.1117 227.717V234.667H67.9717V227.717H69.1117ZM74.2184 234.667L72.6184 231.887H71.7484V234.667H70.6084V227.717H73.0084C73.5417 227.717 73.9917 227.81 74.3584 227.997C74.7317 228.184 75.0084 228.434 75.1884 228.747C75.3751 229.06 75.4684 229.41 75.4684 229.797C75.4684 230.25 75.3351 230.664 75.0684 231.037C74.8084 231.404 74.4051 231.654 73.8584 231.787L75.5784 234.667H74.2184ZM71.7484 230.977H73.0084C73.4351 230.977 73.7551 230.87 73.9684 230.657C74.1884 230.444 74.2984 230.157 74.2984 229.797C74.2984 229.437 74.1917 229.157 73.9784 228.957C73.7651 228.75 73.4417 228.647 73.0084 228.647H71.7484V230.977ZM76.5468 231.177C76.5468 230.497 76.7034 229.887 77.0168 229.347C77.3368 228.807 77.7668 228.387 78.3068 228.087C78.8534 227.78 79.4501 227.627 80.0968 227.627C80.8368 227.627 81.4934 227.81 82.0668 228.177C82.6468 228.537 83.0668 229.05 83.3268 229.717H81.9568C81.7768 229.35 81.5268 229.077 81.2068 228.897C80.8868 228.717 80.5168 228.627 80.0968 228.627C79.6368 228.627 79.2268 228.73 78.8668 228.937C78.5068 229.144 78.2234 229.44 78.0168 229.827C77.8168 230.214 77.7168 230.664 77.7168 231.177C77.7168 231.69 77.8168 232.14 78.0168 232.527C78.2234 232.914 78.5068 233.214 78.8668 233.427C79.2268 233.634 79.6368 233.737 80.0968 233.737C80.5168 233.737 80.8868 233.647 81.2068 233.467C81.5268 233.287 81.7768 233.014 81.9568 232.647H83.3268C83.0668 233.314 82.6468 233.827 82.0668 234.187C81.4934 234.547 80.8368 234.727 80.0968 234.727C79.4434 234.727 78.8468 234.577 78.3068 234.277C77.7668 233.97 77.3368 233.547 77.0168 233.007C76.7034 232.467 76.5468 231.857 76.5468 231.177ZM89.1511 227.717V228.647H87.3011V234.667H86.1611V228.647H84.3011V227.717H89.1511ZM89.9257 231.177C89.9257 230.497 90.0823 229.887 90.3957 229.347C90.7157 228.807 91.1457 228.387 91.6857 228.087C92.2323 227.78 92.829 227.627 93.4757 227.627C94.2157 227.627 94.8723 227.81 95.4457 228.177C96.0257 228.537 96.4457 229.05 96.7057 229.717H95.3357C95.1557 229.35 94.9057 229.077 94.5857 228.897C94.2657 228.717 93.8957 228.627 93.4757 228.627C93.0157 228.627 92.6057 228.73 92.2457 228.937C91.8857 229.144 91.6023 229.44 91.3957 229.827C91.1957 230.214 91.0957 230.664 91.0957 231.177C91.0957 231.69 91.1957 232.14 91.3957 232.527C91.6023 232.914 91.8857 233.214 92.2457 233.427C92.6057 233.634 93.0157 233.737 93.4757 233.737C93.8957 233.737 94.2657 233.647 94.5857 233.467C94.9057 233.287 95.1557 233.014 95.3357 232.647H96.7057C96.4457 233.314 96.0257 233.827 95.4457 234.187C94.8723 234.547 94.2157 234.727 93.4757 234.727C92.8223 234.727 92.2257 234.577 91.6857 234.277C91.1457 233.97 90.7157 233.547 90.3957 233.007C90.0823 232.467 89.9257 231.857 89.9257 231.177ZM101.098 234.737C100.891 234.737 100.718 234.667 100.578 234.527C100.438 234.387 100.368 234.214 100.368 234.007C100.368 233.8 100.438 233.627 100.578 233.487C100.718 233.347 100.891 233.277 101.098 233.277C101.298 233.277 101.468 233.347 101.608 233.487C101.748 233.627 101.818 233.8 101.818 234.007C101.818 234.214 101.748 234.387 101.608 234.527C101.468 234.667 101.298 234.737 101.098 234.737ZM101.098 230.537C100.891 230.537 100.718 230.467 100.578 230.327C100.438 230.187 100.368 230.014 100.368 229.807C100.368 229.6 100.438 229.427 100.578 229.287C100.718 229.147 100.891 229.077 101.098 229.077C101.298 229.077 101.468 229.147 101.608 229.287C101.748 229.427 101.818 229.6 101.818 229.807C101.818 230.014 101.748 230.187 101.608 230.327C101.468 230.467 101.298 230.537 101.098 230.537ZM105.387 228.417V227.377H107.467V234.667H106.317V228.417H105.387ZM109.033 230.927C109.033 229.774 109.226 228.874 109.613 228.227C110.006 227.574 110.679 227.247 111.633 227.247C112.586 227.247 113.256 227.574 113.643 228.227C114.036 228.874 114.233 229.774 114.233 230.927C114.233 232.094 114.036 233.007 113.643 233.667C113.256 234.32 112.586 234.647 111.633 234.647C110.679 234.647 110.006 234.32 109.613 233.667C109.226 233.007 109.033 232.094 109.033 230.927ZM113.113 230.927C113.113 230.387 113.076 229.93 113.003 229.557C112.936 229.184 112.796 228.88 112.583 228.647C112.369 228.407 112.053 228.287 111.633 228.287C111.213 228.287 110.896 228.407 110.683 228.647C110.469 228.88 110.326 229.184 110.253 229.557C110.186 229.93 110.153 230.387 110.153 230.927C110.153 231.487 110.186 231.957 110.253 232.337C110.319 232.717 110.459 233.024 110.673 233.257C110.893 233.49 111.213 233.607 111.633 233.607C112.053 233.607 112.369 233.49 112.583 233.257C112.803 233.024 112.946 232.717 113.013 232.337C113.079 231.957 113.113 231.487 113.113 230.927ZM115.259 229.137C115.259 228.65 115.399 228.27 115.679 227.997C115.966 227.717 116.332 227.577 116.779 227.577C117.226 227.577 117.589 227.717 117.869 227.997C118.156 228.27 118.299 228.65 118.299 229.137C118.299 229.624 118.156 230.007 117.869 230.287C117.589 230.567 117.226 230.707 116.779 230.707C116.332 230.707 115.966 230.567 115.679 230.287C115.399 230.007 115.259 229.624 115.259 229.137ZM121.359 227.707L117.369 234.667H116.249L120.239 227.707H121.359ZM116.779 228.267C116.359 228.267 116.149 228.557 116.149 229.137C116.149 229.724 116.359 230.017 116.779 230.017C116.979 230.017 117.132 229.947 117.239 229.807C117.352 229.66 117.409 229.437 117.409 229.137C117.409 228.557 117.199 228.267 116.779 228.267ZM119.329 233.227C119.329 232.74 119.469 232.36 119.749 232.087C120.036 231.807 120.402 231.667 120.849 231.667C121.289 231.667 121.649 231.807 121.929 232.087C122.216 232.36 122.359 232.74 122.359 233.227C122.359 233.714 122.216 234.097 121.929 234.377C121.649 234.657 121.289 234.797 120.849 234.797C120.402 234.797 120.036 234.657 119.749 234.377C119.469 234.097 119.329 233.714 119.329 233.227ZM120.839 232.357C120.419 232.357 120.209 232.647 120.209 233.227C120.209 233.807 120.419 234.097 120.839 234.097C121.259 234.097 121.469 233.807 121.469 233.227C121.469 232.647 121.259 232.357 120.839 232.357Z" fill="#242424"/>
<g clip-path="url(#clip1_647_34539)">
<path d="M132.485 224.596C132.485 223.705 133.562 223.259 134.192 223.889L140.263 229.96C140.654 230.35 140.654 230.984 140.263 231.374L134.192 237.445C133.562 238.075 132.485 237.629 132.485 236.738L132.485 224.596Z" fill="white"/>
</g>
</g>
<g filter="url(#filter2_dd_647_34539)">
<rect x="65" y="29.667" width="112" height="30" rx="8" fill="white"/>
<path d="M82.6609 41.717V42.647H80.8109V48.667H79.6709V42.647H77.8109V41.717H82.6609ZM88.0054 47.247H85.0954L84.5954 48.667H83.4054L85.8954 41.707H87.2154L89.7054 48.667H88.5054L88.0054 47.247ZM87.6854 46.317L86.5554 43.087L85.4154 46.317H87.6854ZM95.2781 41.717V42.647H93.4281V48.667H92.2881V42.647H90.4281V41.717H95.2781ZM100.623 47.247H97.7126L97.2126 48.667H96.0226L98.5126 41.707H99.8326L102.323 48.667H101.123L100.623 47.247ZM100.303 46.317L99.1726 43.087L98.0326 46.317H100.303ZM110.725 41.717V48.667H109.585V43.907L107.465 48.667H106.675L104.545 43.907V48.667H103.405V41.717H104.635L107.075 47.167L109.505 41.717H110.725ZM115.394 48.737C114.747 48.737 114.15 48.587 113.604 48.287C113.064 47.9803 112.634 47.557 112.314 47.017C112 46.4703 111.844 45.857 111.844 45.177C111.844 44.497 112 43.887 112.314 43.347C112.634 42.807 113.064 42.387 113.604 42.087C114.15 41.7803 114.747 41.627 115.394 41.627C116.047 41.627 116.644 41.7803 117.184 42.087C117.73 42.387 118.16 42.807 118.474 43.347C118.787 43.887 118.944 44.497 118.944 45.177C118.944 45.857 118.787 46.4703 118.474 47.017C118.16 47.557 117.73 47.9803 117.184 48.287C116.644 48.587 116.047 48.737 115.394 48.737ZM115.394 47.747C115.854 47.747 116.264 47.6437 116.624 47.437C116.984 47.2237 117.264 46.9237 117.464 46.537C117.67 46.1437 117.774 45.6903 117.774 45.177C117.774 44.6637 117.67 44.2137 117.464 43.827C117.264 43.4403 116.984 43.1437 116.624 42.937C116.264 42.7303 115.854 42.627 115.394 42.627C114.934 42.627 114.524 42.7303 114.164 42.937C113.804 43.1437 113.52 43.4403 113.314 43.827C113.114 44.2137 113.014 44.6637 113.014 45.177C113.014 45.6903 113.114 46.1437 113.314 46.537C113.52 46.9237 113.804 47.2237 114.164 47.437C114.524 47.6437 114.934 47.747 115.394 47.747ZM124.555 41.717V42.647H122.705V48.667H121.565V42.647H119.705V41.717H124.555ZM128.88 48.737C128.233 48.737 127.637 48.587 127.09 48.287C126.55 47.9803 126.12 47.557 125.8 47.017C125.487 46.4703 125.33 45.857 125.33 45.177C125.33 44.497 125.487 43.887 125.8 43.347C126.12 42.807 126.55 42.387 127.09 42.087C127.637 41.7803 128.233 41.627 128.88 41.627C129.533 41.627 130.13 41.7803 130.67 42.087C131.217 42.387 131.647 42.807 131.96 43.347C132.273 43.887 132.43 44.497 132.43 45.177C132.43 45.857 132.273 46.4703 131.96 47.017C131.647 47.557 131.217 47.9803 130.67 48.287C130.13 48.587 129.533 48.737 128.88 48.737ZM128.88 47.747C129.34 47.747 129.75 47.6437 130.11 47.437C130.47 47.2237 130.75 46.9237 130.95 46.537C131.157 46.1437 131.26 45.6903 131.26 45.177C131.26 44.6637 131.157 44.2137 130.95 43.827C130.75 43.4403 130.47 43.1437 130.11 42.937C129.75 42.7303 129.34 42.627 128.88 42.627C128.42 42.627 128.01 42.7303 127.65 42.937C127.29 43.1437 127.007 43.4403 126.8 43.827C126.6 44.2137 126.5 44.6637 126.5 45.177C126.5 45.6903 126.6 46.1437 126.8 46.537C127.007 46.9237 127.29 47.2237 127.65 47.437C128.01 47.6437 128.42 47.747 128.88 47.747ZM137.162 48.667L135.562 45.887H134.692V48.667H133.552V41.717H135.952C136.485 41.717 136.935 41.8103 137.302 41.997C137.675 42.1837 137.952 42.4337 138.132 42.747C138.318 43.0603 138.412 43.4103 138.412 43.797C138.412 44.2503 138.278 44.6637 138.012 45.037C137.752 45.4037 137.348 45.6537 136.802 45.787L138.522 48.667H137.162ZM134.692 44.977H135.952C136.378 44.977 136.698 44.8703 136.912 44.657C137.132 44.4437 137.242 44.157 137.242 43.797C137.242 43.437 137.135 43.157 136.922 42.957C136.708 42.7503 136.385 42.647 135.952 42.647H134.692V44.977ZM142.928 48.737C142.721 48.737 142.548 48.667 142.408 48.527C142.268 48.387 142.198 48.2137 142.198 48.007C142.198 47.8003 142.268 47.627 142.408 47.487C142.548 47.347 142.721 47.277 142.928 47.277C143.128 47.277 143.298 47.347 143.438 47.487C143.578 47.627 143.648 47.8003 143.648 48.007C143.648 48.2137 143.578 48.387 143.438 48.527C143.298 48.667 143.128 48.737 142.928 48.737ZM142.928 44.537C142.721 44.537 142.548 44.467 142.408 44.327C142.268 44.187 142.198 44.0137 142.198 43.807C142.198 43.6003 142.268 43.427 142.408 43.287C142.548 43.147 142.721 43.077 142.928 43.077C143.128 43.077 143.298 43.147 143.438 43.287C143.578 43.427 143.648 43.6003 143.648 43.807C143.648 44.0137 143.578 44.187 143.438 44.327C143.298 44.467 143.128 44.537 142.928 44.537ZM147.217 42.417V41.377H149.297V48.667H148.147V42.417H147.217ZM152.093 44.857C151.399 44.5103 151.053 43.9637 151.053 43.217C151.053 42.857 151.143 42.527 151.323 42.227C151.503 41.927 151.773 41.6903 152.133 41.517C152.493 41.337 152.933 41.247 153.453 41.247C153.966 41.247 154.403 41.337 154.763 41.517C155.129 41.6903 155.403 41.927 155.583 42.227C155.763 42.527 155.853 42.857 155.853 43.217C155.853 43.5903 155.756 43.9203 155.563 44.207C155.376 44.487 155.126 44.7037 154.813 44.857C155.193 44.997 155.493 45.227 155.713 45.547C155.933 45.8603 156.043 46.2303 156.043 46.657C156.043 47.0903 155.933 47.4737 155.713 47.807C155.493 48.1403 155.186 48.397 154.793 48.577C154.399 48.757 153.953 48.847 153.453 48.847C152.953 48.847 152.506 48.757 152.113 48.577C151.726 48.397 151.423 48.1403 151.203 47.807C150.983 47.4737 150.873 47.0903 150.873 46.657C150.873 46.2237 150.983 45.8503 151.203 45.537C151.423 45.2237 151.719 44.997 152.093 44.857ZM154.763 43.357C154.763 42.9837 154.646 42.697 154.413 42.497C154.179 42.297 153.859 42.197 153.453 42.197C153.053 42.197 152.736 42.297 152.503 42.497C152.269 42.697 152.153 42.987 152.153 43.367C152.153 43.7003 152.273 43.9737 152.513 44.187C152.759 44.3937 153.073 44.497 153.453 44.497C153.833 44.497 154.146 44.3903 154.393 44.177C154.639 43.9637 154.763 43.6903 154.763 43.357ZM153.453 45.357C153.013 45.357 152.653 45.467 152.373 45.687C152.099 45.9003 151.963 46.2103 151.963 46.617C151.963 46.997 152.096 47.307 152.363 47.547C152.629 47.7803 152.993 47.897 153.453 47.897C153.906 47.897 154.263 47.777 154.523 47.537C154.789 47.297 154.923 46.9903 154.923 46.617C154.923 46.217 154.786 45.907 154.513 45.687C154.246 45.467 153.893 45.357 153.453 45.357ZM157.06 43.137C157.06 42.6503 157.2 42.2703 157.48 41.997C157.766 41.717 158.133 41.577 158.58 41.577C159.026 41.577 159.39 41.717 159.67 41.997C159.956 42.2703 160.1 42.6503 160.1 43.137C160.1 43.6237 159.956 44.007 159.67 44.287C159.39 44.567 159.026 44.707 158.58 44.707C158.133 44.707 157.766 44.567 157.48 44.287C157.2 44.007 157.06 43.6237 157.06 43.137ZM163.16 41.707L159.17 48.667H158.05L162.04 41.707H163.16ZM158.58 42.267C158.16 42.267 157.95 42.557 157.95 43.137C157.95 43.7237 158.16 44.017 158.58 44.017C158.78 44.017 158.933 43.947 159.04 43.807C159.153 43.6603 159.21 43.437 159.21 43.137C159.21 42.557 159 42.267 158.58 42.267ZM161.13 47.227C161.13 46.7403 161.27 46.3603 161.55 46.087C161.836 45.807 162.203 45.667 162.65 45.667C163.09 45.667 163.45 45.807 163.73 46.087C164.016 46.3603 164.16 46.7403 164.16 47.227C164.16 47.7137 164.016 48.097 163.73 48.377C163.45 48.657 163.09 48.797 162.65 48.797C162.203 48.797 161.836 48.657 161.55 48.377C161.27 48.097 161.13 47.7137 161.13 47.227ZM162.64 46.357C162.22 46.357 162.01 46.647 162.01 47.227C162.01 47.807 162.22 48.097 162.64 48.097C163.06 48.097 163.27 47.807 163.27 47.227C163.27 46.647 163.06 46.357 162.64 46.357Z" fill="#242424"/>
<g clip-path="url(#clip2_647_34539)">
<path d="M174.485 38.5959C174.485 37.705 175.562 37.2589 176.192 37.8888L182.263 43.9599C182.654 44.3504 182.654 44.9836 182.263 45.3741L176.192 51.4452C175.562 52.0751 174.485 51.629 174.485 50.7381L174.485 38.5959Z" fill="white"/>
</g>
</g>
<g filter="url(#filter3_dd_647_34539)">
<rect x="12" y="166.667" width="109" height="30" rx="8" fill="white"/>
<path d="M30.3098 178.717V185.667H29.1698V182.627H25.8998V185.667H24.7598V178.717H25.8998V181.697H29.1698V178.717H30.3098ZM32.9505 178.717V185.667H31.8105V178.717H32.9505ZM40.1573 185.667H39.0173L35.5873 180.477V185.667H34.4473V178.707H35.5873L39.0173 183.887V178.707H40.1573V185.667ZM43.9243 178.717C44.6643 178.717 45.311 178.86 45.8643 179.147C46.4243 179.427 46.8543 179.834 47.1543 180.367C47.461 180.894 47.6143 181.51 47.6143 182.217C47.6143 182.924 47.461 183.537 47.1543 184.057C46.8543 184.577 46.4243 184.977 45.8643 185.257C45.311 185.53 44.6643 185.667 43.9243 185.667H41.6543V178.717H43.9243ZM43.9243 184.737C44.7376 184.737 45.361 184.517 45.7943 184.077C46.2276 183.637 46.4443 183.017 46.4443 182.217C46.4443 181.41 46.2276 180.78 45.7943 180.327C45.361 179.874 44.7376 179.647 43.9243 179.647H42.7943V184.737H43.9243ZM48.3641 182.177C48.3641 181.497 48.5208 180.887 48.8341 180.347C49.1541 179.807 49.5841 179.387 50.1241 179.087C50.6708 178.78 51.2675 178.627 51.9141 178.627C52.6541 178.627 53.3108 178.81 53.8841 179.177C54.4641 179.537 54.8841 180.05 55.1441 180.717H53.7741C53.5941 180.35 53.3441 180.077 53.0241 179.897C52.7041 179.717 52.3341 179.627 51.9141 179.627C51.4541 179.627 51.0441 179.73 50.6841 179.937C50.3241 180.144 50.0408 180.44 49.8341 180.827C49.6341 181.214 49.5341 181.664 49.5341 182.177C49.5341 182.69 49.6341 183.14 49.8341 183.527C50.0408 183.914 50.3241 184.214 50.6841 184.427C51.0441 184.634 51.4541 184.737 51.9141 184.737C52.3341 184.737 52.7041 184.647 53.0241 184.467C53.3441 184.287 53.5941 184.014 53.7741 183.647H55.1441C54.8841 184.314 54.4641 184.827 53.8841 185.187C53.3108 185.547 52.6541 185.727 51.9141 185.727C51.2608 185.727 50.6641 185.577 50.1241 185.277C49.5841 184.97 49.1541 184.547 48.8341 184.007C48.5208 183.467 48.3641 182.857 48.3641 182.177ZM59.6485 185.737C59.0018 185.737 58.4052 185.587 57.8585 185.287C57.3185 184.98 56.8885 184.557 56.5685 184.017C56.2552 183.47 56.0985 182.857 56.0985 182.177C56.0985 181.497 56.2552 180.887 56.5685 180.347C56.8885 179.807 57.3185 179.387 57.8585 179.087C58.4052 178.78 59.0018 178.627 59.6485 178.627C60.3018 178.627 60.8985 178.78 61.4385 179.087C61.9852 179.387 62.4152 179.807 62.7285 180.347C63.0418 180.887 63.1985 181.497 63.1985 182.177C63.1985 182.857 63.0418 183.47 62.7285 184.017C62.4152 184.557 61.9852 184.98 61.4385 185.287C60.8985 185.587 60.3018 185.737 59.6485 185.737ZM59.6485 184.747C60.1085 184.747 60.5185 184.644 60.8785 184.437C61.2385 184.224 61.5185 183.924 61.7185 183.537C61.9252 183.144 62.0285 182.69 62.0285 182.177C62.0285 181.664 61.9252 181.214 61.7185 180.827C61.5185 180.44 61.2385 180.144 60.8785 179.937C60.5185 179.73 60.1085 179.627 59.6485 179.627C59.1885 179.627 58.7785 179.73 58.4185 179.937C58.0585 180.144 57.7752 180.44 57.5685 180.827C57.3685 181.214 57.2685 181.664 57.2685 182.177C57.2685 182.69 57.3685 183.144 57.5685 183.537C57.7752 183.924 58.0585 184.224 58.4185 184.437C58.7785 184.644 59.1885 184.747 59.6485 184.747ZM69.1803 180.787C69.1803 181.14 69.097 181.474 68.9303 181.787C68.7636 182.1 68.497 182.357 68.1303 182.557C67.7636 182.75 67.2936 182.847 66.7203 182.847H65.4603V185.667H64.3203V178.717H66.7203C67.2536 178.717 67.7036 178.81 68.0703 178.997C68.4436 179.177 68.7203 179.424 68.9003 179.737C69.087 180.05 69.1803 180.4 69.1803 180.787ZM66.7203 181.917C67.1536 181.917 67.477 181.82 67.6903 181.627C67.9036 181.427 68.0103 181.147 68.0103 180.787C68.0103 180.027 67.5803 179.647 66.7203 179.647H65.4603V181.917H66.7203ZM75.1276 180.787C75.1276 181.14 75.0442 181.474 74.8776 181.787C74.7109 182.1 74.4442 182.357 74.0776 182.557C73.7109 182.75 73.2409 182.847 72.6676 182.847H71.4076V185.667H70.2676V178.717H72.6676C73.2009 178.717 73.6509 178.81 74.0176 178.997C74.3909 179.177 74.6676 179.424 74.8476 179.737C75.0342 180.05 75.1276 180.4 75.1276 180.787ZM72.6676 181.917C73.1009 181.917 73.4242 181.82 73.6376 181.627C73.8509 181.427 73.9576 181.147 73.9576 180.787C73.9576 180.027 73.5276 179.647 72.6676 179.647H71.4076V181.917H72.6676ZM77.3548 179.637V181.677H79.7548V182.607H77.3548V184.737H80.0548V185.667H76.2148V178.707H80.0548V179.637H77.3548ZM85.069 185.667L83.469 182.887H82.599V185.667H81.459V178.717H83.859C84.3923 178.717 84.8423 178.81 85.209 178.997C85.5823 179.184 85.859 179.434 86.039 179.747C86.2257 180.06 86.319 180.41 86.319 180.797C86.319 181.25 86.1857 181.664 85.919 182.037C85.659 182.404 85.2557 182.654 84.709 182.787L86.429 185.667H85.069ZM82.599 181.977H83.859C84.2857 181.977 84.6057 181.87 84.819 181.657C85.039 181.444 85.149 181.157 85.149 180.797C85.149 180.437 85.0423 180.157 84.829 179.957C84.6157 179.75 84.2923 179.647 83.859 179.647H82.599V181.977ZM90.835 185.737C90.6283 185.737 90.455 185.667 90.315 185.527C90.175 185.387 90.105 185.214 90.105 185.007C90.105 184.8 90.175 184.627 90.315 184.487C90.455 184.347 90.6283 184.277 90.835 184.277C91.035 184.277 91.205 184.347 91.345 184.487C91.485 184.627 91.555 184.8 91.555 185.007C91.555 185.214 91.485 185.387 91.345 185.527C91.205 185.667 91.035 185.737 90.835 185.737ZM90.835 181.537C90.6283 181.537 90.455 181.467 90.315 181.327C90.175 181.187 90.105 181.014 90.105 180.807C90.105 180.6 90.175 180.427 90.315 180.287C90.455 180.147 90.6283 180.077 90.835 180.077C91.035 180.077 91.205 180.147 91.345 180.287C91.485 180.427 91.555 180.6 91.555 180.807C91.555 181.014 91.485 181.187 91.345 181.327C91.205 181.467 91.035 181.537 90.835 181.537ZM96.5038 181.857C95.8105 181.51 95.4638 180.964 95.4638 180.217C95.4638 179.857 95.5538 179.527 95.7338 179.227C95.9138 178.927 96.1838 178.69 96.5438 178.517C96.9038 178.337 97.3438 178.247 97.8638 178.247C98.3772 178.247 98.8138 178.337 99.1738 178.517C99.5405 178.69 99.8138 178.927 99.9938 179.227C100.174 179.527 100.264 179.857 100.264 180.217C100.264 180.59 100.167 180.92 99.9738 181.207C99.7872 181.487 99.5372 181.704 99.2238 181.857C99.6038 181.997 99.9038 182.227 100.124 182.547C100.344 182.86 100.454 183.23 100.454 183.657C100.454 184.09 100.344 184.474 100.124 184.807C99.9038 185.14 99.5972 185.397 99.2038 185.577C98.8105 185.757 98.3638 185.847 97.8638 185.847C97.3638 185.847 96.9172 185.757 96.5238 185.577C96.1372 185.397 95.8338 185.14 95.6138 184.807C95.3938 184.474 95.2838 184.09 95.2838 183.657C95.2838 183.224 95.3938 182.85 95.6138 182.537C95.8338 182.224 96.1305 181.997 96.5038 181.857ZM99.1738 180.357C99.1738 179.984 99.0572 179.697 98.8238 179.497C98.5905 179.297 98.2705 179.197 97.8638 179.197C97.4638 179.197 97.1472 179.297 96.9138 179.497C96.6805 179.697 96.5638 179.987 96.5638 180.367C96.5638 180.7 96.6838 180.974 96.9238 181.187C97.1705 181.394 97.4838 181.497 97.8638 181.497C98.2438 181.497 98.5572 181.39 98.8038 181.177C99.0505 180.964 99.1738 180.69 99.1738 180.357ZM97.8638 182.357C97.4238 182.357 97.0638 182.467 96.7838 182.687C96.5105 182.9 96.3738 183.21 96.3738 183.617C96.3738 183.997 96.5072 184.307 96.7738 184.547C97.0405 184.78 97.4038 184.897 97.8638 184.897C98.3172 184.897 98.6738 184.777 98.9338 184.537C99.2005 184.297 99.3338 183.99 99.3338 183.617C99.3338 183.217 99.1972 182.907 98.9238 182.687C98.6572 182.467 98.3038 182.357 97.8638 182.357ZM101.471 180.137C101.471 179.65 101.611 179.27 101.891 178.997C102.177 178.717 102.544 178.577 102.991 178.577C103.437 178.577 103.801 178.717 104.081 178.997C104.367 179.27 104.511 179.65 104.511 180.137C104.511 180.624 104.367 181.007 104.081 181.287C103.801 181.567 103.437 181.707 102.991 181.707C102.544 181.707 102.177 181.567 101.891 181.287C101.611 181.007 101.471 180.624 101.471 180.137ZM107.571 178.707L103.581 185.667H102.461L106.451 178.707H107.571ZM102.991 179.267C102.571 179.267 102.361 179.557 102.361 180.137C102.361 180.724 102.571 181.017 102.991 181.017C103.191 181.017 103.344 180.947 103.451 180.807C103.564 180.66 103.621 180.437 103.621 180.137C103.621 179.557 103.411 179.267 102.991 179.267ZM105.541 184.227C105.541 183.74 105.681 183.36 105.961 183.087C106.247 182.807 106.614 182.667 107.061 182.667C107.501 182.667 107.861 182.807 108.141 183.087C108.427 183.36 108.571 183.74 108.571 184.227C108.571 184.714 108.427 185.097 108.141 185.377C107.861 185.657 107.501 185.797 107.061 185.797C106.614 185.797 106.247 185.657 105.961 185.377C105.681 185.097 105.541 184.714 105.541 184.227ZM107.051 183.357C106.631 183.357 106.421 183.647 106.421 184.227C106.421 184.807 106.631 185.097 107.051 185.097C107.471 185.097 107.681 184.807 107.681 184.227C107.681 183.647 107.471 183.357 107.051 183.357Z" fill="#242424"/>
<g clip-path="url(#clip3_647_34539)">
<path d="M118.485 175.596C118.485 174.705 119.562 174.259 120.192 174.889L126.263 180.96C126.654 181.35 126.654 181.984 126.263 182.374L120.192 188.445C119.562 189.075 118.485 188.629 118.485 187.738L118.485 175.596Z" fill="white"/>
</g>
</g>
<g filter="url(#filter4_dd_647_34539)">
<rect x="36" y="115.667" width="74" height="30" rx="8" fill="white"/>
<path d="M54.759 127.717V134.667H53.619V131.627H50.349V134.667H49.209V127.717H50.349V130.697H53.619V127.717H54.759ZM58.5298 127.717C59.2698 127.717 59.9164 127.86 60.4698 128.147C61.0298 128.427 61.4598 128.834 61.7598 129.367C62.0664 129.894 62.2198 130.51 62.2198 131.217C62.2198 131.924 62.0664 132.537 61.7598 133.057C61.4598 133.577 61.0298 133.977 60.4698 134.257C59.9164 134.53 59.2698 134.667 58.5298 134.667H56.2598V127.717H58.5298ZM58.5298 133.737C59.3431 133.737 59.9664 133.517 60.3998 133.077C60.8331 132.637 61.0498 132.017 61.0498 131.217C61.0498 130.41 60.8331 129.78 60.3998 129.327C59.9664 128.874 59.3431 128.647 58.5298 128.647H57.3998V133.737H58.5298ZM67.4396 127.717V128.647H64.4896V130.697H66.7896V131.627H64.4896V134.667H63.3496V127.717H67.4396ZM68.1161 131.177C68.1161 130.497 68.2728 129.887 68.5861 129.347C68.9061 128.807 69.3361 128.387 69.8761 128.087C70.4228 127.78 71.0194 127.627 71.6661 127.627C72.4061 127.627 73.0628 127.81 73.6361 128.177C74.2161 128.537 74.6361 129.05 74.8961 129.717H73.5261C73.3461 129.35 73.0961 129.077 72.7761 128.897C72.4561 128.717 72.0861 128.627 71.6661 128.627C71.2061 128.627 70.7961 128.73 70.4361 128.937C70.0761 129.144 69.7928 129.44 69.5861 129.827C69.3861 130.214 69.2861 130.664 69.2861 131.177C69.2861 131.69 69.3861 132.14 69.5861 132.527C69.7928 132.914 70.0761 133.214 70.4361 133.427C70.7961 133.634 71.2061 133.737 71.6661 133.737C72.0861 133.737 72.4561 133.647 72.7761 133.467C73.0961 133.287 73.3461 133.014 73.5261 132.647H74.8961C74.6361 133.314 74.2161 133.827 73.6361 134.187C73.0628 134.547 72.4061 134.727 71.6661 134.727C71.0128 134.727 70.4161 134.577 69.8761 134.277C69.3361 133.97 68.9061 133.547 68.5861 133.007C68.2728 132.467 68.1161 131.857 68.1161 131.177ZM79.2881 134.737C79.0815 134.737 78.9081 134.667 78.7681 134.527C78.6281 134.387 78.5581 134.214 78.5581 134.007C78.5581 133.8 78.6281 133.627 78.7681 133.487C78.9081 133.347 79.0815 133.277 79.2881 133.277C79.4881 133.277 79.6581 133.347 79.7981 133.487C79.9381 133.627 80.0081 133.8 80.0081 134.007C80.0081 134.214 79.9381 134.387 79.7981 134.527C79.6581 134.667 79.4881 134.737 79.2881 134.737ZM79.2881 130.537C79.0815 130.537 78.9081 130.467 78.7681 130.327C78.6281 130.187 78.5581 130.014 78.5581 129.807C78.5581 129.6 78.6281 129.427 78.7681 129.287C78.9081 129.147 79.0815 129.077 79.2881 129.077C79.4881 129.077 79.6581 129.147 79.7981 129.287C79.9381 129.427 80.0081 129.6 80.0081 129.807C80.0081 130.014 79.9381 130.187 79.7981 130.327C79.6581 130.467 79.4881 130.537 79.2881 130.537ZM83.587 133.147V132.287L86.947 127.467H88.327V132.157H89.257V133.147H88.327V134.667H87.207V133.147H83.587ZM87.257 128.627L84.897 132.157H87.257V128.627ZM90.0216 129.137C90.0216 128.65 90.1616 128.27 90.4416 127.997C90.7282 127.717 91.0949 127.577 91.5416 127.577C91.9882 127.577 92.3516 127.717 92.6316 127.997C92.9182 128.27 93.0616 128.65 93.0616 129.137C93.0616 129.624 92.9182 130.007 92.6316 130.287C92.3516 130.567 91.9882 130.707 91.5416 130.707C91.0949 130.707 90.7282 130.567 90.4416 130.287C90.1616 130.007 90.0216 129.624 90.0216 129.137ZM96.1216 127.707L92.1316 134.667H91.0116L95.0016 127.707H96.1216ZM91.5416 128.267C91.1216 128.267 90.9116 128.557 90.9116 129.137C90.9116 129.724 91.1216 130.017 91.5416 130.017C91.7416 130.017 91.8949 129.947 92.0016 129.807C92.1149 129.66 92.1716 129.437 92.1716 129.137C92.1716 128.557 91.9616 128.267 91.5416 128.267ZM94.0916 133.227C94.0916 132.74 94.2316 132.36 94.5116 132.087C94.7982 131.807 95.1649 131.667 95.6116 131.667C96.0516 131.667 96.4116 131.807 96.6916 132.087C96.9782 132.36 97.1216 132.74 97.1216 133.227C97.1216 133.714 96.9782 134.097 96.6916 134.377C96.4116 134.657 96.0516 134.797 95.6116 134.797C95.1649 134.797 94.7982 134.657 94.5116 134.377C94.2316 134.097 94.0916 133.714 94.0916 133.227ZM95.6016 132.357C95.1816 132.357 94.9716 132.647 94.9716 133.227C94.9716 133.807 95.1816 134.097 95.6016 134.097C96.0216 134.097 96.2316 133.807 96.2316 133.227C96.2316 132.647 96.0216 132.357 95.6016 132.357Z" fill="#242424"/>
<g clip-path="url(#clip4_647_34539)">
<path d="M107.485 124.596C107.485 123.705 108.562 123.259 109.192 123.889L115.263 129.96C115.654 130.35 115.654 130.984 115.263 131.374L109.192 137.445C108.562 138.075 107.485 137.629 107.485 136.738L107.485 124.596Z" fill="white"/>
</g>
</g>
<g filter="url(#filter5_dd_647_34539)">
<rect x="64" y="69.667" width="66" height="30" rx="8" fill="white"/>
<path d="M84.2497 81.717V88.667H83.1097V83.907L80.9897 88.667H80.1997L78.0697 83.907V88.667H76.9297V81.717H78.1597L80.5997 87.167L83.0297 81.717H84.2497ZM89.358 88.667L87.758 85.887H86.888V88.667H85.748V81.717H88.148C88.6814 81.717 89.1314 81.8103 89.498 81.997C89.8714 82.1837 90.148 82.4337 90.328 82.747C90.5147 83.0603 90.608 83.4103 90.608 83.797C90.608 84.2503 90.4747 84.6637 90.208 85.037C89.948 85.4037 89.5447 85.6537 88.998 85.787L90.718 88.667H89.358ZM86.888 84.977H88.148C88.5747 84.977 88.8947 84.8703 89.108 84.657C89.328 84.4437 89.438 84.157 89.438 83.797C89.438 83.437 89.3314 83.157 89.118 82.957C88.9047 82.7503 88.5814 82.647 88.148 82.647H86.888V84.977ZM96.1564 81.717V82.647H93.2064V84.697H95.5064V85.627H93.2064V88.667H92.0664V81.717H96.1564ZM100.271 88.737C100.064 88.737 99.8905 88.667 99.7505 88.527C99.6105 88.387 99.5405 88.2137 99.5405 88.007C99.5405 87.8003 99.6105 87.627 99.7505 87.487C99.8905 87.347 100.064 87.277 100.271 87.277C100.471 87.277 100.641 87.347 100.781 87.487C100.921 87.627 100.991 87.8003 100.991 88.007C100.991 88.2137 100.921 88.387 100.781 88.527C100.641 88.667 100.471 88.737 100.271 88.737ZM100.271 84.537C100.064 84.537 99.8905 84.467 99.7505 84.327C99.6105 84.187 99.5405 84.0137 99.5405 83.807C99.5405 83.6003 99.6105 83.427 99.7505 83.287C99.8905 83.147 100.064 83.077 100.271 83.077C100.471 83.077 100.641 83.147 100.781 83.287C100.921 83.427 100.991 83.6003 100.991 83.807C100.991 84.0137 100.921 84.187 100.781 84.327C100.641 84.467 100.471 84.537 100.271 84.537ZM105.339 87.117C105.979 86.5637 106.483 86.1103 106.849 85.757C107.223 85.397 107.533 85.0237 107.779 84.637C108.026 84.2503 108.149 83.8637 108.149 83.477C108.149 83.077 108.053 82.7637 107.859 82.537C107.673 82.3103 107.376 82.197 106.969 82.197C106.576 82.197 106.269 82.3237 106.049 82.577C105.836 82.8237 105.723 83.157 105.709 83.577H104.609C104.629 82.817 104.856 82.237 105.289 81.837C105.729 81.4303 106.286 81.227 106.959 81.227C107.686 81.227 108.253 81.427 108.659 81.827C109.073 82.227 109.279 82.7603 109.279 83.427C109.279 83.907 109.156 84.3703 108.909 84.817C108.669 85.257 108.379 85.6537 108.039 86.007C107.706 86.3537 107.279 86.757 106.759 87.217L106.309 87.617H109.479V88.567H104.619V87.737L105.339 87.117ZM110.301 83.137C110.301 82.6503 110.441 82.2703 110.721 81.997C111.008 81.717 111.374 81.577 111.821 81.577C112.268 81.577 112.631 81.717 112.911 81.997C113.198 82.2703 113.341 82.6503 113.341 83.137C113.341 83.6237 113.198 84.007 112.911 84.287C112.631 84.567 112.268 84.707 111.821 84.707C111.374 84.707 111.008 84.567 110.721 84.287C110.441 84.007 110.301 83.6237 110.301 83.137ZM116.401 81.707L112.411 88.667H111.291L115.281 81.707H116.401ZM111.821 82.267C111.401 82.267 111.191 82.557 111.191 83.137C111.191 83.7237 111.401 84.017 111.821 84.017C112.021 84.017 112.174 83.947 112.281 83.807C112.394 83.6603 112.451 83.437 112.451 83.137C112.451 82.557 112.241 82.267 111.821 82.267ZM114.371 87.227C114.371 86.7403 114.511 86.3603 114.791 86.087C115.078 85.807 115.444 85.667 115.891 85.667C116.331 85.667 116.691 85.807 116.971 86.087C117.258 86.3603 117.401 86.7403 117.401 87.227C117.401 87.7137 117.258 88.097 116.971 88.377C116.691 88.657 116.331 88.797 115.891 88.797C115.444 88.797 115.078 88.657 114.791 88.377C114.511 88.097 114.371 87.7137 114.371 87.227ZM115.881 86.357C115.461 86.357 115.251 86.647 115.251 87.227C115.251 87.807 115.461 88.097 115.881 88.097C116.301 88.097 116.511 87.807 116.511 87.227C116.511 86.647 116.301 86.357 115.881 86.357Z" fill="#242424"/>
<g clip-path="url(#clip5_647_34539)">
<path d="M127.485 78.5959C127.485 77.705 128.562 77.2589 129.192 77.8888L135.263 83.9599C135.654 84.3504 135.654 84.9836 135.263 85.3741L129.192 91.4452C128.562 92.0751 127.485 91.629 127.485 90.7381L127.485 78.5959Z" fill="white"/>
</g>
</g>
<g filter="url(#filter6_dd_647_34539)">
<path d="M336.515 98.7381C336.515 99.629 335.438 100.075 334.808 99.4452L328.737 93.3741C328.346 92.9836 328.346 92.3504 328.737 91.9599L334.808 85.8888C335.438 85.2589 336.515 85.705 336.515 86.5959L336.515 98.7381Z" fill="white"/>
<rect x="334" y="77.667" width="92" height="30" rx="8" fill="white"/>
<path d="M350.781 96.667L349.181 93.887H348.311V96.667H347.171V89.717H349.571C350.104 89.717 350.554 89.8103 350.921 89.997C351.294 90.1837 351.571 90.4337 351.751 90.747C351.938 91.0603 352.031 91.4103 352.031 91.797C352.031 92.2503 351.898 92.6637 351.631 93.037C351.371 93.4037 350.968 93.6537 350.421 93.787L352.141 96.667H350.781ZM348.311 92.977H349.571C349.998 92.977 350.318 92.8703 350.531 92.657C350.751 92.4437 350.861 92.157 350.861 91.797C350.861 91.437 350.754 91.157 350.541 90.957C350.328 90.7503 350.004 90.647 349.571 90.647H348.311V92.977ZM354.629 90.637V92.677H357.029V93.607H354.629V95.737H357.329V96.667H353.489V89.707H357.329V90.637H354.629ZM359.873 95.747H362.223V96.667H358.733V89.717H359.873V95.747ZM364.317 89.717V96.667H363.177V89.717H364.317ZM370.003 95.247H367.093L366.593 96.667H365.403L367.893 89.707H369.213L371.703 96.667H370.503L370.003 95.247ZM369.683 94.317L368.553 91.087L367.413 94.317H369.683ZM378.496 96.667H377.356L373.926 91.477V96.667H372.786V89.707H373.926L377.356 94.887V89.707H378.496V96.667ZM379.613 93.177C379.613 92.497 379.77 91.887 380.083 91.347C380.403 90.807 380.833 90.387 381.373 90.087C381.92 89.7803 382.516 89.627 383.163 89.627C383.903 89.627 384.56 89.8103 385.133 90.177C385.713 90.537 386.133 91.0503 386.393 91.717H385.023C384.843 91.3503 384.593 91.077 384.273 90.897C383.953 90.717 383.583 90.627 383.163 90.627C382.703 90.627 382.293 90.7303 381.933 90.937C381.573 91.1437 381.29 91.4403 381.083 91.827C380.883 92.2137 380.783 92.6637 380.783 93.177C380.783 93.6903 380.883 94.1403 381.083 94.527C381.29 94.9137 381.573 95.2137 381.933 95.427C382.293 95.6337 382.703 95.737 383.163 95.737C383.583 95.737 383.953 95.647 384.273 95.467C384.593 95.287 384.843 95.0137 385.023 94.647H386.393C386.133 95.3137 385.713 95.827 385.133 96.187C384.56 96.547 383.903 96.727 383.163 96.727C382.51 96.727 381.913 96.577 381.373 96.277C380.833 95.9703 380.403 95.547 380.083 95.007C379.77 94.467 379.613 93.857 379.613 93.177ZM388.868 90.637V92.677H391.268V93.607H388.868V95.737H391.568V96.667H387.728V89.707H391.568V90.637H388.868ZM396.029 96.737C395.823 96.737 395.649 96.667 395.509 96.527C395.369 96.387 395.299 96.2137 395.299 96.007C395.299 95.8003 395.369 95.627 395.509 95.487C395.649 95.347 395.823 95.277 396.029 95.277C396.229 95.277 396.399 95.347 396.539 95.487C396.679 95.627 396.749 95.8003 396.749 96.007C396.749 96.2137 396.679 96.387 396.539 96.527C396.399 96.667 396.229 96.737 396.029 96.737ZM396.029 92.537C395.823 92.537 395.649 92.467 395.509 92.327C395.369 92.187 395.299 92.0137 395.299 91.807C395.299 91.6003 395.369 91.427 395.509 91.287C395.649 91.147 395.823 91.077 396.029 91.077C396.229 91.077 396.399 91.147 396.539 91.287C396.679 91.427 396.749 91.6003 396.749 91.807C396.749 92.0137 396.679 92.187 396.539 92.327C396.399 92.467 396.229 92.537 396.029 92.537ZM401.098 95.117C401.738 94.5637 402.241 94.1103 402.608 93.757C402.981 93.397 403.291 93.0237 403.538 92.637C403.785 92.2503 403.908 91.8637 403.908 91.477C403.908 91.077 403.811 90.7637 403.618 90.537C403.431 90.3103 403.135 90.197 402.728 90.197C402.335 90.197 402.028 90.3237 401.808 90.577C401.595 90.8237 401.481 91.157 401.468 91.577H400.368C400.388 90.817 400.615 90.237 401.048 89.837C401.488 89.4303 402.045 89.227 402.718 89.227C403.445 89.227 404.011 89.427 404.418 89.827C404.831 90.227 405.038 90.7603 405.038 91.427C405.038 91.907 404.915 92.3703 404.668 92.817C404.428 93.257 404.138 93.6537 403.798 94.007C403.465 94.3537 403.038 94.757 402.518 95.217L402.068 95.617H405.238V96.567H400.378V95.737L401.098 95.117ZM406.06 91.137C406.06 90.6503 406.2 90.2703 406.48 89.997C406.766 89.717 407.133 89.577 407.58 89.577C408.026 89.577 408.39 89.717 408.67 89.997C408.956 90.2703 409.1 90.6503 409.1 91.137C409.1 91.6237 408.956 92.007 408.67 92.287C408.39 92.567 408.026 92.707 407.58 92.707C407.133 92.707 406.766 92.567 406.48 92.287C406.2 92.007 406.06 91.6237 406.06 91.137ZM412.16 89.707L408.17 96.667H407.05L411.04 89.707H412.16ZM407.58 90.267C407.16 90.267 406.95 90.557 406.95 91.137C406.95 91.7237 407.16 92.017 407.58 92.017C407.78 92.017 407.933 91.947 408.04 91.807C408.153 91.6603 408.21 91.437 408.21 91.137C408.21 90.557 408 90.267 407.58 90.267ZM410.13 95.227C410.13 94.7403 410.27 94.3603 410.55 94.087C410.836 93.807 411.203 93.667 411.65 93.667C412.09 93.667 412.45 93.807 412.73 94.087C413.016 94.3603 413.16 94.7403 413.16 95.227C413.16 95.7137 413.016 96.097 412.73 96.377C412.45 96.657 412.09 96.797 411.65 96.797C411.203 96.797 410.836 96.657 410.55 96.377C410.27 96.097 410.13 95.7137 410.13 95.227ZM411.64 94.357C411.22 94.357 411.01 94.647 411.01 95.227C411.01 95.807 411.22 96.097 411.64 96.097C412.06 96.097 412.27 95.807 412.27 95.227C412.27 94.647 412.06 94.357 411.64 94.357Z" fill="#242424"/>
</g>
<g filter="url(#filter7_dd_647_34539)">
<path d="M301.515 59.7381C301.515 60.629 300.438 61.0751 299.808 60.4452L293.737 54.3741C293.346 53.9836 293.346 53.3504 293.737 52.9599L299.808 46.8888C300.438 46.2589 301.515 46.705 301.515 47.5959L301.515 59.7381Z" fill="white"/>
<rect x="299" y="38.667" width="98" height="30" rx="8" fill="white"/>
<path d="M316.638 50.717V51.647H314.788V57.667H313.648V51.647H311.788V50.717H316.638ZM321.983 56.247H319.073L318.573 57.667H317.383L319.873 50.707H321.193L323.683 57.667H322.483L321.983 56.247ZM321.663 55.317L320.533 52.087L319.393 55.317H321.663ZM329.256 50.717V51.647H327.406V57.667H326.266V51.647H324.406V50.717H329.256ZM334.6 56.247H331.69L331.19 57.667H330L332.49 50.707H333.81L336.3 57.667H335.1L334.6 56.247ZM334.28 55.317L333.15 52.087L332.01 55.317H334.28ZM339.673 57.737C339.206 57.737 338.786 57.657 338.413 57.497C338.039 57.3303 337.746 57.097 337.533 56.797C337.319 56.497 337.213 56.147 337.213 55.747H338.433C338.459 56.047 338.576 56.2937 338.783 56.487C338.996 56.6803 339.293 56.777 339.673 56.777C340.066 56.777 340.373 56.6837 340.593 56.497C340.813 56.3037 340.923 56.057 340.923 55.757C340.923 55.5237 340.853 55.3337 340.713 55.187C340.579 55.0403 340.409 54.927 340.203 54.847C340.003 54.767 339.723 54.6803 339.363 54.587C338.909 54.467 338.539 54.347 338.253 54.227C337.973 54.1003 337.733 53.907 337.533 53.647C337.333 53.387 337.233 53.0403 337.233 52.607C337.233 52.207 337.333 51.857 337.533 51.557C337.733 51.257 338.013 51.027 338.373 50.867C338.733 50.707 339.149 50.627 339.623 50.627C340.296 50.627 340.846 50.797 341.273 51.137C341.706 51.4703 341.946 51.9303 341.993 52.517H340.733C340.713 52.2637 340.593 52.047 340.373 51.867C340.153 51.687 339.863 51.597 339.503 51.597C339.176 51.597 338.909 51.6803 338.703 51.847C338.496 52.0137 338.393 52.2537 338.393 52.567C338.393 52.7803 338.456 52.957 338.583 53.097C338.716 53.2303 338.883 53.337 339.083 53.417C339.283 53.497 339.556 53.5837 339.903 53.677C340.363 53.8037 340.736 53.9303 341.023 54.057C341.316 54.1837 341.563 54.3803 341.763 54.647C341.969 54.907 342.073 55.257 342.073 55.697C342.073 56.0503 341.976 56.3837 341.783 56.697C341.596 57.0103 341.319 57.2637 340.953 57.457C340.593 57.6437 340.166 57.737 339.673 57.737ZM347.908 50.717V51.647H346.058V57.667H344.918V51.647H343.058V50.717H347.908ZM350.203 51.637V53.677H352.603V54.607H350.203V56.737H352.903V57.667H349.063V50.707H352.903V51.637H350.203ZM355.447 51.637V53.677H357.847V54.607H355.447V56.737H358.147V57.667H354.307V50.707H358.147V51.637H355.447ZM360.691 56.747H363.041V57.667H359.551V50.717H360.691V56.747ZM367.052 57.737C366.845 57.737 366.672 57.667 366.532 57.527C366.392 57.387 366.322 57.2137 366.322 57.007C366.322 56.8003 366.392 56.627 366.532 56.487C366.672 56.347 366.845 56.277 367.052 56.277C367.252 56.277 367.422 56.347 367.562 56.487C367.702 56.627 367.772 56.8003 367.772 57.007C367.772 57.2137 367.702 57.387 367.562 57.527C367.422 57.667 367.252 57.737 367.052 57.737ZM367.052 53.537C366.845 53.537 366.672 53.467 366.532 53.327C366.392 53.187 366.322 53.0137 366.322 52.807C366.322 52.6003 366.392 52.427 366.532 52.287C366.672 52.147 366.845 52.077 367.052 52.077C367.252 52.077 367.422 52.147 367.562 52.287C367.702 52.427 367.772 52.6003 367.772 52.807C367.772 53.0137 367.702 53.187 367.562 53.327C367.422 53.467 367.252 53.537 367.052 53.537ZM372.121 56.117C372.761 55.5637 373.264 55.1103 373.631 54.757C374.004 54.397 374.314 54.0237 374.561 53.637C374.807 53.2503 374.931 52.8637 374.931 52.477C374.931 52.077 374.834 51.7637 374.641 51.537C374.454 51.3103 374.157 51.197 373.751 51.197C373.357 51.197 373.051 51.3237 372.831 51.577C372.617 51.8237 372.504 52.157 372.491 52.577H371.391C371.411 51.817 371.637 51.237 372.071 50.837C372.511 50.4303 373.067 50.227 373.741 50.227C374.467 50.227 375.034 50.427 375.441 50.827C375.854 51.227 376.061 51.7603 376.061 52.427C376.061 52.907 375.937 53.3703 375.691 53.817C375.451 54.257 375.161 54.6537 374.821 55.007C374.487 55.3537 374.061 55.757 373.541 56.217L373.091 56.617H376.261V57.567H371.401V56.737L372.121 56.117ZM377.082 52.137C377.082 51.6503 377.222 51.2703 377.502 50.997C377.789 50.717 378.155 50.577 378.602 50.577C379.049 50.577 379.412 50.717 379.692 50.997C379.979 51.2703 380.122 51.6503 380.122 52.137C380.122 52.6237 379.979 53.007 379.692 53.287C379.412 53.567 379.049 53.707 378.602 53.707C378.155 53.707 377.789 53.567 377.502 53.287C377.222 53.007 377.082 52.6237 377.082 52.137ZM383.182 50.707L379.192 57.667H378.072L382.062 50.707H383.182ZM378.602 51.267C378.182 51.267 377.972 51.557 377.972 52.137C377.972 52.7237 378.182 53.017 378.602 53.017C378.802 53.017 378.955 52.947 379.062 52.807C379.175 52.6603 379.232 52.437 379.232 52.137C379.232 51.557 379.022 51.267 378.602 51.267ZM381.152 56.227C381.152 55.7403 381.292 55.3603 381.572 55.087C381.859 54.807 382.225 54.667 382.672 54.667C383.112 54.667 383.472 54.807 383.752 55.087C384.039 55.3603 384.182 55.7403 384.182 56.227C384.182 56.7137 384.039 57.097 383.752 57.377C383.472 57.657 383.112 57.797 382.672 57.797C382.225 57.797 381.859 57.657 381.572 57.377C381.292 57.097 381.152 56.7137 381.152 56.227ZM382.662 55.357C382.242 55.357 382.032 55.647 382.032 56.227C382.032 56.807 382.242 57.097 382.662 57.097C383.082 57.097 383.292 56.807 383.292 56.227C383.292 55.647 383.082 55.357 382.662 55.357Z" fill="#242424"/>
</g>
<g filter="url(#filter8_dd_647_34539)">
<path d="M345.515 143.738C345.515 144.629 344.438 145.075 343.808 144.445L337.737 138.374C337.346 137.984 337.346 137.35 337.737 136.96L343.808 130.889C344.438 130.259 345.515 130.705 345.515 131.596L345.515 143.738Z" fill="white"/>
<rect x="343" y="122.667" width="92" height="30" rx="8" fill="white"/>
<path d="M362.024 134.717L359.414 141.667H358.094L355.474 134.717H356.694L358.754 140.497L360.824 134.717H362.024ZM364.118 135.637V137.677H366.518V138.607H364.118V140.737H366.818V141.667H362.978V134.707H366.818V135.637H364.118ZM370.492 134.717C371.232 134.717 371.878 134.86 372.432 135.147C372.992 135.427 373.422 135.834 373.722 136.367C374.028 136.894 374.182 137.51 374.182 138.217C374.182 138.924 374.028 139.537 373.722 140.057C373.422 140.577 372.992 140.977 372.432 141.257C371.878 141.53 371.232 141.667 370.492 141.667H368.222V134.717H370.492ZM370.492 140.737C371.305 140.737 371.928 140.517 372.362 140.077C372.795 139.637 373.012 139.017 373.012 138.217C373.012 137.41 372.795 136.78 372.362 136.327C371.928 135.874 371.305 135.647 370.492 135.647H369.362V140.737H370.492ZM379.502 140.247H376.592L376.092 141.667H374.902L377.392 134.707H378.712L381.202 141.667H380.002L379.502 140.247ZM379.182 139.317L378.052 136.087L376.912 139.317H379.182ZM387.994 141.667H386.854L383.424 136.477V141.667H382.284V134.707H383.424L386.854 139.887V134.707H387.994V141.667ZM393.981 134.717V135.647H392.131V141.667H390.991V135.647H389.131V134.717H393.981ZM399.326 140.247H396.416L395.916 141.667H394.726L397.216 134.707H398.536L401.026 141.667H399.826L399.326 140.247ZM399.006 139.317L397.876 136.087L396.736 139.317H399.006ZM405.166 141.737C404.959 141.737 404.786 141.667 404.646 141.527C404.506 141.387 404.436 141.214 404.436 141.007C404.436 140.8 404.506 140.627 404.646 140.487C404.786 140.347 404.959 140.277 405.166 140.277C405.366 140.277 405.536 140.347 405.676 140.487C405.816 140.627 405.886 140.8 405.886 141.007C405.886 141.214 405.816 141.387 405.676 141.527C405.536 141.667 405.366 141.737 405.166 141.737ZM405.166 137.537C404.959 137.537 404.786 137.467 404.646 137.327C404.506 137.187 404.436 137.014 404.436 136.807C404.436 136.6 404.506 136.427 404.646 136.287C404.786 136.147 404.959 136.077 405.166 136.077C405.366 136.077 405.536 136.147 405.676 136.287C405.816 136.427 405.886 136.6 405.886 136.807C405.886 137.014 405.816 137.187 405.676 137.327C405.536 137.467 405.366 137.537 405.166 137.537ZM410.235 140.117C410.875 139.564 411.378 139.11 411.745 138.757C412.118 138.397 412.428 138.024 412.675 137.637C412.922 137.25 413.045 136.864 413.045 136.477C413.045 136.077 412.948 135.764 412.755 135.537C412.568 135.31 412.272 135.197 411.865 135.197C411.472 135.197 411.165 135.324 410.945 135.577C410.732 135.824 410.618 136.157 410.605 136.577H409.505C409.525 135.817 409.752 135.237 410.185 134.837C410.625 134.43 411.182 134.227 411.855 134.227C412.582 134.227 413.148 134.427 413.555 134.827C413.968 135.227 414.175 135.76 414.175 136.427C414.175 136.907 414.052 137.37 413.805 137.817C413.565 138.257 413.275 138.654 412.935 139.007C412.602 139.354 412.175 139.757 411.655 140.217L411.205 140.617H414.375V141.567H409.515V140.737L410.235 140.117ZM415.196 136.137C415.196 135.65 415.336 135.27 415.616 134.997C415.903 134.717 416.27 134.577 416.716 134.577C417.163 134.577 417.526 134.717 417.806 134.997C418.093 135.27 418.236 135.65 418.236 136.137C418.236 136.624 418.093 137.007 417.806 137.287C417.526 137.567 417.163 137.707 416.716 137.707C416.27 137.707 415.903 137.567 415.616 137.287C415.336 137.007 415.196 136.624 415.196 136.137ZM421.296 134.707L417.306 141.667H416.186L420.176 134.707H421.296ZM416.716 135.267C416.296 135.267 416.086 135.557 416.086 136.137C416.086 136.724 416.296 137.017 416.716 137.017C416.916 137.017 417.07 136.947 417.176 136.807C417.29 136.66 417.346 136.437 417.346 136.137C417.346 135.557 417.136 135.267 416.716 135.267ZM419.266 140.227C419.266 139.74 419.406 139.36 419.686 139.087C419.973 138.807 420.34 138.667 420.786 138.667C421.226 138.667 421.586 138.807 421.866 139.087C422.153 139.36 422.296 139.74 422.296 140.227C422.296 140.714 422.153 141.097 421.866 141.377C421.586 141.657 421.226 141.797 420.786 141.797C420.34 141.797 419.973 141.657 419.686 141.377C419.406 141.097 419.266 140.714 419.266 140.227ZM420.776 139.357C420.356 139.357 420.146 139.647 420.146 140.227C420.146 140.807 420.356 141.097 420.776 141.097C421.196 141.097 421.406 140.807 421.406 140.227C421.406 139.647 421.196 139.357 420.776 139.357Z" fill="#242424"/>
</g>
<g filter="url(#filter9_dd_647_34539)">
<path d="M329.515 213.738C329.515 214.629 328.438 215.075 327.808 214.445L321.737 208.374C321.346 207.984 321.346 207.35 321.737 206.96L327.808 200.889C328.438 200.259 329.515 200.705 329.515 201.596L329.515 213.738Z" fill="white"/>
<rect x="327" y="192.667" width="80" height="30" rx="8" fill="white"/>
<path d="M339.509 208.177C339.509 207.497 339.665 206.887 339.979 206.347C340.299 205.807 340.729 205.387 341.269 205.087C341.815 204.78 342.412 204.627 343.059 204.627C343.799 204.627 344.455 204.81 345.029 205.177C345.609 205.537 346.029 206.05 346.289 206.717H344.919C344.739 206.35 344.489 206.077 344.169 205.897C343.849 205.717 343.479 205.627 343.059 205.627C342.599 205.627 342.189 205.73 341.829 205.937C341.469 206.144 341.185 206.44 340.979 206.827C340.779 207.214 340.679 207.664 340.679 208.177C340.679 208.69 340.779 209.14 340.979 209.527C341.185 209.914 341.469 210.214 341.829 210.427C342.189 210.634 342.599 210.737 343.059 210.737C343.479 210.737 343.849 210.647 344.169 210.467C344.489 210.287 344.739 210.014 344.919 209.647H346.289C346.029 210.314 345.609 210.827 345.029 211.187C344.455 211.547 343.799 211.727 343.059 211.727C342.405 211.727 341.809 211.577 341.269 211.277C340.729 210.97 340.299 210.547 339.979 210.007C339.665 209.467 339.509 208.857 339.509 208.177ZM351.813 210.247H348.903L348.403 211.667H347.213L349.703 204.707H351.023L353.513 211.667H352.313L351.813 210.247ZM351.493 209.317L350.363 206.087L349.223 209.317H351.493ZM356.886 211.737C356.419 211.737 355.999 211.657 355.626 211.497C355.252 211.33 354.959 211.097 354.746 210.797C354.532 210.497 354.426 210.147 354.426 209.747H355.646C355.672 210.047 355.789 210.294 355.996 210.487C356.209 210.68 356.506 210.777 356.886 210.777C357.279 210.777 357.586 210.684 357.806 210.497C358.026 210.304 358.136 210.057 358.136 209.757C358.136 209.524 358.066 209.334 357.926 209.187C357.792 209.04 357.622 208.927 357.416 208.847C357.216 208.767 356.936 208.68 356.576 208.587C356.122 208.467 355.752 208.347 355.466 208.227C355.186 208.1 354.946 207.907 354.746 207.647C354.546 207.387 354.446 207.04 354.446 206.607C354.446 206.207 354.546 205.857 354.746 205.557C354.946 205.257 355.226 205.027 355.586 204.867C355.946 204.707 356.362 204.627 356.836 204.627C357.509 204.627 358.059 204.797 358.486 205.137C358.919 205.47 359.159 205.93 359.206 206.517H357.946C357.926 206.264 357.806 206.047 357.586 205.867C357.366 205.687 357.076 205.597 356.716 205.597C356.389 205.597 356.122 205.68 355.916 205.847C355.709 206.014 355.606 206.254 355.606 206.567C355.606 206.78 355.669 206.957 355.796 207.097C355.929 207.23 356.096 207.337 356.296 207.417C356.496 207.497 356.769 207.584 357.116 207.677C357.576 207.804 357.949 207.93 358.236 208.057C358.529 208.184 358.776 208.38 358.976 208.647C359.182 208.907 359.286 209.257 359.286 209.697C359.286 210.05 359.189 210.384 358.996 210.697C358.809 211.01 358.532 211.264 358.166 211.457C357.806 211.644 357.379 211.737 356.886 211.737ZM366.181 204.717V211.667H365.041V208.627H361.771V211.667H360.631V204.717H361.771V207.697H365.041V204.717H366.181ZM370.739 211.737C370.533 211.737 370.359 211.667 370.219 211.527C370.079 211.387 370.009 211.214 370.009 211.007C370.009 210.8 370.079 210.627 370.219 210.487C370.359 210.347 370.533 210.277 370.739 210.277C370.939 210.277 371.109 210.347 371.249 210.487C371.389 210.627 371.459 210.8 371.459 211.007C371.459 211.214 371.389 211.387 371.249 211.527C371.109 211.667 370.939 211.737 370.739 211.737ZM370.739 207.537C370.533 207.537 370.359 207.467 370.219 207.327C370.079 207.187 370.009 207.014 370.009 206.807C370.009 206.6 370.079 206.427 370.219 206.287C370.359 206.147 370.533 206.077 370.739 206.077C370.939 206.077 371.109 206.147 371.249 206.287C371.389 206.427 371.459 206.6 371.459 206.807C371.459 207.014 371.389 207.187 371.249 207.327C371.109 207.467 370.939 207.537 370.739 207.537ZM375.158 206.177C375.198 205.557 375.435 205.074 375.868 204.727C376.308 204.38 376.868 204.207 377.548 204.207C378.015 204.207 378.418 204.29 378.758 204.457C379.098 204.624 379.355 204.85 379.528 205.137C379.701 205.424 379.788 205.747 379.788 206.107C379.788 206.52 379.678 206.874 379.458 207.167C379.238 207.46 378.975 207.657 378.668 207.757V207.797C379.061 207.917 379.368 208.137 379.588 208.457C379.808 208.77 379.918 209.174 379.918 209.667C379.918 210.06 379.828 210.41 379.648 210.717C379.468 211.024 379.201 211.267 378.848 211.447C378.495 211.62 378.071 211.707 377.578 211.707C376.858 211.707 376.265 211.524 375.798 211.157C375.338 210.784 375.091 210.25 375.058 209.557H376.158C376.185 209.91 376.321 210.2 376.568 210.427C376.815 210.647 377.148 210.757 377.568 210.757C377.975 210.757 378.288 210.647 378.508 210.427C378.728 210.2 378.838 209.91 378.838 209.557C378.838 209.09 378.688 208.76 378.388 208.567C378.095 208.367 377.641 208.267 377.028 208.267H376.768V207.327H377.038C377.578 207.32 377.988 207.23 378.268 207.057C378.555 206.884 378.698 206.61 378.698 206.237C378.698 205.917 378.595 205.664 378.388 205.477C378.181 205.284 377.888 205.187 377.508 205.187C377.135 205.187 376.845 205.284 376.638 205.477C376.431 205.664 376.308 205.897 376.268 206.177H375.158ZM381.116 207.927C381.116 206.774 381.309 205.874 381.696 205.227C382.089 204.574 382.762 204.247 383.716 204.247C384.669 204.247 385.339 204.574 385.726 205.227C386.119 205.874 386.316 206.774 386.316 207.927C386.316 209.094 386.119 210.007 385.726 210.667C385.339 211.32 384.669 211.647 383.716 211.647C382.762 211.647 382.089 211.32 381.696 210.667C381.309 210.007 381.116 209.094 381.116 207.927ZM385.196 207.927C385.196 207.387 385.159 206.93 385.086 206.557C385.019 206.184 384.879 205.88 384.666 205.647C384.452 205.407 384.136 205.287 383.716 205.287C383.296 205.287 382.979 205.407 382.766 205.647C382.552 205.88 382.409 206.184 382.336 206.557C382.269 206.93 382.236 207.387 382.236 207.927C382.236 208.487 382.269 208.957 382.336 209.337C382.402 209.717 382.542 210.024 382.756 210.257C382.976 210.49 383.296 210.607 383.716 210.607C384.136 210.607 384.452 210.49 384.666 210.257C384.886 210.024 385.029 209.717 385.096 209.337C385.162 208.957 385.196 208.487 385.196 207.927ZM387.342 206.137C387.342 205.65 387.482 205.27 387.762 204.997C388.049 204.717 388.415 204.577 388.862 204.577C389.309 204.577 389.672 204.717 389.952 204.997C390.239 205.27 390.382 205.65 390.382 206.137C390.382 206.624 390.239 207.007 389.952 207.287C389.672 207.567 389.309 207.707 388.862 207.707C388.415 207.707 388.049 207.567 387.762 207.287C387.482 207.007 387.342 206.624 387.342 206.137ZM393.442 204.707L389.452 211.667H388.332L392.322 204.707H393.442ZM388.862 205.267C388.442 205.267 388.232 205.557 388.232 206.137C388.232 206.724 388.442 207.017 388.862 207.017C389.062 207.017 389.215 206.947 389.322 206.807C389.435 206.66 389.492 206.437 389.492 206.137C389.492 205.557 389.282 205.267 388.862 205.267ZM391.412 210.227C391.412 209.74 391.552 209.36 391.832 209.087C392.119 208.807 392.485 208.667 392.932 208.667C393.372 208.667 393.732 208.807 394.012 209.087C394.299 209.36 394.442 209.74 394.442 210.227C394.442 210.714 394.299 211.097 394.012 211.377C393.732 211.657 393.372 211.797 392.932 211.797C392.485 211.797 392.119 211.657 391.832 211.377C391.552 211.097 391.412 210.714 391.412 210.227ZM392.922 209.357C392.502 209.357 392.292 209.647 392.292 210.227C392.292 210.807 392.502 211.097 392.922 211.097C393.342 211.097 393.552 210.807 393.552 210.227C393.552 209.647 393.342 209.357 392.922 209.357Z" fill="#242424"/>
</g>
<g filter="url(#filter10_dd_647_34539)">
<path d="M255.515 278.738C255.515 279.629 254.438 280.075 253.808 279.445L247.737 273.374C247.346 272.984 247.346 272.35 247.737 271.96L253.808 265.889C254.438 265.259 255.515 265.705 255.515 266.596L255.515 278.738Z" fill="white"/>
<rect x="253" y="257.667" width="106" height="30" rx="8" fill="white"/>
<path d="M271.747 276.667H270.607L267.177 271.477V276.667H266.037V269.707H267.177L270.607 274.887V269.707H271.747V276.667ZM274.384 269.717V276.667H273.244V269.717H274.384ZM279.971 269.717V270.647H277.021V272.697H279.321V273.627H277.021V276.667H275.881V269.717H279.971ZM285.517 269.717V270.647H283.667V276.667H282.527V270.647H280.667V269.717H285.517ZM291.822 269.717L289.522 274.147V276.667H288.382V274.147L286.072 269.717H287.342L288.952 273.127L290.562 269.717H291.822ZM296.447 273.097C296.82 273.164 297.137 273.36 297.397 273.687C297.657 274.014 297.787 274.384 297.787 274.797C297.787 275.15 297.693 275.47 297.507 275.757C297.327 276.037 297.063 276.26 296.717 276.427C296.37 276.587 295.967 276.667 295.507 276.667H292.727V269.717H295.377C295.85 269.717 296.257 269.797 296.597 269.957C296.937 270.117 297.193 270.334 297.367 270.607C297.54 270.874 297.627 271.174 297.627 271.507C297.627 271.907 297.52 272.24 297.307 272.507C297.093 272.774 296.807 272.97 296.447 273.097ZM293.867 272.637H295.277C295.65 272.637 295.94 272.554 296.147 272.387C296.36 272.214 296.467 271.967 296.467 271.647C296.467 271.334 296.36 271.09 296.147 270.917C295.94 270.737 295.65 270.647 295.277 270.647H293.867V272.637ZM295.407 275.737C295.793 275.737 296.097 275.644 296.317 275.457C296.537 275.27 296.647 275.01 296.647 274.677C296.647 274.337 296.53 274.067 296.297 273.867C296.063 273.667 295.753 273.567 295.367 273.567H293.867V275.737H295.407ZM303.215 275.247H300.305L299.805 276.667H298.615L301.105 269.707H302.425L304.915 276.667H303.715L303.215 275.247ZM302.895 274.317L301.765 271.087L300.625 274.317H302.895ZM311.708 276.667H310.568L307.138 271.477V276.667H305.998V269.707H307.138L310.568 274.887V269.707H311.708V276.667ZM317.035 276.667L314.345 273.557V276.667H313.205V269.717H314.345V272.887L317.045 269.717H318.475L315.455 273.197L318.525 276.667H317.035ZM322.591 276.737C322.384 276.737 322.211 276.667 322.071 276.527C321.931 276.387 321.861 276.214 321.861 276.007C321.861 275.8 321.931 275.627 322.071 275.487C322.211 275.347 322.384 275.277 322.591 275.277C322.791 275.277 322.961 275.347 323.101 275.487C323.241 275.627 323.311 275.8 323.311 276.007C323.311 276.214 323.241 276.387 323.101 276.527C322.961 276.667 322.791 276.737 322.591 276.737ZM322.591 272.537C322.384 272.537 322.211 272.467 322.071 272.327C321.931 272.187 321.861 272.014 321.861 271.807C321.861 271.6 321.931 271.427 322.071 271.287C322.211 271.147 322.384 271.077 322.591 271.077C322.791 271.077 322.961 271.147 323.101 271.287C323.241 271.427 323.311 271.6 323.311 271.807C323.311 272.014 323.241 272.187 323.101 272.327C322.961 272.467 322.791 272.537 322.591 272.537ZM327.01 271.177C327.05 270.557 327.286 270.074 327.72 269.727C328.16 269.38 328.72 269.207 329.4 269.207C329.866 269.207 330.27 269.29 330.61 269.457C330.95 269.624 331.206 269.85 331.38 270.137C331.553 270.424 331.64 270.747 331.64 271.107C331.64 271.52 331.53 271.874 331.31 272.167C331.09 272.46 330.826 272.657 330.52 272.757V272.797C330.913 272.917 331.22 273.137 331.44 273.457C331.66 273.77 331.77 274.174 331.77 274.667C331.77 275.06 331.68 275.41 331.5 275.717C331.32 276.024 331.053 276.267 330.7 276.447C330.346 276.62 329.923 276.707 329.43 276.707C328.71 276.707 328.116 276.524 327.65 276.157C327.19 275.784 326.943 275.25 326.91 274.557H328.01C328.036 274.91 328.173 275.2 328.42 275.427C328.666 275.647 329 275.757 329.42 275.757C329.826 275.757 330.14 275.647 330.36 275.427C330.58 275.2 330.69 274.91 330.69 274.557C330.69 274.09 330.54 273.76 330.24 273.567C329.946 273.367 329.493 273.267 328.88 273.267H328.62V272.327H328.89C329.43 272.32 329.84 272.23 330.12 272.057C330.406 271.884 330.55 271.61 330.55 271.237C330.55 270.917 330.446 270.664 330.24 270.477C330.033 270.284 329.74 270.187 329.36 270.187C328.986 270.187 328.696 270.284 328.49 270.477C328.283 270.664 328.16 270.897 328.12 271.177H327.01ZM332.967 272.927C332.967 271.774 333.161 270.874 333.547 270.227C333.941 269.574 334.614 269.247 335.567 269.247C336.521 269.247 337.191 269.574 337.577 270.227C337.971 270.874 338.167 271.774 338.167 272.927C338.167 274.094 337.971 275.007 337.577 275.667C337.191 276.32 336.521 276.647 335.567 276.647C334.614 276.647 333.941 276.32 333.547 275.667C333.161 275.007 332.967 274.094 332.967 272.927ZM337.047 272.927C337.047 272.387 337.011 271.93 336.937 271.557C336.871 271.184 336.731 270.88 336.517 270.647C336.304 270.407 335.987 270.287 335.567 270.287C335.147 270.287 334.831 270.407 334.617 270.647C334.404 270.88 334.261 271.184 334.187 271.557C334.121 271.93 334.087 272.387 334.087 272.927C334.087 273.487 334.121 273.957 334.187 274.337C334.254 274.717 334.394 275.024 334.607 275.257C334.827 275.49 335.147 275.607 335.567 275.607C335.987 275.607 336.304 275.49 336.517 275.257C336.737 275.024 336.881 274.717 336.947 274.337C337.014 273.957 337.047 273.487 337.047 272.927ZM339.193 271.137C339.193 270.65 339.333 270.27 339.613 269.997C339.9 269.717 340.267 269.577 340.713 269.577C341.16 269.577 341.523 269.717 341.803 269.997C342.09 270.27 342.233 270.65 342.233 271.137C342.233 271.624 342.09 272.007 341.803 272.287C341.523 272.567 341.16 272.707 340.713 272.707C340.267 272.707 339.9 272.567 339.613 272.287C339.333 272.007 339.193 271.624 339.193 271.137ZM345.293 269.707L341.303 276.667H340.183L344.173 269.707H345.293ZM340.713 270.267C340.293 270.267 340.083 270.557 340.083 271.137C340.083 271.724 340.293 272.017 340.713 272.017C340.913 272.017 341.067 271.947 341.173 271.807C341.287 271.66 341.343 271.437 341.343 271.137C341.343 270.557 341.133 270.267 340.713 270.267ZM343.263 275.227C343.263 274.74 343.403 274.36 343.683 274.087C343.97 273.807 344.337 273.667 344.783 273.667C345.223 273.667 345.583 273.807 345.863 274.087C346.15 274.36 346.293 274.74 346.293 275.227C346.293 275.714 346.15 276.097 345.863 276.377C345.583 276.657 345.223 276.797 344.783 276.797C344.337 276.797 343.97 276.657 343.683 276.377C343.403 276.097 343.263 275.714 343.263 275.227ZM344.773 274.357C344.353 274.357 344.143 274.647 344.143 275.227C344.143 275.807 344.353 276.097 344.773 276.097C345.193 276.097 345.403 275.807 345.403 275.227C345.403 274.647 345.193 274.357 344.773 274.357Z" fill="#242424"/>
</g>
<g filter="url(#filter11_dd_647_34539)">
<rect x="195" y="0.666992" width="99" height="30" rx="8" fill="white"/>
<path d="M212.294 12.717V13.647H210.444V19.667H209.304V13.647H207.444V12.717H212.294ZM217.638 18.247H214.728L214.228 19.667H213.038L215.528 12.707H216.848L219.338 19.667H218.138L217.638 18.247ZM217.318 17.317L216.188 14.087L215.048 17.317H217.318ZM224.911 12.717V13.647H223.061V19.667H221.921V13.647H220.061V12.717H224.911ZM230.255 18.247H227.345L226.845 19.667H225.655L228.145 12.707H229.465L231.955 19.667H230.755L230.255 18.247ZM229.935 17.317L228.805 14.087L227.665 17.317H229.935ZM234.178 13.637V15.677H236.578V16.607H234.178V18.737H236.878V19.667H233.038V12.707H236.878V13.637H234.178ZM239.422 18.747H241.772V19.667H238.282V12.717H239.422V18.747ZM243.866 13.637V15.677H246.266V16.607H243.866V18.737H246.566V19.667H242.726V12.707H246.566V13.637H243.866ZM251.16 16.197L253.32 19.667H252.04L250.47 17.147L249 19.667H247.73L249.89 16.197L247.72 12.717H249L250.58 15.257L252.06 12.717H253.33L251.16 16.197ZM255.711 12.717V19.667H254.571V12.717H255.711ZM260.266 19.737C260.059 19.737 259.886 19.667 259.746 19.527C259.606 19.387 259.536 19.2137 259.536 19.007C259.536 18.8003 259.606 18.627 259.746 18.487C259.886 18.347 260.059 18.277 260.266 18.277C260.466 18.277 260.636 18.347 260.776 18.487C260.916 18.627 260.986 18.8003 260.986 19.007C260.986 19.2137 260.916 19.387 260.776 19.527C260.636 19.667 260.466 19.737 260.266 19.737ZM260.266 15.537C260.059 15.537 259.886 15.467 259.746 15.327C259.606 15.187 259.536 15.0137 259.536 14.807C259.536 14.6003 259.606 14.427 259.746 14.287C259.886 14.147 260.059 14.077 260.266 14.077C260.466 14.077 260.636 14.147 260.776 14.287C260.916 14.427 260.986 14.6003 260.986 14.807C260.986 15.0137 260.916 15.187 260.776 15.327C260.636 15.467 260.466 15.537 260.266 15.537ZM264.554 13.417V12.377H266.634V19.667H265.484V13.417H264.554ZM268.201 15.927C268.201 14.7737 268.394 13.8737 268.781 13.227C269.174 12.5737 269.847 12.247 270.801 12.247C271.754 12.247 272.424 12.5737 272.811 13.227C273.204 13.8737 273.401 14.7737 273.401 15.927C273.401 17.0937 273.204 18.007 272.811 18.667C272.424 19.3203 271.754 19.647 270.801 19.647C269.847 19.647 269.174 19.3203 268.781 18.667C268.394 18.007 268.201 17.0937 268.201 15.927ZM272.281 15.927C272.281 15.387 272.244 14.9303 272.171 14.557C272.104 14.1837 271.964 13.8803 271.751 13.647C271.537 13.407 271.221 13.287 270.801 13.287C270.381 13.287 270.064 13.407 269.851 13.647C269.637 13.8803 269.494 14.1837 269.421 14.557C269.354 14.9303 269.321 15.387 269.321 15.927C269.321 16.487 269.354 16.957 269.421 17.337C269.487 17.717 269.627 18.0237 269.841 18.257C270.061 18.4903 270.381 18.607 270.801 18.607C271.221 18.607 271.537 18.4903 271.751 18.257C271.971 18.0237 272.114 17.717 272.181 17.337C272.247 16.957 272.281 16.487 272.281 15.927ZM274.427 14.137C274.427 13.6503 274.567 13.2703 274.847 12.997C275.134 12.717 275.5 12.577 275.947 12.577C276.394 12.577 276.757 12.717 277.037 12.997C277.324 13.2703 277.467 13.6503 277.467 14.137C277.467 14.6237 277.324 15.007 277.037 15.287C276.757 15.567 276.394 15.707 275.947 15.707C275.5 15.707 275.134 15.567 274.847 15.287C274.567 15.007 274.427 14.6237 274.427 14.137ZM280.527 12.707L276.537 19.667H275.417L279.407 12.707H280.527ZM275.947 13.267C275.527 13.267 275.317 13.557 275.317 14.137C275.317 14.7237 275.527 15.017 275.947 15.017C276.147 15.017 276.3 14.947 276.407 14.807C276.52 14.6603 276.577 14.437 276.577 14.137C276.577 13.557 276.367 13.267 275.947 13.267ZM278.497 18.227C278.497 17.7403 278.637 17.3603 278.917 17.087C279.204 16.807 279.57 16.667 280.017 16.667C280.457 16.667 280.817 16.807 281.097 17.087C281.384 17.3603 281.527 17.7403 281.527 18.227C281.527 18.7137 281.384 19.097 281.097 19.377C280.817 19.657 280.457 19.797 280.017 19.797C279.57 19.797 279.204 19.657 278.917 19.377C278.637 19.097 278.497 18.7137 278.497 18.227ZM280.007 17.357C279.587 17.357 279.377 17.647 279.377 18.227C279.377 18.807 279.587 19.097 280.007 19.097C280.427 19.097 280.637 18.807 280.637 18.227C280.637 17.647 280.427 17.357 280.007 17.357Z" fill="#242424"/>
<path d="M250.571 28.1523C251.462 28.1523 251.908 29.2294 251.278 29.8594L245.207 35.9305C244.817 36.321 244.183 36.321 243.793 35.9305L237.722 29.8594C237.092 29.2294 237.538 28.1523 238.429 28.1523L250.571 28.1523Z" fill="white"/>
</g>
<defs>
<filter id="filter0_dd_647_34539" x="76" y="254.667" width="128" height="54" filterUnits="userSpaceOnUse" color-interpolation-filters="sRGB">
<feFlood flood-opacity="0" result="BackgroundImageFix"/>
<feColorMatrix in="SourceAlpha" type="matrix" values="0 0 0 0 0 0 0 0 0 0 0 0 0 0 0 0 0 0 127 0" result="hardAlpha"/>
<feMorphology radius="2" operator="erode" in="SourceAlpha" result="effect1_dropShadow_647_34539"/>
<feOffset dy="4"/>
<feGaussianBlur stdDeviation="3"/>
<feColorMatrix type="matrix" values="0 0 0 0 0.0627451 0 0 0 0 0.0941176 0 0 0 0 0.156863 0 0 0 0.03 0"/>
<feBlend mode="normal" in2="BackgroundImageFix" result="effect1_dropShadow_647_34539"/>
<feColorMatrix in="SourceAlpha" type="matrix" values="0 0 0 0 0 0 0 0 0 0 0 0 0 0 0 0 0 0 127 0" result="hardAlpha"/>
<feMorphology radius="4" operator="erode" in="SourceAlpha" result="effect2_dropShadow_647_34539"/>
<feOffset dy="12"/>
<feGaussianBlur stdDeviation="8"/>
<feColorMatrix type="matrix" values="0 0 0 0 0.0627451 0 0 0 0 0.0941176 0 0 0 0 0.156863 0 0 0 0.08 0"/>
<feBlend mode="normal" in2="effect1_dropShadow_647_34539" result="effect2_dropShadow_647_34539"/>
<feBlend mode="normal" in="SourceGraphic" in2="effect2_dropShadow_647_34539" result="shape"/>
</filter>
<filter id="filter1_dd_647_34539" x="43" y="215.667" width="110" height="54" filterUnits="userSpaceOnUse" color-interpolation-filters="sRGB">
<feFlood flood-opacity="0" result="BackgroundImageFix"/>
<feColorMatrix in="SourceAlpha" type="matrix" values="0 0 0 0 0 0 0 0 0 0 0 0 0 0 0 0 0 0 127 0" result="hardAlpha"/>
<feMorphology radius="2" operator="erode" in="SourceAlpha" result="effect1_dropShadow_647_34539"/>
<feOffset dy="4"/>
<feGaussianBlur stdDeviation="3"/>
<feColorMatrix type="matrix" values="0 0 0 0 0.0627451 0 0 0 0 0.0941176 0 0 0 0 0.156863 0 0 0 0.03 0"/>
<feBlend mode="normal" in2="BackgroundImageFix" result="effect1_dropShadow_647_34539"/>
<feColorMatrix in="SourceAlpha" type="matrix" values="0 0 0 0 0 0 0 0 0 0 0 0 0 0 0 0 0 0 127 0" result="hardAlpha"/>
<feMorphology radius="4" operator="erode" in="SourceAlpha" result="effect2_dropShadow_647_34539"/>
<feOffset dy="12"/>
<feGaussianBlur stdDeviation="8"/>
<feColorMatrix type="matrix" values="0 0 0 0 0.0627451 0 0 0 0 0.0941176 0 0 0 0 0.156863 0 0 0 0.08 0"/>
<feBlend mode="normal" in2="effect1_dropShadow_647_34539" result="effect2_dropShadow_647_34539"/>
<feBlend mode="normal" in="SourceGraphic" in2="effect2_dropShadow_647_34539" result="shape"/>
</filter>
<filter id="filter2_dd_647_34539" x="53" y="29.667" width="142" height="54" filterUnits="userSpaceOnUse" color-interpolation-filters="sRGB">
<feFlood flood-opacity="0" result="BackgroundImageFix"/>
<feColorMatrix in="SourceAlpha" type="matrix" values="0 0 0 0 0 0 0 0 0 0 0 0 0 0 0 0 0 0 127 0" result="hardAlpha"/>
<feMorphology radius="2" operator="erode" in="SourceAlpha" result="effect1_dropShadow_647_34539"/>
<feOffset dy="4"/>
<feGaussianBlur stdDeviation="3"/>
<feColorMatrix type="matrix" values="0 0 0 0 0.0627451 0 0 0 0 0.0941176 0 0 0 0 0.156863 0 0 0 0.03 0"/>
<feBlend mode="normal" in2="BackgroundImageFix" result="effect1_dropShadow_647_34539"/>
<feColorMatrix in="SourceAlpha" type="matrix" values="0 0 0 0 0 0 0 0 0 0 0 0 0 0 0 0 0 0 127 0" result="hardAlpha"/>
<feMorphology radius="4" operator="erode" in="SourceAlpha" result="effect2_dropShadow_647_34539"/>
<feOffset dy="12"/>
<feGaussianBlur stdDeviation="8"/>
<feColorMatrix type="matrix" values="0 0 0 0 0.0627451 0 0 0 0 0.0941176 0 0 0 0 0.156863 0 0 0 0.08 0"/>
<feBlend mode="normal" in2="effect1_dropShadow_647_34539" result="effect2_dropShadow_647_34539"/>
<feBlend mode="normal" in="SourceGraphic" in2="effect2_dropShadow_647_34539" result="shape"/>
</filter>
<filter id="filter3_dd_647_34539" x="0" y="166.667" width="139" height="54" filterUnits="userSpaceOnUse" color-interpolation-filters="sRGB">
<feFlood flood-opacity="0" result="BackgroundImageFix"/>
<feColorMatrix in="SourceAlpha" type="matrix" values="0 0 0 0 0 0 0 0 0 0 0 0 0 0 0 0 0 0 127 0" result="hardAlpha"/>
<feMorphology radius="2" operator="erode" in="SourceAlpha" result="effect1_dropShadow_647_34539"/>
<feOffset dy="4"/>
<feGaussianBlur stdDeviation="3"/>
<feColorMatrix type="matrix" values="0 0 0 0 0.0627451 0 0 0 0 0.0941176 0 0 0 0 0.156863 0 0 0 0.03 0"/>
<feBlend mode="normal" in2="BackgroundImageFix" result="effect1_dropShadow_647_34539"/>
<feColorMatrix in="SourceAlpha" type="matrix" values="0 0 0 0 0 0 0 0 0 0 0 0 0 0 0 0 0 0 127 0" result="hardAlpha"/>
<feMorphology radius="4" operator="erode" in="SourceAlpha" result="effect2_dropShadow_647_34539"/>
<feOffset dy="12"/>
<feGaussianBlur stdDeviation="8"/>
<feColorMatrix type="matrix" values="0 0 0 0 0.0627451 0 0 0 0 0.0941176 0 0 0 0 0.156863 0 0 0 0.08 0"/>
<feBlend mode="normal" in2="effect1_dropShadow_647_34539" result="effect2_dropShadow_647_34539"/>
<feBlend mode="normal" in="SourceGraphic" in2="effect2_dropShadow_647_34539" result="shape"/>
</filter>
<filter id="filter4_dd_647_34539" x="24" y="115.667" width="104" height="54" filterUnits="userSpaceOnUse" color-interpolation-filters="sRGB">
<feFlood flood-opacity="0" result="BackgroundImageFix"/>
<feColorMatrix in="SourceAlpha" type="matrix" values="0 0 0 0 0 0 0 0 0 0 0 0 0 0 0 0 0 0 127 0" result="hardAlpha"/>
<feMorphology radius="2" operator="erode" in="SourceAlpha" result="effect1_dropShadow_647_34539"/>
<feOffset dy="4"/>
<feGaussianBlur stdDeviation="3"/>
<feColorMatrix type="matrix" values="0 0 0 0 0.0627451 0 0 0 0 0.0941176 0 0 0 0 0.156863 0 0 0 0.03 0"/>
<feBlend mode="normal" in2="BackgroundImageFix" result="effect1_dropShadow_647_34539"/>
<feColorMatrix in="SourceAlpha" type="matrix" values="0 0 0 0 0 0 0 0 0 0 0 0 0 0 0 0 0 0 127 0" result="hardAlpha"/>
<feMorphology radius="4" operator="erode" in="SourceAlpha" result="effect2_dropShadow_647_34539"/>
<feOffset dy="12"/>
<feGaussianBlur stdDeviation="8"/>
<feColorMatrix type="matrix" values="0 0 0 0 0.0627451 0 0 0 0 0.0941176 0 0 0 0 0.156863 0 0 0 0.08 0"/>
<feBlend mode="normal" in2="effect1_dropShadow_647_34539" result="effect2_dropShadow_647_34539"/>
<feBlend mode="normal" in="SourceGraphic" in2="effect2_dropShadow_647_34539" result="shape"/>
</filter>
<filter id="filter5_dd_647_34539" x="52" y="69.667" width="96" height="54" filterUnits="userSpaceOnUse" color-interpolation-filters="sRGB">
<feFlood flood-opacity="0" result="BackgroundImageFix"/>
<feColorMatrix in="SourceAlpha" type="matrix" values="0 0 0 0 0 0 0 0 0 0 0 0 0 0 0 0 0 0 127 0" result="hardAlpha"/>
<feMorphology radius="2" operator="erode" in="SourceAlpha" result="effect1_dropShadow_647_34539"/>
<feOffset dy="4"/>
<feGaussianBlur stdDeviation="3"/>
<feColorMatrix type="matrix" values="0 0 0 0 0.0627451 0 0 0 0 0.0941176 0 0 0 0 0.156863 0 0 0 0.03 0"/>
<feBlend mode="normal" in2="BackgroundImageFix" result="effect1_dropShadow_647_34539"/>
<feColorMatrix in="SourceAlpha" type="matrix" values="0 0 0 0 0 0 0 0 0 0 0 0 0 0 0 0 0 0 127 0" result="hardAlpha"/>
<feMorphology radius="4" operator="erode" in="SourceAlpha" result="effect2_dropShadow_647_34539"/>
<feOffset dy="12"/>
<feGaussianBlur stdDeviation="8"/>
<feColorMatrix type="matrix" values="0 0 0 0 0.0627451 0 0 0 0 0.0941176 0 0 0 0 0.156863 0 0 0 0.08 0"/>
<feBlend mode="normal" in2="effect1_dropShadow_647_34539" result="effect2_dropShadow_647_34539"/>
<feBlend mode="normal" in="SourceGraphic" in2="effect2_dropShadow_647_34539" result="shape"/>
</filter>
<filter id="filter6_dd_647_34539" x="316" y="77.667" width="122" height="54" filterUnits="userSpaceOnUse" color-interpolation-filters="sRGB">
<feFlood flood-opacity="0" result="BackgroundImageFix"/>
<feColorMatrix in="SourceAlpha" type="matrix" values="0 0 0 0 0 0 0 0 0 0 0 0 0 0 0 0 0 0 127 0" result="hardAlpha"/>
<feMorphology radius="2" operator="erode" in="SourceAlpha" result="effect1_dropShadow_647_34539"/>
<feOffset dy="4"/>
<feGaussianBlur stdDeviation="3"/>
<feColorMatrix type="matrix" values="0 0 0 0 0.0627451 0 0 0 0 0.0941176 0 0 0 0 0.156863 0 0 0 0.03 0"/>
<feBlend mode="normal" in2="BackgroundImageFix" result="effect1_dropShadow_647_34539"/>
<feColorMatrix in="SourceAlpha" type="matrix" values="0 0 0 0 0 0 0 0 0 0 0 0 0 0 0 0 0 0 127 0" result="hardAlpha"/>
<feMorphology radius="4" operator="erode" in="SourceAlpha" result="effect2_dropShadow_647_34539"/>
<feOffset dy="12"/>
<feGaussianBlur stdDeviation="8"/>
<feColorMatrix type="matrix" values="0 0 0 0 0.0627451 0 0 0 0 0.0941176 0 0 0 0 0.156863 0 0 0 0.08 0"/>
<feBlend mode="normal" in2="effect1_dropShadow_647_34539" result="effect2_dropShadow_647_34539"/>
<feBlend mode="normal" in="SourceGraphic" in2="effect2_dropShadow_647_34539" result="shape"/>
</filter>
<filter id="filter7_dd_647_34539" x="281" y="38.667" width="128" height="54" filterUnits="userSpaceOnUse" color-interpolation-filters="sRGB">
<feFlood flood-opacity="0" result="BackgroundImageFix"/>
<feColorMatrix in="SourceAlpha" type="matrix" values="0 0 0 0 0 0 0 0 0 0 0 0 0 0 0 0 0 0 127 0" result="hardAlpha"/>
<feMorphology radius="2" operator="erode" in="SourceAlpha" result="effect1_dropShadow_647_34539"/>
<feOffset dy="4"/>
<feGaussianBlur stdDeviation="3"/>
<feColorMatrix type="matrix" values="0 0 0 0 0.0627451 0 0 0 0 0.0941176 0 0 0 0 0.156863 0 0 0 0.03 0"/>
<feBlend mode="normal" in2="BackgroundImageFix" result="effect1_dropShadow_647_34539"/>
<feColorMatrix in="SourceAlpha" type="matrix" values="0 0 0 0 0 0 0 0 0 0 0 0 0 0 0 0 0 0 127 0" result="hardAlpha"/>
<feMorphology radius="4" operator="erode" in="SourceAlpha" result="effect2_dropShadow_647_34539"/>
<feOffset dy="12"/>
<feGaussianBlur stdDeviation="8"/>
<feColorMatrix type="matrix" values="0 0 0 0 0.0627451 0 0 0 0 0.0941176 0 0 0 0 0.156863 0 0 0 0.08 0"/>
<feBlend mode="normal" in2="effect1_dropShadow_647_34539" result="effect2_dropShadow_647_34539"/>
<feBlend mode="normal" in="SourceGraphic" in2="effect2_dropShadow_647_34539" result="shape"/>
</filter>
<filter id="filter8_dd_647_34539" x="325" y="122.667" width="122" height="54" filterUnits="userSpaceOnUse" color-interpolation-filters="sRGB">
<feFlood flood-opacity="0" result="BackgroundImageFix"/>
<feColorMatrix in="SourceAlpha" type="matrix" values="0 0 0 0 0 0 0 0 0 0 0 0 0 0 0 0 0 0 127 0" result="hardAlpha"/>
<feMorphology radius="2" operator="erode" in="SourceAlpha" result="effect1_dropShadow_647_34539"/>
<feOffset dy="4"/>
<feGaussianBlur stdDeviation="3"/>
<feColorMatrix type="matrix" values="0 0 0 0 0.0627451 0 0 0 0 0.0941176 0 0 0 0 0.156863 0 0 0 0.03 0"/>
<feBlend mode="normal" in2="BackgroundImageFix" result="effect1_dropShadow_647_34539"/>
<feColorMatrix in="SourceAlpha" type="matrix" values="0 0 0 0 0 0 0 0 0 0 0 0 0 0 0 0 0 0 127 0" result="hardAlpha"/>
<feMorphology radius="4" operator="erode" in="SourceAlpha" result="effect2_dropShadow_647_34539"/>
<feOffset dy="12"/>
<feGaussianBlur stdDeviation="8"/>
<feColorMatrix type="matrix" values="0 0 0 0 0.0627451 0 0 0 0 0.0941176 0 0 0 0 0.156863 0 0 0 0.08 0"/>
<feBlend mode="normal" in2="effect1_dropShadow_647_34539" result="effect2_dropShadow_647_34539"/>
<feBlend mode="normal" in="SourceGraphic" in2="effect2_dropShadow_647_34539" result="shape"/>
</filter>
<filter id="filter9_dd_647_34539" x="309" y="192.667" width="110" height="54" filterUnits="userSpaceOnUse" color-interpolation-filters="sRGB">
<feFlood flood-opacity="0" result="BackgroundImageFix"/>
<feColorMatrix in="SourceAlpha" type="matrix" values="0 0 0 0 0 0 0 0 0 0 0 0 0 0 0 0 0 0 127 0" result="hardAlpha"/>
<feMorphology radius="2" operator="erode" in="SourceAlpha" result="effect1_dropShadow_647_34539"/>
<feOffset dy="4"/>
<feGaussianBlur stdDeviation="3"/>
<feColorMatrix type="matrix" values="0 0 0 0 0.0627451 0 0 0 0 0.0941176 0 0 0 0 0.156863 0 0 0 0.03 0"/>
<feBlend mode="normal" in2="BackgroundImageFix" result="effect1_dropShadow_647_34539"/>
<feColorMatrix in="SourceAlpha" type="matrix" values="0 0 0 0 0 0 0 0 0 0 0 0 0 0 0 0 0 0 127 0" result="hardAlpha"/>
<feMorphology radius="4" operator="erode" in="SourceAlpha" result="effect2_dropShadow_647_34539"/>
<feOffset dy="12"/>
<feGaussianBlur stdDeviation="8"/>
<feColorMatrix type="matrix" values="0 0 0 0 0.0627451 0 0 0 0 0.0941176 0 0 0 0 0.156863 0 0 0 0.08 0"/>
<feBlend mode="normal" in2="effect1_dropShadow_647_34539" result="effect2_dropShadow_647_34539"/>
<feBlend mode="normal" in="SourceGraphic" in2="effect2_dropShadow_647_34539" result="shape"/>
</filter>
<filter id="filter10_dd_647_34539" x="235" y="257.667" width="136" height="54" filterUnits="userSpaceOnUse" color-interpolation-filters="sRGB">
<feFlood flood-opacity="0" result="BackgroundImageFix"/>
<feColorMatrix in="SourceAlpha" type="matrix" values="0 0 0 0 0 0 0 0 0 0 0 0 0 0 0 0 0 0 127 0" result="hardAlpha"/>
<feMorphology radius="2" operator="erode" in="SourceAlpha" result="effect1_dropShadow_647_34539"/>
<feOffset dy="4"/>
<feGaussianBlur stdDeviation="3"/>
<feColorMatrix type="matrix" values="0 0 0 0 0.0627451 0 0 0 0 0.0941176 0 0 0 0 0.156863 0 0 0 0.03 0"/>
<feBlend mode="normal" in2="BackgroundImageFix" result="effect1_dropShadow_647_34539"/>
<feColorMatrix in="SourceAlpha" type="matrix" values="0 0 0 0 0 0 0 0 0 0 0 0 0 0 0 0 0 0 127 0" result="hardAlpha"/>
<feMorphology radius="4" operator="erode" in="SourceAlpha" result="effect2_dropShadow_647_34539"/>
<feOffset dy="12"/>
<feGaussianBlur stdDeviation="8"/>
<feColorMatrix type="matrix" values="0 0 0 0 0.0627451 0 0 0 0 0.0941176 0 0 0 0 0.156863 0 0 0 0.08 0"/>
<feBlend mode="normal" in2="effect1_dropShadow_647_34539" result="effect2_dropShadow_647_34539"/>
<feBlend mode="normal" in="SourceGraphic" in2="effect2_dropShadow_647_34539" result="shape"/>
</filter>
<filter id="filter11_dd_647_34539" x="183" y="0.666992" width="123" height="60" filterUnits="userSpaceOnUse" color-interpolation-filters="sRGB">
<feFlood flood-opacity="0" result="BackgroundImageFix"/>
<feColorMatrix in="SourceAlpha" type="matrix" values="0 0 0 0 0 0 0 0 0 0 0 0 0 0 0 0 0 0 127 0" result="hardAlpha"/>
<feMorphology radius="2" operator="erode" in="SourceAlpha" result="effect1_dropShadow_647_34539"/>
<feOffset dy="4"/>
<feGaussianBlur stdDeviation="3"/>
<feColorMatrix type="matrix" values="0 0 0 0 0.0627451 0 0 0 0 0.0941176 0 0 0 0 0.156863 0 0 0 0.03 0"/>
<feBlend mode="normal" in2="BackgroundImageFix" result="effect1_dropShadow_647_34539"/>
<feColorMatrix in="SourceAlpha" type="matrix" values="0 0 0 0 0 0 0 0 0 0 0 0 0 0 0 0 0 0 127 0" result="hardAlpha"/>
<feMorphology radius="4" operator="erode" in="SourceAlpha" result="effect2_dropShadow_647_34539"/>
<feOffset dy="12"/>
<feGaussianBlur stdDeviation="8"/>
<feColorMatrix type="matrix" values="0 0 0 0 0.0627451 0 0 0 0 0.0941176 0 0 0 0 0.156863 0 0 0 0.08 0"/>
<feBlend mode="normal" in2="effect1_dropShadow_647_34539" result="effect2_dropShadow_647_34539"/>
<feBlend mode="normal" in="SourceGraphic" in2="effect2_dropShadow_647_34539" result="shape"/>
</filter>
<clipPath id="clip0_647_34539">
<rect width="16" height="6" fill="white" transform="matrix(0 -1 1 0 186 277.667)"/>
</clipPath>
<clipPath id="clip1_647_34539">
<rect width="16" height="6" fill="white" transform="matrix(0 -1 1 0 135 238.667)"/>
</clipPath>
<clipPath id="clip2_647_34539">
<rect width="16" height="6" fill="white" transform="matrix(0 -1 1 0 177 52.667)"/>
</clipPath>
<clipPath id="clip3_647_34539">
<rect width="16" height="6" fill="white" transform="matrix(0 -1 1 0 121 189.667)"/>
</clipPath>
<clipPath id="clip4_647_34539">
<rect width="16" height="6" fill="white" transform="matrix(0 -1 1 0 110 138.667)"/>
</clipPath>
<clipPath id="clip5_647_34539">
<rect width="16" height="6" fill="white" transform="matrix(0 -1 1 0 130 92.667)"/>
</clipPath>
</defs>
</svg>
