<svg width="429" height="214" viewBox="0 0 429 214" fill="none" xmlns="http://www.w3.org/2000/svg">
<path d="M428.903 213.843C428.903 176.002 418.842 138.838 399.748 106.146L344.22 138.456C357.585 161.34 364.628 187.354 364.628 213.843H428.903Z" fill="#D44C4C"/>
<path d="M400.311 107.114C381.389 74.3228 354.088 47.1303 321.195 28.3125L289.232 83.9711C312.258 97.1435 331.368 116.178 344.614 139.132L400.311 107.114Z" fill="#DF873A"/>
<path d="M321.251 28.3475C288.364 9.51981 251.06 -0.260424 213.147 0.00527272L213.599 64.1568C240.137 63.9708 266.25 70.817 289.271 83.9964L321.251 28.3475Z" fill="#ECB004"/>
<path d="M107.227 28.8281C74.4238 47.8019 47.2527 75.1239 28.4873 108.005L84.337 139.758C97.4727 116.741 116.492 97.6159 139.455 84.3342L107.227 28.8281Z" fill="#83C605"/>
<path d="M214.653 1.05798C214.653 0.473312 214.178 -0.000928403 213.592 0.00196631C176.399 0.185763 139.894 10.0305 107.67 28.5674C107.162 28.8593 106.991 29.508 107.286 30.0131L138.588 83.6073C138.883 84.1124 139.533 84.2827 140.041 83.9918C162.438 71.1709 187.773 64.3385 213.592 64.1562C214.178 64.1521 214.653 63.6785 214.653 63.0939V1.05798Z" fill="#BCD103"/>
<path d="M29.5786 106.109C10.478 138.797 0.410012 175.959 0.402344 213.8L64.6774 213.813C64.6827 187.324 71.7303 161.311 85.1007 138.43L29.5786 106.109Z" fill="#1C8D13"/>
</svg>
