<svg width="574" height="435" viewBox="0 0 574 435" fill="none" xmlns="http://www.w3.org/2000/svg">
<g filter="url(#filter0_d_684_29609)">
<rect x="3" y="2.66699" width="568" height="428" rx="8" fill="white"/>
<rect x="3.5" y="3.16699" width="567" height="427" rx="7.5" stroke="#E7E7E7"/>
<path d="M37.48 31.767V33.627H33.78V45.667H31.5V33.627H27.78V31.767H37.48ZM42.0691 36.247C42.4024 35.687 42.8424 35.2537 43.3891 34.947C43.9491 34.627 44.6091 34.467 45.3691 34.467V36.827H44.7891C43.8957 36.827 43.2157 37.0537 42.7491 37.507C42.2957 37.9603 42.0691 38.747 42.0691 39.867V45.667H39.7891V34.647H42.0691V36.247ZM46.7048 40.107C46.7048 39.0003 46.9315 38.0203 47.3848 37.167C47.8515 36.3137 48.4782 35.6537 49.2648 35.187C50.0648 34.707 50.9448 34.467 51.9048 34.467C52.7715 34.467 53.5248 34.6403 54.1648 34.987C54.8182 35.3203 55.3382 35.7403 55.7248 36.247V34.647H58.0248V45.667H55.7248V44.027C55.3382 44.547 54.8115 44.9803 54.1448 45.327C53.4782 45.6737 52.7182 45.847 51.8648 45.847C50.9182 45.847 50.0515 45.607 49.2648 45.127C48.4782 44.6337 47.8515 43.9537 47.3848 43.087C46.9315 42.207 46.7048 41.2137 46.7048 40.107ZM55.7248 40.147C55.7248 39.387 55.5648 38.727 55.2448 38.167C54.9382 37.607 54.5315 37.1803 54.0248 36.887C53.5182 36.5937 52.9715 36.447 52.3848 36.447C51.7982 36.447 51.2515 36.5937 50.7448 36.887C50.2382 37.167 49.8248 37.587 49.5048 38.147C49.1982 38.6937 49.0448 39.347 49.0448 40.107C49.0448 40.867 49.1982 41.5337 49.5048 42.107C49.8248 42.6803 50.2382 43.1203 50.7448 43.427C51.2648 43.7203 51.8115 43.867 52.3848 43.867C52.9715 43.867 53.5182 43.7203 54.0248 43.427C54.5315 43.1337 54.9382 42.707 55.2448 42.147C55.5648 41.5737 55.7248 40.907 55.7248 40.147ZM60.2595 40.107C60.2595 39.0003 60.4862 38.0203 60.9395 37.167C61.4062 36.3137 62.0329 35.6537 62.8195 35.187C63.6195 34.707 64.5062 34.467 65.4795 34.467C66.1995 34.467 66.9062 34.627 67.5995 34.947C68.3062 35.2537 68.8662 35.667 69.2795 36.187V30.867H71.5795V45.667H69.2795V44.007C68.9062 44.5403 68.3862 44.9803 67.7195 45.327C67.0662 45.6737 66.3129 45.847 65.4595 45.847C64.4995 45.847 63.6195 45.607 62.8195 45.127C62.0329 44.6337 61.4062 43.9537 60.9395 43.087C60.4862 42.207 60.2595 41.2137 60.2595 40.107ZM69.2795 40.147C69.2795 39.387 69.1195 38.727 68.7995 38.167C68.4929 37.607 68.0862 37.1803 67.5795 36.887C67.0729 36.5937 66.5262 36.447 65.9395 36.447C65.3529 36.447 64.8062 36.5937 64.2995 36.887C63.7929 37.167 63.3795 37.587 63.0595 38.147C62.7529 38.6937 62.5995 39.347 62.5995 40.107C62.5995 40.867 62.7529 41.5337 63.0595 42.107C63.3795 42.6803 63.7929 43.1203 64.2995 43.427C64.8195 43.7203 65.3662 43.867 65.9395 43.867C66.5262 43.867 67.0729 43.7203 67.5795 43.427C68.0862 43.1337 68.4929 42.707 68.7995 42.147C69.1195 41.5737 69.2795 40.907 69.2795 40.147ZM84.6742 39.887C84.6742 40.3003 84.6476 40.6737 84.5942 41.007H76.1742C76.2409 41.887 76.5676 42.5937 77.1542 43.127C77.7409 43.6603 78.4609 43.927 79.3142 43.927C80.5409 43.927 81.4076 43.4137 81.9142 42.387H84.3742C84.0409 43.4003 83.4342 44.2337 82.5542 44.887C81.6876 45.527 80.6076 45.847 79.3142 45.847C78.2609 45.847 77.3142 45.6137 76.4742 45.147C75.6476 44.667 74.9942 44.0003 74.5142 43.147C74.0476 42.2803 73.8142 41.2803 73.8142 40.147C73.8142 39.0137 74.0409 38.0203 74.4942 37.167C74.9609 36.3003 75.6076 35.6337 76.4342 35.167C77.2742 34.7003 78.2342 34.467 79.3142 34.467C80.3542 34.467 81.2809 34.6937 82.0942 35.147C82.9076 35.6003 83.5409 36.2403 83.9942 37.067C84.4476 37.8803 84.6742 38.8203 84.6742 39.887ZM82.2942 39.167C82.2809 38.327 81.9809 37.6537 81.3942 37.147C80.8076 36.6403 80.0809 36.387 79.2142 36.387C78.4276 36.387 77.7542 36.6403 77.1942 37.147C76.6342 37.6403 76.3009 38.3137 76.1942 39.167H82.2942ZM91.3533 40.147C91.3533 39.0137 91.5799 38.0203 92.0333 37.167C92.4999 36.3003 93.1399 35.6337 93.9533 35.167C94.7666 34.7003 95.6999 34.467 96.7533 34.467C98.0866 34.467 99.1866 34.787 100.053 35.427C100.933 36.0537 101.527 36.9537 101.833 38.127H99.3733C99.1733 37.5803 98.8533 37.1537 98.4133 36.847C97.9733 36.5403 97.4199 36.387 96.7533 36.387C95.8199 36.387 95.0733 36.7203 94.5133 37.387C93.9666 38.0403 93.6933 38.9603 93.6933 40.147C93.6933 41.3337 93.9666 42.2603 94.5133 42.927C95.0733 43.5937 95.8199 43.927 96.7533 43.927C98.0733 43.927 98.9466 43.347 99.3733 42.187H101.833C101.513 43.307 100.913 44.2003 100.033 44.867C99.1533 45.5203 98.0599 45.847 96.7533 45.847C95.6999 45.847 94.7666 45.6137 93.9533 45.147C93.1399 44.667 92.4999 44.0003 92.0333 43.147C91.5799 42.2803 91.3533 41.2803 91.3533 40.147ZM103.345 40.107C103.345 39.0003 103.572 38.0203 104.025 37.167C104.492 36.3137 105.119 35.6537 105.905 35.187C106.705 34.707 107.585 34.467 108.545 34.467C109.412 34.467 110.165 34.6403 110.805 34.987C111.459 35.3203 111.979 35.7403 112.365 36.247V34.647H114.665V45.667H112.365V44.027C111.979 44.547 111.452 44.9803 110.785 45.327C110.119 45.6737 109.359 45.847 108.505 45.847C107.559 45.847 106.692 45.607 105.905 45.127C105.119 44.6337 104.492 43.9537 104.025 43.087C103.572 42.207 103.345 41.2137 103.345 40.107ZM112.365 40.147C112.365 39.387 112.205 38.727 111.885 38.167C111.579 37.607 111.172 37.1803 110.665 36.887C110.159 36.5937 109.612 36.447 109.025 36.447C108.439 36.447 107.892 36.5937 107.385 36.887C106.879 37.167 106.465 37.587 106.145 38.147C105.839 38.6937 105.685 39.347 105.685 40.107C105.685 40.867 105.839 41.5337 106.145 42.107C106.465 42.6803 106.879 43.1203 107.385 43.427C107.905 43.7203 108.452 43.867 109.025 43.867C109.612 43.867 110.159 43.7203 110.665 43.427C111.172 43.1337 111.579 42.707 111.885 42.147C112.205 41.5737 112.365 40.907 112.365 40.147ZM119.94 30.867V45.667H117.66V30.867H119.94ZM125.214 30.867V45.667H122.934V30.867H125.214ZM137.402 45.847C136.536 45.847 135.756 45.6937 135.062 45.387C134.382 45.067 133.842 44.6403 133.442 44.107C133.042 43.5603 132.829 42.9537 132.802 42.287H135.162C135.202 42.7537 135.422 43.147 135.822 43.467C136.236 43.7737 136.749 43.927 137.362 43.927C138.002 43.927 138.496 43.807 138.842 43.567C139.202 43.3137 139.382 42.9937 139.382 42.607C139.382 42.1937 139.182 41.887 138.782 41.687C138.396 41.487 137.776 41.267 136.922 41.027C136.096 40.8003 135.422 40.5803 134.902 40.367C134.382 40.1537 133.929 39.827 133.542 39.387C133.169 38.947 132.982 38.367 132.982 37.647C132.982 37.0603 133.156 36.527 133.502 36.047C133.849 35.5537 134.342 35.167 134.982 34.887C135.636 34.607 136.382 34.467 137.222 34.467C138.476 34.467 139.482 34.787 140.242 35.427C141.016 36.0537 141.429 36.9137 141.482 38.007H139.202C139.162 37.5137 138.962 37.1203 138.602 36.827C138.242 36.5337 137.756 36.387 137.142 36.387C136.542 36.387 136.082 36.5003 135.762 36.727C135.442 36.9537 135.282 37.2537 135.282 37.627C135.282 37.9203 135.389 38.167 135.602 38.367C135.816 38.567 136.076 38.727 136.382 38.847C136.689 38.9537 137.142 39.0937 137.742 39.267C138.542 39.4803 139.196 39.7003 139.702 39.927C140.222 40.1403 140.669 40.4603 141.042 40.887C141.416 41.3137 141.609 41.8803 141.622 42.587C141.622 43.2137 141.449 43.7737 141.102 44.267C140.756 44.7603 140.262 45.147 139.622 45.427C138.996 45.707 138.256 45.847 137.402 45.847ZM146.746 36.507V42.607C146.746 43.0203 146.839 43.3203 147.026 43.507C147.226 43.6803 147.559 43.767 148.026 43.767H149.426V45.667H147.626C146.599 45.667 145.813 45.427 145.266 44.947C144.719 44.467 144.446 43.687 144.446 42.607V36.507H143.146V34.647H144.446V31.907H146.746V34.647H149.426V36.507H146.746ZM150.767 40.107C150.767 39.0003 150.994 38.0203 151.447 37.167C151.914 36.3137 152.541 35.6537 153.327 35.187C154.127 34.707 155.007 34.467 155.967 34.467C156.834 34.467 157.587 34.6403 158.227 34.987C158.881 35.3203 159.401 35.7403 159.787 36.247V34.647H162.087V45.667H159.787V44.027C159.401 44.547 158.874 44.9803 158.207 45.327C157.541 45.6737 156.781 45.847 155.927 45.847C154.981 45.847 154.114 45.607 153.327 45.127C152.541 44.6337 151.914 43.9537 151.447 43.087C150.994 42.207 150.767 41.2137 150.767 40.107ZM159.787 40.147C159.787 39.387 159.627 38.727 159.307 38.167C159.001 37.607 158.594 37.1803 158.087 36.887C157.581 36.5937 157.034 36.447 156.447 36.447C155.861 36.447 155.314 36.5937 154.807 36.887C154.301 37.167 153.887 37.587 153.567 38.147C153.261 38.6937 153.107 39.347 153.107 40.107C153.107 40.867 153.261 41.5337 153.567 42.107C153.887 42.6803 154.301 43.1203 154.807 43.427C155.327 43.7203 155.874 43.867 156.447 43.867C157.034 43.867 157.581 43.7203 158.087 43.427C158.594 43.1337 159.001 42.707 159.307 42.147C159.627 41.5737 159.787 40.907 159.787 40.147ZM167.742 36.507V42.607C167.742 43.0203 167.835 43.3203 168.022 43.507C168.222 43.6803 168.555 43.767 169.022 43.767H170.422V45.667H168.622C167.595 45.667 166.809 45.427 166.262 44.947C165.715 44.467 165.442 43.687 165.442 42.607V36.507H164.142V34.647H165.442V31.907H167.742V34.647H170.422V36.507H167.742ZM176.523 45.847C175.657 45.847 174.877 45.6937 174.183 45.387C173.503 45.067 172.963 44.6403 172.563 44.107C172.163 43.5603 171.95 42.9537 171.923 42.287H174.283C174.323 42.7537 174.543 43.147 174.943 43.467C175.357 43.7737 175.87 43.927 176.483 43.927C177.123 43.927 177.617 43.807 177.963 43.567C178.323 43.3137 178.503 42.9937 178.503 42.607C178.503 42.1937 178.303 41.887 177.903 41.687C177.517 41.487 176.897 41.267 176.043 41.027C175.217 40.8003 174.543 40.5803 174.023 40.367C173.503 40.1537 173.05 39.827 172.663 39.387C172.29 38.947 172.103 38.367 172.103 37.647C172.103 37.0603 172.277 36.527 172.623 36.047C172.97 35.5537 173.463 35.167 174.103 34.887C174.757 34.607 175.503 34.467 176.343 34.467C177.597 34.467 178.603 34.787 179.363 35.427C180.137 36.0537 180.55 36.9137 180.603 38.007H178.323C178.283 37.5137 178.083 37.1203 177.723 36.827C177.363 36.5337 176.877 36.387 176.263 36.387C175.663 36.387 175.203 36.5003 174.883 36.727C174.563 36.9537 174.403 37.2537 174.403 37.627C174.403 37.9203 174.51 38.167 174.723 38.367C174.937 38.567 175.197 38.727 175.503 38.847C175.81 38.9537 176.263 39.0937 176.863 39.267C177.663 39.4803 178.317 39.7003 178.823 39.927C179.343 40.1403 179.79 40.4603 180.163 40.887C180.537 41.3137 180.73 41.8803 180.743 42.587C180.743 43.2137 180.57 43.7737 180.223 44.267C179.877 44.7603 179.383 45.147 178.743 45.427C178.117 45.707 177.377 45.847 176.523 45.847Z" fill="#242424"/>
<circle cx="34" cy="80.667" r="7" fill="#142E56"/>
<path d="M59 86.667H57.544L51.688 77.787V86.667H50.232V75.499H51.688L57.544 84.363V75.499H59V86.667ZM69.258 77.899V86.667H67.802V85.371C67.5247 85.819 67.1353 86.171 66.634 86.427C66.1433 86.6723 65.5993 86.795 65.002 86.795C64.3193 86.795 63.706 86.6563 63.162 86.379C62.618 86.091 62.186 85.6643 61.866 85.099C61.5567 84.5337 61.402 83.8457 61.402 83.035V77.899H62.842V82.843C62.842 83.707 63.0607 84.3737 63.498 84.843C63.9353 85.3017 64.5327 85.531 65.29 85.531C66.0687 85.531 66.682 85.291 67.13 84.811C67.578 84.331 67.802 83.6323 67.802 82.715V77.899H69.258ZM82.2604 77.739C82.943 77.739 83.551 77.883 84.0844 78.171C84.6177 78.4483 85.039 78.8697 85.3484 79.435C85.6577 80.0003 85.8124 80.6883 85.8124 81.499V86.667H84.3724V81.707C84.3724 80.8323 84.1537 80.1657 83.7164 79.707C83.2897 79.2377 82.7084 79.003 81.9724 79.003C81.215 79.003 80.6124 79.2483 80.1644 79.739C79.7164 80.219 79.4924 80.9177 79.4924 81.835V86.667H78.0524V81.707C78.0524 80.8323 77.8337 80.1657 77.3964 79.707C76.9697 79.2377 76.3884 79.003 75.6524 79.003C74.895 79.003 74.2924 79.2483 73.8444 79.739C73.3964 80.219 73.1724 80.9177 73.1724 81.835V86.667H71.7164V77.899H73.1724V79.163C73.4604 78.7043 73.8444 78.3523 74.3244 78.107C74.815 77.8617 75.3537 77.739 75.9404 77.739C76.6764 77.739 77.327 77.9043 77.8924 78.235C78.4577 78.5657 78.879 79.051 79.1564 79.691C79.4017 79.0723 79.807 78.5923 80.3724 78.251C80.9377 77.9097 81.567 77.739 82.2604 77.739ZM89.6568 79.531C89.9554 79.0083 90.3928 78.5817 90.9688 78.251C91.5448 77.9203 92.2008 77.755 92.9368 77.755C93.7261 77.755 94.4354 77.9417 95.0648 78.315C95.6941 78.6883 96.1901 79.2163 96.5528 79.899C96.9154 80.571 97.0968 81.355 97.0968 82.251C97.0968 83.1363 96.9154 83.9257 96.5528 84.619C96.1901 85.3123 95.6887 85.851 95.0487 86.235C94.4194 86.619 93.7154 86.811 92.9368 86.811C92.1794 86.811 91.5128 86.6457 90.9368 86.315C90.3714 85.9843 89.9448 85.563 89.6568 85.051V86.667H88.2008V74.827H89.6568V79.531ZM95.6088 82.251C95.6088 81.5897 95.4754 81.0137 95.2088 80.523C94.9421 80.0323 94.5794 79.659 94.1208 79.403C93.6728 79.147 93.1768 79.019 92.6328 79.019C92.0994 79.019 91.6034 79.1523 91.1448 79.419C90.6968 79.675 90.3341 80.0537 90.0568 80.555C89.7901 81.0457 89.6568 81.6163 89.6568 82.267C89.6568 82.9283 89.7901 83.5097 90.0568 84.011C90.3341 84.5017 90.6968 84.8803 91.1448 85.147C91.6034 85.403 92.0994 85.531 92.6328 85.531C93.1768 85.531 93.6728 85.403 94.1208 85.147C94.5794 84.8803 94.9421 84.5017 95.2088 84.011C95.4754 83.5097 95.6088 82.923 95.6088 82.251ZM107.013 81.947C107.013 82.2243 106.997 82.5177 106.965 82.827H99.9573C100.011 83.691 100.304 84.3683 100.837 84.859C101.381 85.339 102.037 85.579 102.805 85.579C103.435 85.579 103.957 85.435 104.373 85.147C104.8 84.8483 105.099 84.4537 105.269 83.963H106.837C106.603 84.8057 106.133 85.4937 105.429 86.027C104.725 86.5497 103.851 86.811 102.805 86.811C101.973 86.811 101.227 86.6243 100.565 86.251C99.9146 85.8777 99.4026 85.3497 99.0293 84.667C98.6559 83.9737 98.4693 83.1737 98.4693 82.267C98.4693 81.3603 98.6506 80.5657 99.0133 79.883C99.3759 79.2003 99.8826 78.6777 100.533 78.315C101.195 77.9417 101.952 77.755 102.805 77.755C103.637 77.755 104.373 77.9363 105.013 78.299C105.653 78.6617 106.144 79.163 106.485 79.803C106.837 80.4323 107.013 81.147 107.013 81.947ZM105.509 81.643C105.509 81.0883 105.387 80.6137 105.141 80.219C104.896 79.8137 104.56 79.5097 104.133 79.307C103.717 79.0937 103.253 78.987 102.741 78.987C102.005 78.987 101.376 79.2217 100.853 79.691C100.341 80.1603 100.048 80.811 99.9733 81.643H105.509ZM110.391 79.323C110.647 78.8217 111.01 78.4323 111.479 78.155C111.959 77.8777 112.54 77.739 113.223 77.739V79.243H112.839C111.207 79.243 110.391 80.1283 110.391 81.899V86.667H108.935V77.899H110.391V79.323ZM122.994 86.811C122.172 86.811 121.426 86.6243 120.754 86.251C120.092 85.8777 119.57 85.3497 119.186 84.667C118.812 83.9737 118.626 83.1737 118.626 82.267C118.626 81.371 118.818 80.5817 119.202 79.899C119.596 79.2057 120.13 78.6777 120.802 78.315C121.474 77.9417 122.226 77.755 123.058 77.755C123.89 77.755 124.642 77.9417 125.314 78.315C125.986 78.6777 126.514 79.2003 126.898 79.883C127.292 80.5657 127.49 81.3603 127.49 82.267C127.49 83.1737 127.287 83.9737 126.882 84.667C126.487 85.3497 125.948 85.8777 125.266 86.251C124.583 86.6243 123.826 86.811 122.994 86.811ZM122.994 85.531C123.516 85.531 124.007 85.4083 124.466 85.163C124.924 84.9177 125.292 84.5497 125.57 84.059C125.858 83.5683 126.002 82.971 126.002 82.267C126.002 81.563 125.863 80.9657 125.586 80.475C125.308 79.9843 124.946 79.6217 124.498 79.387C124.05 79.1417 123.564 79.019 123.042 79.019C122.508 79.019 122.018 79.1417 121.57 79.387C121.132 79.6217 120.78 79.9843 120.514 80.475C120.247 80.9657 120.114 81.563 120.114 82.267C120.114 82.9817 120.242 83.5843 120.498 84.075C120.764 84.5657 121.116 84.9337 121.554 85.179C121.991 85.4137 122.471 85.531 122.994 85.531ZM132.972 79.099H131.132V86.667H129.676V79.099H128.54V77.899H129.676V77.275C129.676 76.2937 129.927 75.579 130.428 75.131C130.94 74.6723 131.756 74.443 132.876 74.443V75.659C132.236 75.659 131.783 75.787 131.516 76.043C131.26 76.2883 131.132 76.699 131.132 77.275V77.899H132.972V79.099ZM138.391 82.267C138.391 81.3603 138.572 80.571 138.935 79.899C139.298 79.2163 139.799 78.6883 140.439 78.315C141.09 77.9417 141.831 77.755 142.663 77.755C143.74 77.755 144.626 78.0163 145.319 78.539C146.023 79.0617 146.487 79.787 146.711 80.715H145.143C144.994 80.1817 144.7 79.7603 144.263 79.451C143.836 79.1417 143.303 78.987 142.663 78.987C141.831 78.987 141.159 79.275 140.647 79.851C140.135 80.4163 139.879 81.2217 139.879 82.267C139.879 83.323 140.135 84.139 140.647 84.715C141.159 85.291 141.831 85.579 142.663 85.579C143.303 85.579 143.836 85.4297 144.263 85.131C144.69 84.8323 144.983 84.4057 145.143 83.851H146.711C146.476 84.747 146.007 85.467 145.303 86.011C144.599 86.5443 143.719 86.811 142.663 86.811C141.831 86.811 141.09 86.6243 140.439 86.251C139.799 85.8777 139.298 85.3497 138.935 84.667C138.572 83.9843 138.391 83.1843 138.391 82.267ZM148.11 82.251C148.11 81.355 148.291 80.571 148.654 79.899C149.017 79.2163 149.513 78.6883 150.142 78.315C150.782 77.9417 151.491 77.755 152.27 77.755C153.038 77.755 153.705 77.9203 154.27 78.251C154.835 78.5817 155.257 78.9977 155.534 79.499V77.899H157.006V86.667H155.534V85.035C155.246 85.547 154.814 85.9737 154.238 86.315C153.673 86.6457 153.011 86.811 152.254 86.811C151.475 86.811 150.771 86.619 150.142 86.235C149.513 85.851 149.017 85.3123 148.654 84.619C148.291 83.9257 148.11 83.1363 148.11 82.251ZM155.534 82.267C155.534 81.6057 155.401 81.0297 155.134 80.539C154.867 80.0483 154.505 79.675 154.046 79.419C153.598 79.1523 153.102 79.019 152.558 79.019C152.014 79.019 151.518 79.147 151.07 79.403C150.622 79.659 150.265 80.0323 149.998 80.523C149.731 81.0137 149.598 81.5897 149.598 82.251C149.598 82.923 149.731 83.5097 149.998 84.011C150.265 84.5017 150.622 84.8803 151.07 85.147C151.518 85.403 152.014 85.531 152.558 85.531C153.102 85.531 153.598 85.403 154.046 85.147C154.505 84.8803 154.867 84.5017 155.134 84.011C155.401 83.5097 155.534 82.9283 155.534 82.267ZM160.922 74.827V86.667H159.466V74.827H160.922ZM164.86 74.827V86.667H163.404V74.827H164.86ZM170.445 86.811C169.773 86.811 169.171 86.699 168.637 86.475C168.104 86.2403 167.683 85.9203 167.373 85.515C167.064 85.099 166.893 84.6243 166.861 84.091H168.365C168.408 84.5283 168.611 84.8857 168.973 85.163C169.347 85.4403 169.832 85.579 170.429 85.579C170.984 85.579 171.421 85.4563 171.741 85.211C172.061 84.9657 172.221 84.6563 172.221 84.283C172.221 83.899 172.051 83.6163 171.709 83.435C171.368 83.243 170.84 83.0563 170.125 82.875C169.475 82.7043 168.941 82.5337 168.525 82.363C168.12 82.1817 167.768 81.9203 167.469 81.579C167.181 81.227 167.037 80.7683 167.037 80.203C167.037 79.755 167.171 79.3443 167.437 78.971C167.704 78.5977 168.083 78.3043 168.573 78.091C169.064 77.867 169.624 77.755 170.253 77.755C171.224 77.755 172.008 78.0003 172.605 78.491C173.203 78.9817 173.523 79.6537 173.565 80.507H172.109C172.077 80.0483 171.891 79.6803 171.549 79.403C171.219 79.1257 170.771 78.987 170.205 78.987C169.683 78.987 169.267 79.099 168.957 79.323C168.648 79.547 168.493 79.8403 168.493 80.203C168.493 80.491 168.584 80.731 168.765 80.923C168.957 81.1043 169.192 81.2537 169.469 81.371C169.757 81.4777 170.152 81.6003 170.653 81.739C171.283 81.9097 171.795 82.0803 172.189 82.251C172.584 82.411 172.92 82.6563 173.197 82.987C173.485 83.3177 173.635 83.7497 173.645 84.283C173.645 84.763 173.512 85.195 173.245 85.579C172.979 85.963 172.6 86.267 172.109 86.491C171.629 86.7043 171.075 86.811 170.445 86.811Z" fill="#242424"/>
<circle cx="210" cy="80.667" r="7" fill="#9FC4FF"/>
<path d="M232.824 84.187H227.96L227.064 86.667H225.528L229.56 75.579H231.24L235.256 86.667H233.72L232.824 84.187ZM232.408 83.003L230.392 77.371L228.376 83.003H232.408ZM236.469 82.267C236.469 81.3603 236.651 80.571 237.013 79.899C237.376 79.2163 237.877 78.6883 238.517 78.315C239.168 77.9417 239.909 77.755 240.741 77.755C241.819 77.755 242.704 78.0163 243.397 78.539C244.101 79.0617 244.565 79.787 244.789 80.715H243.221C243.072 80.1817 242.779 79.7603 242.341 79.451C241.915 79.1417 241.381 78.987 240.741 78.987C239.909 78.987 239.237 79.275 238.725 79.851C238.213 80.4163 237.957 81.2217 237.957 82.267C237.957 83.323 238.213 84.139 238.725 84.715C239.237 85.291 239.909 85.579 240.741 85.579C241.381 85.579 241.915 85.4297 242.341 85.131C242.768 84.8323 243.061 84.4057 243.221 83.851H244.789C244.555 84.747 244.085 85.467 243.381 86.011C242.677 86.5443 241.797 86.811 240.741 86.811C239.909 86.811 239.168 86.6243 238.517 86.251C237.877 85.8777 237.376 85.3497 237.013 84.667C236.651 83.9843 236.469 83.1843 236.469 82.267ZM248.508 79.099V84.267C248.508 84.6937 248.599 84.9977 248.78 85.179C248.961 85.3497 249.276 85.435 249.724 85.435H250.796V86.667H249.484C248.673 86.667 248.065 86.4803 247.66 86.107C247.255 85.7337 247.052 85.1203 247.052 84.267V79.099H245.916V77.899H247.052V75.691H248.508V77.899H250.796V79.099H248.508ZM253.312 76.475C253.035 76.475 252.8 76.379 252.608 76.187C252.416 75.995 252.32 75.7603 252.32 75.483C252.32 75.2057 252.416 74.971 252.608 74.779C252.8 74.587 253.035 74.491 253.312 74.491C253.579 74.491 253.803 74.587 253.984 74.779C254.176 74.971 254.272 75.2057 254.272 75.483C254.272 75.7603 254.176 75.995 253.984 76.187C253.803 76.379 253.579 76.475 253.312 76.475ZM254.016 77.899V86.667H252.56V77.899H254.016ZM260.322 86.811C259.5 86.811 258.754 86.6243 258.082 86.251C257.42 85.8777 256.898 85.3497 256.514 84.667C256.14 83.9737 255.954 83.1737 255.954 82.267C255.954 81.371 256.146 80.5817 256.53 79.899C256.924 79.2057 257.458 78.6777 258.13 78.315C258.802 77.9417 259.554 77.755 260.386 77.755C261.218 77.755 261.97 77.9417 262.642 78.315C263.314 78.6777 263.842 79.2003 264.226 79.883C264.62 80.5657 264.818 81.3603 264.818 82.267C264.818 83.1737 264.615 83.9737 264.21 84.667C263.815 85.3497 263.276 85.8777 262.594 86.251C261.911 86.6243 261.154 86.811 260.322 86.811ZM260.322 85.531C260.844 85.531 261.335 85.4083 261.794 85.163C262.252 84.9177 262.62 84.5497 262.898 84.059C263.186 83.5683 263.33 82.971 263.33 82.267C263.33 81.563 263.191 80.9657 262.914 80.475C262.636 79.9843 262.274 79.6217 261.826 79.387C261.378 79.1417 260.892 79.019 260.37 79.019C259.836 79.019 259.346 79.1417 258.898 79.387C258.46 79.6217 258.108 79.9843 257.842 80.475C257.575 80.9657 257.442 81.563 257.442 82.267C257.442 82.9817 257.57 83.5843 257.826 84.075C258.092 84.5657 258.444 84.9337 258.882 85.179C259.319 85.4137 259.799 85.531 260.322 85.531ZM271.004 77.739C272.071 77.739 272.935 78.0643 273.596 78.715C274.257 79.355 274.588 80.283 274.588 81.499V86.667H273.148V81.707C273.148 80.8323 272.929 80.1657 272.492 79.707C272.055 79.2377 271.457 79.003 270.7 79.003C269.932 79.003 269.319 79.243 268.86 79.723C268.412 80.203 268.188 80.9017 268.188 81.819V86.667H266.732V77.899H268.188V79.147C268.476 78.699 268.865 78.3523 269.356 78.107C269.857 77.8617 270.407 77.739 271.004 77.739ZM283.008 79.099V84.267C283.008 84.6937 283.099 84.9977 283.28 85.179C283.461 85.3497 283.776 85.435 284.224 85.435H285.296V86.667H283.984C283.173 86.667 282.565 86.4803 282.16 86.107C281.755 85.7337 281.552 85.1203 281.552 84.267V79.099H280.416V77.899H281.552V75.691H283.008V77.899H285.296V79.099H283.008ZM286.516 82.251C286.516 81.355 286.697 80.571 287.06 79.899C287.423 79.2163 287.919 78.6883 288.548 78.315C289.188 77.9417 289.897 77.755 290.676 77.755C291.444 77.755 292.111 77.9203 292.676 78.251C293.241 78.5817 293.663 78.9977 293.94 79.499V77.899H295.412V86.667H293.94V85.035C293.652 85.547 293.22 85.9737 292.644 86.315C292.079 86.6457 291.417 86.811 290.66 86.811C289.881 86.811 289.177 86.619 288.548 86.235C287.919 85.851 287.423 85.3123 287.06 84.619C286.697 83.9257 286.516 83.1363 286.516 82.251ZM293.94 82.267C293.94 81.6057 293.807 81.0297 293.54 80.539C293.273 80.0483 292.911 79.675 292.452 79.419C292.004 79.1523 291.508 79.019 290.964 79.019C290.42 79.019 289.924 79.147 289.476 79.403C289.028 79.659 288.671 80.0323 288.404 80.523C288.137 81.0137 288.004 81.5897 288.004 82.251C288.004 82.923 288.137 83.5097 288.404 84.011C288.671 84.5017 289.028 84.8803 289.476 85.147C289.924 85.403 290.42 85.531 290.964 85.531C291.508 85.531 292.004 85.403 292.452 85.147C292.911 84.8803 293.273 84.5017 293.54 84.011C293.807 83.5097 293.94 82.9283 293.94 82.267ZM302.769 86.667L299.329 82.795V86.667H297.873V74.827H299.329V81.787L302.705 77.899H304.737L300.609 82.267L304.753 86.667H302.769ZM314.107 81.947C314.107 82.2243 314.091 82.5177 314.059 82.827H307.051C307.104 83.691 307.398 84.3683 307.931 84.859C308.475 85.339 309.131 85.579 309.899 85.579C310.528 85.579 311.051 85.435 311.467 85.147C311.894 84.8483 312.192 84.4537 312.363 83.963H313.931C313.696 84.8057 313.227 85.4937 312.523 86.027C311.819 86.5497 310.944 86.811 309.899 86.811C309.067 86.811 308.32 86.6243 307.659 86.251C307.008 85.8777 306.496 85.3497 306.123 84.667C305.75 83.9737 305.563 83.1737 305.563 82.267C305.563 81.3603 305.744 80.5657 306.107 79.883C306.47 79.2003 306.976 78.6777 307.627 78.315C308.288 77.9417 309.046 77.755 309.899 77.755C310.731 77.755 311.467 77.9363 312.107 78.299C312.747 78.6617 313.238 79.163 313.579 79.803C313.931 80.4323 314.107 81.147 314.107 81.947ZM312.603 81.643C312.603 81.0883 312.48 80.6137 312.235 80.219C311.99 79.8137 311.654 79.5097 311.227 79.307C310.811 79.0937 310.347 78.987 309.835 78.987C309.099 78.987 308.47 79.2217 307.947 79.691C307.435 80.1603 307.142 80.811 307.067 81.643H312.603ZM320.301 77.739C321.368 77.739 322.232 78.0643 322.893 78.715C323.554 79.355 323.885 80.283 323.885 81.499V86.667H322.445V81.707C322.445 80.8323 322.226 80.1657 321.789 79.707C321.352 79.2377 320.754 79.003 319.997 79.003C319.229 79.003 318.616 79.243 318.157 79.723C317.709 80.203 317.485 80.9017 317.485 81.819V86.667H316.029V77.899H317.485V79.147C317.773 78.699 318.162 78.3523 318.653 78.107C319.154 77.8617 319.704 77.739 320.301 77.739Z" fill="#242424"/>
<path d="M396.654 319.262C387.758 335.568 374.978 349.428 359.445 359.615C343.913 369.802 326.109 376.001 307.608 377.664C289.108 379.326 270.484 376.4 253.384 369.145C236.285 361.89 221.239 350.53 209.578 336.071C197.918 321.612 190.004 304.501 186.536 286.253C183.068 268.005 184.155 249.183 189.698 231.455C195.242 213.727 205.073 197.64 218.319 184.618C231.566 171.597 247.819 162.043 265.639 156.804L297.5 265.167L396.654 319.262Z" fill="#142E56"/>
<path d="M268.705 168.984C287.728 163.289 308.013 163.363 326.994 169.196C345.975 175.03 362.8 186.361 375.341 201.756C387.883 217.152 395.577 235.92 397.452 255.689C399.326 275.458 395.296 295.338 385.872 312.816L297.5 265.167L268.705 168.984Z" fill="#9FC4FF"/>
<g filter="url(#filter1_dd_684_29609)">
<rect x="86" y="304.667" width="130" height="34" rx="8" fill="white"/>
<path d="M104.341 324.071H101.005L100.453 325.667H98.689L101.701 317.279H103.657L106.669 325.667H104.893L104.341 324.071ZM103.885 322.727L102.673 319.223L101.461 322.727H103.885ZM107.363 322.343C107.363 321.655 107.503 321.055 107.783 320.543C108.063 320.023 108.451 319.623 108.947 319.343C109.443 319.055 110.011 318.911 110.651 318.911C111.475 318.911 112.155 319.119 112.691 319.535C113.235 319.943 113.599 320.519 113.783 321.263H111.971C111.875 320.975 111.711 320.751 111.479 320.591C111.255 320.423 110.975 320.339 110.639 320.339C110.159 320.339 109.779 320.515 109.499 320.867C109.219 321.211 109.079 321.703 109.079 322.343C109.079 322.975 109.219 323.467 109.499 323.819C109.779 324.163 110.159 324.335 110.639 324.335C111.319 324.335 111.763 324.031 111.971 323.423H113.783C113.599 324.143 113.235 324.715 112.691 325.139C112.147 325.563 111.467 325.775 110.651 325.775C110.011 325.775 109.443 325.635 108.947 325.355C108.451 325.067 108.063 324.667 107.783 324.155C107.503 323.635 107.363 323.031 107.363 322.343ZM116.97 320.399V323.615C116.97 323.839 117.022 324.003 117.126 324.107C117.238 324.203 117.422 324.251 117.678 324.251H118.458V325.667H117.402C115.986 325.667 115.278 324.979 115.278 323.603V320.399H114.486V319.019H115.278V317.375H116.97V319.019H118.458V320.399H116.97ZM120.518 318.227C120.222 318.227 119.974 318.135 119.774 317.951C119.582 317.759 119.486 317.523 119.486 317.243C119.486 316.963 119.582 316.731 119.774 316.547C119.974 316.355 120.222 316.259 120.518 316.259C120.814 316.259 121.058 316.355 121.25 316.547C121.45 316.731 121.55 316.963 121.55 317.243C121.55 317.523 121.45 317.759 121.25 317.951C121.058 318.135 120.814 318.227 120.518 318.227ZM121.346 319.019V325.667H119.666V319.019H121.346ZM125.958 325.775C125.318 325.775 124.742 325.635 124.23 325.355C123.718 325.067 123.314 324.663 123.018 324.143C122.73 323.623 122.586 323.023 122.586 322.343C122.586 321.663 122.734 321.063 123.03 320.543C123.334 320.023 123.746 319.623 124.266 319.343C124.786 319.055 125.366 318.911 126.006 318.911C126.646 318.911 127.226 319.055 127.746 319.343C128.266 319.623 128.674 320.023 128.97 320.543C129.274 321.063 129.426 321.663 129.426 322.343C129.426 323.023 129.27 323.623 128.958 324.143C128.654 324.663 128.238 325.067 127.71 325.355C127.19 325.635 126.606 325.775 125.958 325.775ZM125.958 324.311C126.262 324.311 126.546 324.239 126.81 324.095C127.082 323.943 127.298 323.719 127.458 323.423C127.618 323.127 127.698 322.767 127.698 322.343C127.698 321.711 127.53 321.227 127.194 320.891C126.866 320.547 126.462 320.375 125.982 320.375C125.502 320.375 125.098 320.547 124.77 320.891C124.45 321.227 124.29 321.711 124.29 322.343C124.29 322.975 124.446 323.463 124.758 323.807C125.078 324.143 125.478 324.311 125.958 324.311ZM134.342 318.923C135.134 318.923 135.774 319.175 136.262 319.679C136.75 320.175 136.994 320.871 136.994 321.767V325.667H135.314V321.995C135.314 321.467 135.182 321.063 134.918 320.783C134.654 320.495 134.294 320.351 133.838 320.351C133.374 320.351 133.006 320.495 132.734 320.783C132.47 321.063 132.338 321.467 132.338 321.995V325.667H130.658V319.019H132.338V319.847C132.562 319.559 132.846 319.335 133.19 319.175C133.542 319.007 133.926 318.923 134.342 318.923ZM143.407 320.399V323.615C143.407 323.839 143.459 324.003 143.563 324.107C143.675 324.203 143.859 324.251 144.115 324.251H144.895V325.667H143.839C142.423 325.667 141.715 324.979 141.715 323.603V320.399H140.923V319.019H141.715V317.375H143.407V319.019H144.895V320.399H143.407ZM145.671 322.319C145.671 321.647 145.803 321.051 146.067 320.531C146.339 320.011 146.703 319.611 147.159 319.331C147.623 319.051 148.139 318.911 148.707 318.911C149.203 318.911 149.635 319.011 150.003 319.211C150.379 319.411 150.679 319.663 150.903 319.967V319.019H152.595V325.667H150.903V324.695C150.687 325.007 150.387 325.267 150.003 325.475C149.627 325.675 149.191 325.775 148.695 325.775C148.135 325.775 147.623 325.631 147.159 325.343C146.703 325.055 146.339 324.651 146.067 324.131C145.803 323.603 145.671 322.999 145.671 322.319ZM150.903 322.343C150.903 321.935 150.823 321.587 150.663 321.299C150.503 321.003 150.287 320.779 150.015 320.627C149.743 320.467 149.451 320.387 149.139 320.387C148.827 320.387 148.539 320.463 148.275 320.615C148.011 320.767 147.795 320.991 147.627 321.287C147.467 321.575 147.387 321.919 147.387 322.319C147.387 322.719 147.467 323.071 147.627 323.375C147.795 323.671 148.011 323.899 148.275 324.059C148.547 324.219 148.835 324.299 149.139 324.299C149.451 324.299 149.743 324.223 150.015 324.071C150.287 323.911 150.503 323.687 150.663 323.399C150.823 323.103 150.903 322.751 150.903 322.343ZM158.172 325.667L155.916 322.835V325.667H154.236V316.787H155.916V321.839L158.148 319.019H160.332L157.404 322.355L160.356 325.667H158.172ZM167.424 322.199C167.424 322.439 167.408 322.655 167.376 322.847H162.516C162.556 323.327 162.724 323.703 163.02 323.975C163.316 324.247 163.68 324.383 164.112 324.383C164.736 324.383 165.18 324.115 165.444 323.579H167.256C167.064 324.219 166.696 324.747 166.152 325.163C165.608 325.571 164.94 325.775 164.148 325.775C163.508 325.775 162.932 325.635 162.42 325.355C161.916 325.067 161.52 324.663 161.232 324.143C160.952 323.623 160.812 323.023 160.812 322.343C160.812 321.655 160.952 321.051 161.232 320.531C161.512 320.011 161.904 319.611 162.408 319.331C162.912 319.051 163.492 318.911 164.148 318.911C164.78 318.911 165.344 319.047 165.84 319.319C166.344 319.591 166.732 319.979 167.004 320.483C167.284 320.979 167.424 321.551 167.424 322.199ZM165.684 321.719C165.676 321.287 165.52 320.943 165.216 320.687C164.912 320.423 164.54 320.291 164.1 320.291C163.684 320.291 163.332 320.419 163.044 320.675C162.764 320.923 162.592 321.271 162.528 321.719H165.684ZM172.334 318.923C173.126 318.923 173.766 319.175 174.254 319.679C174.742 320.175 174.986 320.871 174.986 321.767V325.667H173.306V321.995C173.306 321.467 173.174 321.063 172.91 320.783C172.646 320.495 172.286 320.351 171.83 320.351C171.366 320.351 170.998 320.495 170.726 320.783C170.462 321.063 170.33 321.467 170.33 321.995V325.667H168.65V319.019H170.33V319.847C170.554 319.559 170.838 319.335 171.182 319.175C171.534 319.007 171.918 318.923 172.334 318.923ZM180.187 325.751C179.883 325.751 179.631 325.659 179.431 325.475C179.239 325.283 179.143 325.047 179.143 324.767C179.143 324.487 179.239 324.255 179.431 324.071C179.631 323.879 179.883 323.783 180.187 323.783C180.483 323.783 180.727 323.879 180.919 324.071C181.111 324.255 181.207 324.487 181.207 324.767C181.207 325.047 181.111 325.283 180.919 325.475C180.727 325.659 180.483 325.751 180.187 325.751ZM180.187 320.783C179.883 320.783 179.631 320.691 179.431 320.507C179.239 320.315 179.143 320.079 179.143 319.799C179.143 319.519 179.239 319.287 179.431 319.103C179.631 318.911 179.883 318.815 180.187 318.815C180.483 318.815 180.727 318.911 180.919 319.103C181.111 319.287 181.207 319.519 181.207 319.799C181.207 320.079 181.111 320.315 180.919 320.507C180.727 320.691 180.483 320.783 180.187 320.783ZM185.059 318.467V316.919H187.951V325.667H186.223V318.467H185.059ZM190.139 323.771C190.907 323.131 191.519 322.599 191.975 322.175C192.431 321.743 192.811 321.295 193.115 320.831C193.419 320.367 193.571 319.911 193.571 319.463C193.571 319.055 193.475 318.735 193.283 318.503C193.091 318.271 192.795 318.155 192.395 318.155C191.995 318.155 191.687 318.291 191.471 318.563C191.255 318.827 191.143 319.191 191.135 319.655H189.503C189.535 318.695 189.819 317.967 190.355 317.471C190.899 316.975 191.587 316.727 192.419 316.727C193.331 316.727 194.031 316.971 194.519 317.459C195.007 317.939 195.251 318.575 195.251 319.367C195.251 319.991 195.083 320.587 194.747 321.155C194.411 321.723 194.027 322.219 193.595 322.643C193.163 323.059 192.599 323.563 191.903 324.155H195.443V325.547H189.515V324.299L190.139 323.771ZM196.501 321.179C196.501 319.795 196.749 318.711 197.245 317.927C197.749 317.143 198.581 316.751 199.741 316.751C200.901 316.751 201.729 317.143 202.225 317.927C202.729 318.711 202.981 319.795 202.981 321.179C202.981 322.571 202.729 323.663 202.225 324.455C201.729 325.247 200.901 325.643 199.741 325.643C198.581 325.643 197.749 325.247 197.245 324.455C196.749 323.663 196.501 322.571 196.501 321.179ZM201.325 321.179C201.325 320.587 201.285 320.091 201.205 319.691C201.133 319.283 200.981 318.951 200.749 318.695C200.525 318.439 200.189 318.311 199.741 318.311C199.293 318.311 198.953 318.439 198.721 318.695C198.497 318.951 198.345 319.283 198.265 319.691C198.193 320.091 198.157 320.587 198.157 321.179C198.157 321.787 198.193 322.299 198.265 322.715C198.337 323.123 198.489 323.455 198.721 323.711C198.953 323.959 199.293 324.083 199.741 324.083C200.189 324.083 200.529 323.959 200.761 323.711C200.993 323.455 201.145 323.123 201.217 322.715C201.289 322.299 201.325 321.787 201.325 321.179Z" fill="#242424"/>
<g clip-path="url(#clip0_684_29609)">
<path d="M213.485 315.596C213.485 314.705 214.562 314.259 215.192 314.889L221.263 320.96C221.654 321.35 221.654 321.984 221.263 322.374L215.192 328.445C214.562 329.075 213.485 328.629 213.485 327.738L213.485 315.596Z" fill="white"/>
</g>
</g>
<g filter="url(#filter2_dd_684_29609)">
<path d="M352.515 205.738C352.515 206.629 351.438 207.075 350.808 206.445L344.737 200.374C344.346 199.984 344.346 199.35 344.737 198.96L350.808 192.889C351.438 192.259 352.515 192.705 352.515 193.596L352.515 205.738Z" fill="white"/>
<rect x="350" y="182.667" width="152" height="34" rx="8" fill="white"/>
<path d="M370.453 203.667H368.773L364.969 197.919V203.667H363.289V195.279H364.969L368.773 201.039V195.279H370.453V203.667ZM378.389 197.019V203.667H376.697V202.827C376.481 203.115 376.197 203.343 375.845 203.511C375.501 203.671 375.125 203.751 374.717 203.751C374.197 203.751 373.737 203.643 373.337 203.427C372.937 203.203 372.621 202.879 372.389 202.455C372.165 202.023 372.053 201.511 372.053 200.919V197.019H373.733V200.679C373.733 201.207 373.865 201.615 374.129 201.903C374.393 202.183 374.753 202.323 375.209 202.323C375.673 202.323 376.037 202.183 376.301 201.903C376.565 201.615 376.697 201.207 376.697 200.679V197.019H378.389ZM388.303 196.923C389.119 196.923 389.775 197.175 390.271 197.679C390.775 198.175 391.027 198.871 391.027 199.767V203.667H389.347V199.995C389.347 199.475 389.215 199.079 388.951 198.807C388.687 198.527 388.327 198.387 387.871 198.387C387.415 198.387 387.051 198.527 386.779 198.807C386.515 199.079 386.383 199.475 386.383 199.995V203.667H384.703V199.995C384.703 199.475 384.571 199.079 384.307 198.807C384.043 198.527 383.683 198.387 383.227 198.387C382.763 198.387 382.395 198.527 382.123 198.807C381.859 199.079 381.727 199.475 381.727 199.995V203.667H380.047V197.019H381.727V197.823C381.943 197.543 382.219 197.323 382.555 197.163C382.899 197.003 383.275 196.923 383.683 196.923C384.203 196.923 384.667 197.035 385.075 197.259C385.483 197.475 385.799 197.787 386.023 198.195C386.239 197.811 386.551 197.503 386.959 197.271C387.375 197.039 387.823 196.923 388.303 196.923ZM394.301 197.991C394.517 197.671 394.813 197.411 395.189 197.211C395.573 197.011 396.009 196.911 396.497 196.911C397.065 196.911 397.577 197.051 398.033 197.331C398.497 197.611 398.861 198.011 399.125 198.531C399.397 199.043 399.533 199.639 399.533 200.319C399.533 200.999 399.397 201.603 399.125 202.131C398.861 202.651 398.497 203.055 398.033 203.343C397.577 203.631 397.065 203.775 396.497 203.775C396.001 203.775 395.565 203.679 395.189 203.487C394.821 203.287 394.525 203.031 394.301 202.719V203.667H392.621V194.787H394.301V197.991ZM397.817 200.319C397.817 199.919 397.733 199.575 397.565 199.287C397.405 198.991 397.189 198.767 396.917 198.615C396.653 198.463 396.365 198.387 396.053 198.387C395.749 198.387 395.461 198.467 395.189 198.627C394.925 198.779 394.709 199.003 394.541 199.299C394.381 199.595 394.301 199.943 394.301 200.343C394.301 200.743 394.381 201.091 394.541 201.387C394.709 201.683 394.925 201.911 395.189 202.071C395.461 202.223 395.749 202.299 396.053 202.299C396.365 202.299 396.653 202.219 396.917 202.059C397.189 201.899 397.405 201.671 397.565 201.375C397.733 201.079 397.817 200.727 397.817 200.319ZM406.934 200.199C406.934 200.439 406.918 200.655 406.886 200.847H402.026C402.066 201.327 402.234 201.703 402.53 201.975C402.826 202.247 403.19 202.383 403.622 202.383C404.246 202.383 404.69 202.115 404.954 201.579H406.766C406.574 202.219 406.206 202.747 405.662 203.163C405.118 203.571 404.45 203.775 403.658 203.775C403.018 203.775 402.442 203.635 401.93 203.355C401.426 203.067 401.03 202.663 400.742 202.143C400.462 201.623 400.322 201.023 400.322 200.343C400.322 199.655 400.462 199.051 400.742 198.531C401.022 198.011 401.414 197.611 401.918 197.331C402.422 197.051 403.002 196.911 403.658 196.911C404.29 196.911 404.854 197.047 405.35 197.319C405.854 197.591 406.242 197.979 406.514 198.483C406.794 198.979 406.934 199.551 406.934 200.199ZM405.194 199.719C405.186 199.287 405.03 198.943 404.726 198.687C404.422 198.423 404.05 198.291 403.61 198.291C403.194 198.291 402.842 198.419 402.554 198.675C402.274 198.923 402.102 199.271 402.038 199.719H405.194ZM409.84 198.051C410.056 197.699 410.336 197.423 410.68 197.223C411.032 197.023 411.432 196.923 411.88 196.923V198.687H411.436C410.908 198.687 410.508 198.811 410.236 199.059C409.972 199.307 409.84 199.739 409.84 200.355V203.667H408.16V197.019H409.84V198.051ZM418.823 203.775C418.183 203.775 417.607 203.635 417.095 203.355C416.583 203.067 416.179 202.663 415.883 202.143C415.595 201.623 415.451 201.023 415.451 200.343C415.451 199.663 415.599 199.063 415.895 198.543C416.199 198.023 416.611 197.623 417.131 197.343C417.651 197.055 418.231 196.911 418.871 196.911C419.511 196.911 420.091 197.055 420.611 197.343C421.131 197.623 421.539 198.023 421.835 198.543C422.139 199.063 422.291 199.663 422.291 200.343C422.291 201.023 422.135 201.623 421.823 202.143C421.519 202.663 421.103 203.067 420.575 203.355C420.055 203.635 419.471 203.775 418.823 203.775ZM418.823 202.311C419.127 202.311 419.411 202.239 419.675 202.095C419.947 201.943 420.163 201.719 420.323 201.423C420.483 201.127 420.563 200.767 420.563 200.343C420.563 199.711 420.395 199.227 420.059 198.891C419.731 198.547 419.327 198.375 418.847 198.375C418.367 198.375 417.963 198.547 417.635 198.891C417.315 199.227 417.155 199.711 417.155 200.343C417.155 200.975 417.311 201.463 417.623 201.807C417.943 202.143 418.343 202.311 418.823 202.311ZM426.571 198.399H425.407V203.667H423.703V198.399H422.947V197.019H423.703V196.683C423.703 195.867 423.935 195.267 424.399 194.883C424.863 194.499 425.563 194.319 426.499 194.343V195.759C426.091 195.751 425.807 195.819 425.647 195.963C425.487 196.107 425.407 196.367 425.407 196.743V197.019H426.571V198.399ZM430.087 200.343C430.087 199.655 430.227 199.055 430.507 198.543C430.787 198.023 431.175 197.623 431.671 197.343C432.167 197.055 432.735 196.911 433.375 196.911C434.199 196.911 434.879 197.119 435.415 197.535C435.959 197.943 436.323 198.519 436.507 199.263H434.695C434.599 198.975 434.435 198.751 434.203 198.591C433.979 198.423 433.699 198.339 433.363 198.339C432.883 198.339 432.503 198.515 432.223 198.867C431.943 199.211 431.803 199.703 431.803 200.343C431.803 200.975 431.943 201.467 432.223 201.819C432.503 202.163 432.883 202.335 433.363 202.335C434.043 202.335 434.487 202.031 434.695 201.423H436.507C436.323 202.143 435.959 202.715 435.415 203.139C434.871 203.563 434.191 203.775 433.375 203.775C432.735 203.775 432.167 203.635 431.671 203.355C431.175 203.067 430.787 202.667 430.507 202.155C430.227 201.635 430.087 201.031 430.087 200.343ZM437.306 200.319C437.306 199.647 437.438 199.051 437.702 198.531C437.974 198.011 438.338 197.611 438.794 197.331C439.258 197.051 439.774 196.911 440.342 196.911C440.838 196.911 441.27 197.011 441.638 197.211C442.014 197.411 442.314 197.663 442.538 197.967V197.019H444.23V203.667H442.538V202.695C442.322 203.007 442.022 203.267 441.638 203.475C441.262 203.675 440.826 203.775 440.33 203.775C439.77 203.775 439.258 203.631 438.794 203.343C438.338 203.055 437.974 202.651 437.702 202.131C437.438 201.603 437.306 200.999 437.306 200.319ZM442.538 200.343C442.538 199.935 442.458 199.587 442.298 199.299C442.138 199.003 441.922 198.779 441.65 198.627C441.378 198.467 441.086 198.387 440.774 198.387C440.462 198.387 440.174 198.463 439.91 198.615C439.646 198.767 439.43 198.991 439.262 199.287C439.102 199.575 439.022 199.919 439.022 200.319C439.022 200.719 439.102 201.071 439.262 201.375C439.43 201.671 439.646 201.899 439.91 202.059C440.182 202.219 440.47 202.299 440.774 202.299C441.086 202.299 441.378 202.223 441.65 202.071C441.922 201.911 442.138 201.687 442.298 201.399C442.458 201.103 442.538 200.751 442.538 200.343ZM447.551 194.787V203.667H445.871V194.787H447.551ZM450.891 194.787V203.667H449.211V194.787H450.891ZM455.095 203.775C454.551 203.775 454.063 203.679 453.631 203.487C453.199 203.287 452.855 203.019 452.599 202.683C452.351 202.347 452.215 201.975 452.191 201.567H453.883C453.915 201.823 454.039 202.035 454.255 202.203C454.479 202.371 454.755 202.455 455.083 202.455C455.403 202.455 455.651 202.391 455.827 202.263C456.011 202.135 456.103 201.971 456.103 201.771C456.103 201.555 455.991 201.395 455.767 201.291C455.551 201.179 455.203 201.059 454.723 200.931C454.227 200.811 453.819 200.687 453.499 200.559C453.187 200.431 452.915 200.235 452.683 199.971C452.459 199.707 452.347 199.351 452.347 198.903C452.347 198.535 452.451 198.199 452.659 197.895C452.875 197.591 453.179 197.351 453.571 197.175C453.971 196.999 454.439 196.911 454.975 196.911C455.767 196.911 456.399 197.111 456.871 197.511C457.343 197.903 457.603 198.435 457.651 199.107H456.043C456.019 198.843 455.907 198.635 455.707 198.483C455.515 198.323 455.255 198.243 454.927 198.243C454.623 198.243 454.387 198.299 454.219 198.411C454.059 198.523 453.979 198.679 453.979 198.879C453.979 199.103 454.091 199.275 454.315 199.395C454.539 199.507 454.887 199.623 455.359 199.743C455.839 199.863 456.235 199.987 456.547 200.115C456.859 200.243 457.127 200.443 457.351 200.715C457.583 200.979 457.703 201.331 457.711 201.771C457.711 202.155 457.603 202.499 457.387 202.803C457.179 203.107 456.875 203.347 456.475 203.523C456.083 203.691 455.623 203.775 455.095 203.775ZM462.693 203.751C462.389 203.751 462.137 203.659 461.937 203.475C461.745 203.283 461.649 203.047 461.649 202.767C461.649 202.487 461.745 202.255 461.937 202.071C462.137 201.879 462.389 201.783 462.693 201.783C462.989 201.783 463.233 201.879 463.425 202.071C463.617 202.255 463.713 202.487 463.713 202.767C463.713 203.047 463.617 203.283 463.425 203.475C463.233 203.659 462.989 203.751 462.693 203.751ZM462.693 198.783C462.389 198.783 462.137 198.691 461.937 198.507C461.745 198.315 461.649 198.079 461.649 197.799C461.649 197.519 461.745 197.287 461.937 197.103C462.137 196.911 462.389 196.815 462.693 196.815C462.989 196.815 463.233 196.911 463.425 197.103C463.617 197.287 463.713 197.519 463.713 197.799C463.713 198.079 463.617 198.315 463.425 198.507C463.233 198.691 462.989 198.783 462.693 198.783ZM468.297 201.771C469.065 201.131 469.677 200.599 470.133 200.175C470.589 199.743 470.969 199.295 471.273 198.831C471.577 198.367 471.729 197.911 471.729 197.463C471.729 197.055 471.633 196.735 471.441 196.503C471.249 196.271 470.953 196.155 470.553 196.155C470.153 196.155 469.845 196.291 469.629 196.563C469.413 196.827 469.301 197.191 469.293 197.655H467.661C467.693 196.695 467.977 195.967 468.513 195.471C469.057 194.975 469.745 194.727 470.577 194.727C471.489 194.727 472.189 194.971 472.677 195.459C473.165 195.939 473.409 196.575 473.409 197.367C473.409 197.991 473.241 198.587 472.905 199.155C472.569 199.723 472.185 200.219 471.753 200.643C471.321 201.059 470.757 201.563 470.061 202.155H473.601V203.547H467.673V202.299L468.297 201.771ZM474.659 199.179C474.659 197.795 474.907 196.711 475.403 195.927C475.907 195.143 476.739 194.751 477.899 194.751C479.059 194.751 479.887 195.143 480.383 195.927C480.887 196.711 481.139 197.795 481.139 199.179C481.139 200.571 480.887 201.663 480.383 202.455C479.887 203.247 479.059 203.643 477.899 203.643C476.739 203.643 475.907 203.247 475.403 202.455C474.907 201.663 474.659 200.571 474.659 199.179ZM479.483 199.179C479.483 198.587 479.443 198.091 479.363 197.691C479.291 197.283 479.139 196.951 478.907 196.695C478.683 196.439 478.347 196.311 477.899 196.311C477.451 196.311 477.111 196.439 476.879 196.695C476.655 196.951 476.503 197.283 476.423 197.691C476.351 198.091 476.315 198.587 476.315 199.179C476.315 199.787 476.351 200.299 476.423 200.715C476.495 201.123 476.647 201.455 476.879 201.711C477.111 201.959 477.451 202.083 477.899 202.083C478.347 202.083 478.687 201.959 478.919 201.711C479.151 201.455 479.303 201.123 479.375 200.715C479.447 200.299 479.483 199.787 479.483 199.179ZM482.417 199.179C482.417 197.795 482.665 196.711 483.161 195.927C483.665 195.143 484.497 194.751 485.657 194.751C486.817 194.751 487.645 195.143 488.141 195.927C488.645 196.711 488.897 197.795 488.897 199.179C488.897 200.571 488.645 201.663 488.141 202.455C487.645 203.247 486.817 203.643 485.657 203.643C484.497 203.643 483.665 203.247 483.161 202.455C482.665 201.663 482.417 200.571 482.417 199.179ZM487.241 199.179C487.241 198.587 487.201 198.091 487.121 197.691C487.049 197.283 486.897 196.951 486.665 196.695C486.441 196.439 486.105 196.311 485.657 196.311C485.209 196.311 484.869 196.439 484.637 196.695C484.413 196.951 484.261 197.283 484.181 197.691C484.109 198.091 484.073 198.587 484.073 199.179C484.073 199.787 484.109 200.299 484.181 200.715C484.253 201.123 484.405 201.455 484.637 201.711C484.869 201.959 485.209 202.083 485.657 202.083C486.105 202.083 486.445 201.959 486.677 201.711C486.909 201.455 487.061 201.123 487.133 200.715C487.205 200.299 487.241 199.787 487.241 199.179Z" fill="#242424"/>
</g>
</g>
<defs>
<filter id="filter0_d_684_29609" x="0" y="0.666992" width="574" height="434" filterUnits="userSpaceOnUse" color-interpolation-filters="sRGB">
<feFlood flood-opacity="0" result="BackgroundImageFix"/>
<feColorMatrix in="SourceAlpha" type="matrix" values="0 0 0 0 0 0 0 0 0 0 0 0 0 0 0 0 0 0 127 0" result="hardAlpha"/>
<feOffset dy="1"/>
<feGaussianBlur stdDeviation="1.5"/>
<feColorMatrix type="matrix" values="0 0 0 0 0.0627451 0 0 0 0 0.0941176 0 0 0 0 0.156863 0 0 0 0.1 0"/>
<feBlend mode="normal" in2="BackgroundImageFix" result="effect1_dropShadow_684_29609"/>
<feBlend mode="normal" in="SourceGraphic" in2="effect1_dropShadow_684_29609" result="shape"/>
</filter>
<filter id="filter1_dd_684_29609" x="74" y="304.667" width="160" height="58" filterUnits="userSpaceOnUse" color-interpolation-filters="sRGB">
<feFlood flood-opacity="0" result="BackgroundImageFix"/>
<feColorMatrix in="SourceAlpha" type="matrix" values="0 0 0 0 0 0 0 0 0 0 0 0 0 0 0 0 0 0 127 0" result="hardAlpha"/>
<feMorphology radius="2" operator="erode" in="SourceAlpha" result="effect1_dropShadow_684_29609"/>
<feOffset dy="4"/>
<feGaussianBlur stdDeviation="3"/>
<feColorMatrix type="matrix" values="0 0 0 0 0.0627451 0 0 0 0 0.0941176 0 0 0 0 0.156863 0 0 0 0.03 0"/>
<feBlend mode="normal" in2="BackgroundImageFix" result="effect1_dropShadow_684_29609"/>
<feColorMatrix in="SourceAlpha" type="matrix" values="0 0 0 0 0 0 0 0 0 0 0 0 0 0 0 0 0 0 127 0" result="hardAlpha"/>
<feMorphology radius="4" operator="erode" in="SourceAlpha" result="effect2_dropShadow_684_29609"/>
<feOffset dy="12"/>
<feGaussianBlur stdDeviation="8"/>
<feColorMatrix type="matrix" values="0 0 0 0 0.0627451 0 0 0 0 0.0941176 0 0 0 0 0.156863 0 0 0 0.08 0"/>
<feBlend mode="normal" in2="effect1_dropShadow_684_29609" result="effect2_dropShadow_684_29609"/>
<feBlend mode="normal" in="SourceGraphic" in2="effect2_dropShadow_684_29609" result="shape"/>
</filter>
<filter id="filter2_dd_684_29609" x="332" y="182.667" width="182" height="58" filterUnits="userSpaceOnUse" color-interpolation-filters="sRGB">
<feFlood flood-opacity="0" result="BackgroundImageFix"/>
<feColorMatrix in="SourceAlpha" type="matrix" values="0 0 0 0 0 0 0 0 0 0 0 0 0 0 0 0 0 0 127 0" result="hardAlpha"/>
<feMorphology radius="2" operator="erode" in="SourceAlpha" result="effect1_dropShadow_684_29609"/>
<feOffset dy="4"/>
<feGaussianBlur stdDeviation="3"/>
<feColorMatrix type="matrix" values="0 0 0 0 0.0627451 0 0 0 0 0.0941176 0 0 0 0 0.156863 0 0 0 0.03 0"/>
<feBlend mode="normal" in2="BackgroundImageFix" result="effect1_dropShadow_684_29609"/>
<feColorMatrix in="SourceAlpha" type="matrix" values="0 0 0 0 0 0 0 0 0 0 0 0 0 0 0 0 0 0 127 0" result="hardAlpha"/>
<feMorphology radius="4" operator="erode" in="SourceAlpha" result="effect2_dropShadow_684_29609"/>
<feOffset dy="12"/>
<feGaussianBlur stdDeviation="8"/>
<feColorMatrix type="matrix" values="0 0 0 0 0.0627451 0 0 0 0 0.0941176 0 0 0 0 0.156863 0 0 0 0.08 0"/>
<feBlend mode="normal" in2="effect1_dropShadow_684_29609" result="effect2_dropShadow_684_29609"/>
<feBlend mode="normal" in="SourceGraphic" in2="effect2_dropShadow_684_29609" result="shape"/>
</filter>
<clipPath id="clip0_684_29609">
<rect width="16" height="6" fill="white" transform="matrix(0 -1 1 0 216 329.667)"/>
</clipPath>
</defs>
</svg>
