<svg width="574" height="435" viewBox="0 0 574 435" fill="none" xmlns="http://www.w3.org/2000/svg">
<g filter="url(#filter0_d_690_49269)">
<rect x="3" y="2.66699" width="568" height="428" rx="8" fill="white"/>
<rect x="3.5" y="3.16699" width="567" height="427" rx="7.5" stroke="#E7E7E7"/>
<path d="M30.78 31.767V45.667H28.5V31.767H30.78ZM39.3334 34.467C40.2001 34.467 40.9734 34.647 41.6534 35.007C42.3468 35.367 42.8868 35.9003 43.2734 36.607C43.6601 37.3137 43.8534 38.167 43.8534 39.167V45.667H41.5934V39.507C41.5934 38.5203 41.3468 37.767 40.8534 37.247C40.3601 36.7137 39.6868 36.447 38.8334 36.447C37.9801 36.447 37.3001 36.7137 36.7934 37.247C36.3001 37.767 36.0534 38.5203 36.0534 39.507V45.667H33.7734V34.647H36.0534V35.907C36.4268 35.4537 36.9001 35.1003 37.4734 34.847C38.0601 34.5937 38.6801 34.467 39.3334 34.467ZM51.0217 43.627L54.1417 34.647H56.5617L52.3617 45.667H49.6417L45.4617 34.647H47.9017L51.0217 43.627ZM68.3852 39.887C68.3852 40.3003 68.3585 40.6737 68.3052 41.007H59.8852C59.9518 41.887 60.2785 42.5937 60.8652 43.127C61.4518 43.6603 62.1718 43.927 63.0252 43.927C64.2518 43.927 65.1185 43.4137 65.6252 42.387H68.0852C67.7518 43.4003 67.1452 44.2337 66.2652 44.887C65.3985 45.527 64.3185 45.847 63.0252 45.847C61.9718 45.847 61.0252 45.6137 60.1852 45.147C59.3585 44.667 58.7052 44.0003 58.2252 43.147C57.7585 42.2803 57.5252 41.2803 57.5252 40.147C57.5252 39.0137 57.7518 38.0203 58.2052 37.167C58.6718 36.3003 59.3185 35.6337 60.1452 35.167C60.9852 34.7003 61.9452 34.467 63.0252 34.467C64.0652 34.467 64.9918 34.6937 65.8052 35.147C66.6185 35.6003 67.2518 36.2403 67.7052 37.067C68.1585 37.8803 68.3852 38.8203 68.3852 39.887ZM66.0052 39.167C65.9918 38.327 65.6918 37.6537 65.1052 37.147C64.5185 36.6403 63.7918 36.387 62.9252 36.387C62.1385 36.387 61.4652 36.6403 60.9052 37.147C60.3452 37.6403 60.0118 38.3137 59.9052 39.167H66.0052ZM74.6289 45.847C73.7622 45.847 72.9822 45.6937 72.2889 45.387C71.6089 45.067 71.0689 44.6403 70.6689 44.107C70.2689 43.5603 70.0556 42.9537 70.0289 42.287H72.3889C72.4289 42.7537 72.6489 43.147 73.0489 43.467C73.4622 43.7737 73.9756 43.927 74.5889 43.927C75.2289 43.927 75.7222 43.807 76.0689 43.567C76.4289 43.3137 76.6089 42.9937 76.6089 42.607C76.6089 42.1937 76.4089 41.887 76.0089 41.687C75.6222 41.487 75.0022 41.267 74.1489 41.027C73.3222 40.8003 72.6489 40.5803 72.1289 40.367C71.6089 40.1537 71.1556 39.827 70.7689 39.387C70.3956 38.947 70.2089 38.367 70.2089 37.647C70.2089 37.0603 70.3822 36.527 70.7289 36.047C71.0756 35.5537 71.5689 35.167 72.2089 34.887C72.8622 34.607 73.6089 34.467 74.4489 34.467C75.7022 34.467 76.7089 34.787 77.4689 35.427C78.2422 36.0537 78.6556 36.9137 78.7089 38.007H76.4289C76.3889 37.5137 76.1889 37.1203 75.8289 36.827C75.4689 36.5337 74.9822 36.387 74.3689 36.387C73.7689 36.387 73.3089 36.5003 72.9889 36.727C72.6689 36.9537 72.5089 37.2537 72.5089 37.627C72.5089 37.9203 72.6156 38.167 72.8289 38.367C73.0422 38.567 73.3022 38.727 73.6089 38.847C73.9156 38.9537 74.3689 39.0937 74.9689 39.267C75.7689 39.4803 76.4222 39.7003 76.9289 39.927C77.4489 40.1403 77.8956 40.4603 78.2689 40.887C78.6422 41.3137 78.8356 41.8803 78.8489 42.587C78.8489 43.2137 78.6756 43.7737 78.3289 44.267C77.9822 44.7603 77.4889 45.147 76.8489 45.427C76.2222 45.707 75.4822 45.847 74.6289 45.847ZM83.9725 36.507V42.607C83.9725 43.0203 84.0658 43.3203 84.2525 43.507C84.4525 43.6803 84.7858 43.767 85.2525 43.767H86.6525V45.667H84.8525C83.8258 45.667 83.0392 45.427 82.4925 44.947C81.9458 44.467 81.6725 43.687 81.6725 42.607V36.507H80.3725V34.647H81.6725V31.907H83.9725V34.647H86.6525V36.507H83.9725ZM102.094 34.467C102.961 34.467 103.734 34.647 104.414 35.007C105.107 35.367 105.647 35.9003 106.034 36.607C106.434 37.3137 106.634 38.167 106.634 39.167V45.667H104.374V39.507C104.374 38.5203 104.127 37.767 103.634 37.247C103.141 36.7137 102.467 36.447 101.614 36.447C100.761 36.447 100.081 36.7137 99.5739 37.247C99.0806 37.767 98.8339 38.5203 98.8339 39.507V45.667H96.5739V39.507C96.5739 38.5203 96.3272 37.767 95.8339 37.247C95.3406 36.7137 94.6672 36.447 93.8139 36.447C92.9606 36.447 92.2806 36.7137 91.7739 37.247C91.2806 37.767 91.0339 38.5203 91.0339 39.507V45.667H88.7539V34.647H91.0339V35.907C91.4072 35.4537 91.8806 35.1003 92.4539 34.847C93.0272 34.5937 93.6406 34.467 94.2939 34.467C95.1739 34.467 95.9606 34.6537 96.6539 35.027C97.3472 35.4003 97.8806 35.9403 98.2539 36.647C98.5872 35.9803 99.1072 35.4537 99.8139 35.067C100.521 34.667 101.281 34.467 102.094 34.467ZM119.635 39.887C119.635 40.3003 119.608 40.6737 119.555 41.007H111.135C111.202 41.887 111.528 42.5937 112.115 43.127C112.702 43.6603 113.422 43.927 114.275 43.927C115.502 43.927 116.368 43.4137 116.875 42.387H119.335C119.002 43.4003 118.395 44.2337 117.515 44.887C116.648 45.527 115.568 45.847 114.275 45.847C113.222 45.847 112.275 45.6137 111.435 45.147C110.608 44.667 109.955 44.0003 109.475 43.147C109.008 42.2803 108.775 41.2803 108.775 40.147C108.775 39.0137 109.002 38.0203 109.455 37.167C109.922 36.3003 110.568 35.6337 111.395 35.167C112.235 34.7003 113.195 34.467 114.275 34.467C115.315 34.467 116.242 34.6937 117.055 35.147C117.868 35.6003 118.502 36.2403 118.955 37.067C119.408 37.8803 119.635 38.8203 119.635 39.887ZM117.255 39.167C117.242 38.327 116.942 37.6537 116.355 37.147C115.768 36.6403 115.042 36.387 114.175 36.387C113.388 36.387 112.715 36.6403 112.155 37.147C111.595 37.6403 111.262 38.3137 111.155 39.167H117.255ZM127.439 34.467C128.306 34.467 129.079 34.647 129.759 35.007C130.452 35.367 130.992 35.9003 131.379 36.607C131.766 37.3137 131.959 38.167 131.959 39.167V45.667H129.699V39.507C129.699 38.5203 129.452 37.767 128.959 37.247C128.466 36.7137 127.792 36.447 126.939 36.447C126.086 36.447 125.406 36.7137 124.899 37.247C124.406 37.767 124.159 38.5203 124.159 39.507V45.667H121.879V34.647H124.159V35.907C124.532 35.4537 125.006 35.1003 125.579 34.847C126.166 34.5937 126.786 34.467 127.439 34.467ZM137.527 36.507V42.607C137.527 43.0203 137.621 43.3203 137.807 43.507C138.007 43.6803 138.341 43.767 138.807 43.767H140.207V45.667H138.407C137.381 45.667 136.594 45.427 136.047 44.947C135.501 44.467 135.227 43.687 135.227 42.607V36.507H133.927V34.647H135.227V31.907H137.527V34.647H140.207V36.507H137.527ZM152.084 45.807C151.151 45.807 150.311 45.647 149.564 45.327C148.817 44.9937 148.231 44.527 147.804 43.927C147.377 43.327 147.164 42.627 147.164 41.827H149.604C149.657 42.427 149.891 42.9203 150.304 43.307C150.731 43.6937 151.324 43.887 152.084 43.887C152.871 43.887 153.484 43.7003 153.924 43.327C154.364 42.9403 154.584 42.447 154.584 41.847C154.584 41.3803 154.444 41.0003 154.164 40.707C153.897 40.4137 153.557 40.187 153.144 40.027C152.744 39.867 152.184 39.6937 151.464 39.507C150.557 39.267 149.817 39.027 149.244 38.787C148.684 38.5337 148.204 38.147 147.804 37.627C147.404 37.107 147.204 36.4137 147.204 35.547C147.204 34.747 147.404 34.047 147.804 33.447C148.204 32.847 148.764 32.387 149.484 32.067C150.204 31.747 151.037 31.587 151.984 31.587C153.331 31.587 154.431 31.927 155.284 32.607C156.151 33.2737 156.631 34.1937 156.724 35.367H154.204C154.164 34.8603 153.924 34.427 153.484 34.067C153.044 33.707 152.464 33.527 151.744 33.527C151.091 33.527 150.557 33.6937 150.144 34.027C149.731 34.3603 149.524 34.8403 149.524 35.467C149.524 35.8937 149.651 36.247 149.904 36.527C150.171 36.7937 150.504 37.007 150.904 37.167C151.304 37.327 151.851 37.5003 152.544 37.687C153.464 37.9403 154.211 38.1937 154.784 38.447C155.371 38.7003 155.864 39.0937 156.264 39.627C156.677 40.147 156.884 40.847 156.884 41.727C156.884 42.4337 156.691 43.1003 156.304 43.727C155.931 44.3537 155.377 44.8603 154.644 45.247C153.924 45.6203 153.071 45.807 152.084 45.807ZM162.234 36.507V42.607C162.234 43.0203 162.328 43.3203 162.514 43.507C162.714 43.6803 163.048 43.767 163.514 43.767H164.914V45.667H163.114C162.088 45.667 161.301 45.427 160.754 44.947C160.208 44.467 159.934 43.687 159.934 42.607V36.507H158.634V34.647H159.934V31.907H162.234V34.647H164.914V36.507H162.234ZM166.256 40.107C166.256 39.0003 166.482 38.0203 166.936 37.167C167.402 36.3137 168.029 35.6537 168.816 35.187C169.616 34.707 170.496 34.467 171.456 34.467C172.322 34.467 173.076 34.6403 173.716 34.987C174.369 35.3203 174.889 35.7403 175.276 36.247V34.647H177.576V45.667H175.276V44.027C174.889 44.547 174.362 44.9803 173.696 45.327C173.029 45.6737 172.269 45.847 171.416 45.847C170.469 45.847 169.602 45.607 168.816 45.127C168.029 44.6337 167.402 43.9537 166.936 43.087C166.482 42.207 166.256 41.2137 166.256 40.107ZM175.276 40.147C175.276 39.387 175.116 38.727 174.796 38.167C174.489 37.607 174.082 37.1803 173.576 36.887C173.069 36.5937 172.522 36.447 171.936 36.447C171.349 36.447 170.802 36.5937 170.296 36.887C169.789 37.167 169.376 37.587 169.056 38.147C168.749 38.6937 168.596 39.347 168.596 40.107C168.596 40.867 168.749 41.5337 169.056 42.107C169.376 42.6803 169.789 43.1203 170.296 43.427C170.816 43.7203 171.362 43.867 171.936 43.867C172.522 43.867 173.069 43.7203 173.576 43.427C174.082 43.1337 174.489 42.707 174.796 42.147C175.116 41.5737 175.276 40.907 175.276 40.147ZM183.23 36.507V42.607C183.23 43.0203 183.324 43.3203 183.51 43.507C183.71 43.6803 184.044 43.767 184.51 43.767H185.91V45.667H184.11C183.084 45.667 182.297 45.427 181.75 44.947C181.204 44.467 180.93 43.687 180.93 42.607V36.507H179.63V34.647H180.93V31.907H183.23V34.647H185.91V36.507H183.23ZM192.012 45.847C191.145 45.847 190.365 45.6937 189.672 45.387C188.992 45.067 188.452 44.6403 188.052 44.107C187.652 43.5603 187.438 42.9537 187.412 42.287H189.772C189.812 42.7537 190.032 43.147 190.432 43.467C190.845 43.7737 191.358 43.927 191.972 43.927C192.612 43.927 193.105 43.807 193.452 43.567C193.812 43.3137 193.992 42.9937 193.992 42.607C193.992 42.1937 193.792 41.887 193.392 41.687C193.005 41.487 192.385 41.267 191.532 41.027C190.705 40.8003 190.032 40.5803 189.512 40.367C188.992 40.1537 188.538 39.827 188.152 39.387C187.778 38.947 187.592 38.367 187.592 37.647C187.592 37.0603 187.765 36.527 188.112 36.047C188.458 35.5537 188.952 35.167 189.592 34.887C190.245 34.607 190.992 34.467 191.832 34.467C193.085 34.467 194.092 34.787 194.852 35.427C195.625 36.0537 196.038 36.9137 196.092 38.007H193.812C193.772 37.5137 193.572 37.1203 193.212 36.827C192.852 36.5337 192.365 36.387 191.752 36.387C191.152 36.387 190.692 36.5003 190.372 36.727C190.052 36.9537 189.892 37.2537 189.892 37.627C189.892 37.9203 189.998 38.167 190.212 38.367C190.425 38.567 190.685 38.727 190.992 38.847C191.298 38.9537 191.752 39.0937 192.352 39.267C193.152 39.4803 193.805 39.7003 194.312 39.927C194.832 40.1403 195.278 40.4603 195.652 40.887C196.025 41.3137 196.218 41.8803 196.232 42.587C196.232 43.2137 196.058 43.7737 195.712 44.267C195.365 44.7603 194.872 45.147 194.232 45.427C193.605 45.707 192.865 45.847 192.012 45.847Z" fill="#242424"/>
<circle cx="34" cy="80.667" r="7" fill="#142E56"/>
<path d="M56.824 84.187H51.96L51.064 86.667H49.528L53.56 75.579H55.24L59.256 86.667H57.72L56.824 84.187ZM56.408 83.003L54.392 77.371L52.376 83.003H56.408ZM71.5573 77.739C72.2399 77.739 72.8479 77.883 73.3813 78.171C73.9146 78.4483 74.3359 78.8697 74.6453 79.435C74.9546 80.0003 75.1093 80.6883 75.1093 81.499V86.667H73.6693V81.707C73.6693 80.8323 73.4506 80.1657 73.0133 79.707C72.5866 79.2377 72.0053 79.003 71.2693 79.003C70.5119 79.003 69.9093 79.2483 69.4613 79.739C69.0133 80.219 68.7893 80.9177 68.7893 81.835V86.667H67.3493V81.707C67.3493 80.8323 67.1306 80.1657 66.6933 79.707C66.2666 79.2377 65.6853 79.003 64.9493 79.003C64.1919 79.003 63.5893 79.2483 63.1413 79.739C62.6933 80.219 62.4693 80.9177 62.4693 81.835V86.667H61.0133V77.899H62.4693V79.163C62.7573 78.7043 63.1413 78.3523 63.6213 78.107C64.1119 77.8617 64.6506 77.739 65.2373 77.739C65.9733 77.739 66.6239 77.9043 67.1893 78.235C67.7546 78.5657 68.1759 79.051 68.4533 79.691C68.6986 79.0723 69.1039 78.5923 69.6693 78.251C70.2346 77.9097 70.8639 77.739 71.5573 77.739ZM81.3216 86.811C80.5003 86.811 79.7536 86.6243 79.0816 86.251C78.4203 85.8777 77.8976 85.3497 77.5136 84.667C77.1403 83.9737 76.9536 83.1737 76.9536 82.267C76.9536 81.371 77.1456 80.5817 77.5296 79.899C77.9243 79.2057 78.4576 78.6777 79.1296 78.315C79.8016 77.9417 80.5536 77.755 81.3856 77.755C82.2176 77.755 82.9696 77.9417 83.6416 78.315C84.3136 78.6777 84.8416 79.2003 85.2256 79.883C85.6203 80.5657 85.8176 81.3603 85.8176 82.267C85.8176 83.1737 85.615 83.9737 85.2096 84.667C84.815 85.3497 84.2763 85.8777 83.5936 86.251C82.911 86.6243 82.1536 86.811 81.3216 86.811ZM81.3216 85.531C81.8443 85.531 82.335 85.4083 82.7936 85.163C83.2523 84.9177 83.6203 84.5497 83.8976 84.059C84.1856 83.5683 84.3296 82.971 84.3296 82.267C84.3296 81.563 84.191 80.9657 83.9136 80.475C83.6363 79.9843 83.2736 79.6217 82.8256 79.387C82.3776 79.1417 81.8923 79.019 81.3696 79.019C80.8363 79.019 80.3456 79.1417 79.8976 79.387C79.4603 79.6217 79.1083 79.9843 78.8416 80.475C78.575 80.9657 78.4416 81.563 78.4416 82.267C78.4416 82.9817 78.5696 83.5843 78.8256 84.075C79.0923 84.5657 79.4443 84.9337 79.8816 85.179C80.319 85.4137 80.799 85.531 81.3216 85.531ZM95.508 77.899V86.667H94.052V85.371C93.7747 85.819 93.3853 86.171 92.884 86.427C92.3933 86.6723 91.8493 86.795 91.252 86.795C90.5693 86.795 89.956 86.6563 89.412 86.379C88.868 86.091 88.436 85.6643 88.116 85.099C87.8067 84.5337 87.652 83.8457 87.652 83.035V77.899H89.092V82.843C89.092 83.707 89.3107 84.3737 89.748 84.843C90.1853 85.3017 90.7827 85.531 91.54 85.531C92.3187 85.531 92.932 85.291 93.38 84.811C93.828 84.331 94.052 83.6323 94.052 82.715V77.899H95.508ZM102.238 77.739C103.305 77.739 104.169 78.0643 104.83 78.715C105.492 79.355 105.822 80.283 105.822 81.499V86.667H104.382V81.707C104.382 80.8323 104.164 80.1657 103.726 79.707C103.289 79.2377 102.692 79.003 101.934 79.003C101.166 79.003 100.553 79.243 100.094 79.723C99.6464 80.203 99.4224 80.9017 99.4224 81.819V86.667H97.9664V77.899H99.4224V79.147C99.7104 78.699 100.1 78.3523 100.59 78.107C101.092 77.8617 101.641 77.739 102.238 77.739ZM109.977 79.099V84.267C109.977 84.6937 110.067 84.9977 110.249 85.179C110.43 85.3497 110.745 85.435 111.193 85.435H112.265V86.667H110.953C110.142 86.667 109.534 86.4803 109.129 86.107C108.723 85.7337 108.521 85.1203 108.521 84.267V79.099H107.385V77.899H108.521V75.691H109.977V77.899H112.265V79.099H109.977ZM119.047 76.475C118.769 76.475 118.535 76.379 118.343 76.187C118.151 75.995 118.055 75.7603 118.055 75.483C118.055 75.2057 118.151 74.971 118.343 74.779C118.535 74.587 118.769 74.491 119.047 74.491C119.313 74.491 119.537 74.587 119.719 74.779C119.911 74.971 120.007 75.2057 120.007 75.483C120.007 75.7603 119.911 75.995 119.719 76.187C119.537 76.379 119.313 76.475 119.047 76.475ZM119.751 77.899V86.667H118.295V77.899H119.751ZM126.504 77.739C127.571 77.739 128.435 78.0643 129.096 78.715C129.757 79.355 130.088 80.283 130.088 81.499V86.667H128.648V81.707C128.648 80.8323 128.429 80.1657 127.992 79.707C127.555 79.2377 126.957 79.003 126.2 79.003C125.432 79.003 124.819 79.243 124.36 79.723C123.912 80.203 123.688 80.9017 123.688 81.819V86.667H122.232V77.899H123.688V79.147C123.976 78.699 124.365 78.3523 124.856 78.107C125.357 77.8617 125.907 77.739 126.504 77.739ZM135.73 85.323L138.45 77.899H140.002L136.562 86.667H134.866L131.426 77.899H132.994L135.73 85.323ZM149.435 81.947C149.435 82.2243 149.419 82.5177 149.387 82.827H142.379C142.432 83.691 142.726 84.3683 143.259 84.859C143.803 85.339 144.459 85.579 145.227 85.579C145.856 85.579 146.379 85.435 146.795 85.147C147.222 84.8483 147.52 84.4537 147.691 83.963H149.259C149.024 84.8057 148.555 85.4937 147.851 86.027C147.147 86.5497 146.272 86.811 145.227 86.811C144.395 86.811 143.648 86.6243 142.987 86.251C142.336 85.8777 141.824 85.3497 141.451 84.667C141.078 83.9737 140.891 83.1737 140.891 82.267C140.891 81.3603 141.072 80.5657 141.435 79.883C141.798 79.2003 142.304 78.6777 142.955 78.315C143.616 77.9417 144.374 77.755 145.227 77.755C146.059 77.755 146.795 77.9363 147.435 78.299C148.075 78.6617 148.566 79.163 148.907 79.803C149.259 80.4323 149.435 81.147 149.435 81.947ZM147.931 81.643C147.931 81.0883 147.808 80.6137 147.563 80.219C147.318 79.8137 146.982 79.5097 146.555 79.307C146.139 79.0937 145.675 78.987 145.163 78.987C144.427 78.987 143.798 79.2217 143.275 79.691C142.763 80.1603 142.47 80.811 142.395 81.643H147.931ZM154.461 86.811C153.789 86.811 153.186 86.699 152.653 86.475C152.12 86.2403 151.698 85.9203 151.389 85.515C151.08 85.099 150.909 84.6243 150.877 84.091H152.381C152.424 84.5283 152.626 84.8857 152.989 85.163C153.362 85.4403 153.848 85.579 154.445 85.579C155 85.579 155.437 85.4563 155.757 85.211C156.077 84.9657 156.237 84.6563 156.237 84.283C156.237 83.899 156.066 83.6163 155.725 83.435C155.384 83.243 154.856 83.0563 154.141 82.875C153.49 82.7043 152.957 82.5337 152.541 82.363C152.136 82.1817 151.784 81.9203 151.485 81.579C151.197 81.227 151.053 80.7683 151.053 80.203C151.053 79.755 151.186 79.3443 151.453 78.971C151.72 78.5977 152.098 78.3043 152.589 78.091C153.08 77.867 153.64 77.755 154.269 77.755C155.24 77.755 156.024 78.0003 156.621 78.491C157.218 78.9817 157.538 79.6537 157.581 80.507H156.125C156.093 80.0483 155.906 79.6803 155.565 79.403C155.234 79.1257 154.786 78.987 154.221 78.987C153.698 78.987 153.282 79.099 152.973 79.323C152.664 79.547 152.509 79.8403 152.509 80.203C152.509 80.491 152.6 80.731 152.781 80.923C152.973 81.1043 153.208 81.2537 153.485 81.371C153.773 81.4777 154.168 81.6003 154.669 81.739C155.298 81.9097 155.81 82.0803 156.205 82.251C156.6 82.411 156.936 82.6563 157.213 82.987C157.501 83.3177 157.65 83.7497 157.661 84.283C157.661 84.763 157.528 85.195 157.261 85.579C156.994 85.963 156.616 86.267 156.125 86.491C155.645 86.7043 155.09 86.811 154.461 86.811ZM161.492 79.099V84.267C161.492 84.6937 161.583 84.9977 161.764 85.179C161.946 85.3497 162.26 85.435 162.708 85.435H163.78V86.667H162.468C161.658 86.667 161.05 86.4803 160.644 86.107C160.239 85.7337 160.036 85.1203 160.036 84.267V79.099H158.9V77.899H160.036V75.691H161.492V77.899H163.78V79.099H161.492ZM173.545 81.947C173.545 82.2243 173.529 82.5177 173.497 82.827H166.489C166.542 83.691 166.835 84.3683 167.369 84.859C167.913 85.339 168.569 85.579 169.337 85.579C169.966 85.579 170.489 85.435 170.905 85.147C171.331 84.8483 171.63 84.4537 171.801 83.963H173.369C173.134 84.8057 172.665 85.4937 171.961 86.027C171.257 86.5497 170.382 86.811 169.337 86.811C168.505 86.811 167.758 86.6243 167.097 86.251C166.446 85.8777 165.934 85.3497 165.561 84.667C165.187 83.9737 165.001 83.1737 165.001 82.267C165.001 81.3603 165.182 80.5657 165.545 79.883C165.907 79.2003 166.414 78.6777 167.065 78.315C167.726 77.9417 168.483 77.755 169.337 77.755C170.169 77.755 170.905 77.9363 171.545 78.299C172.185 78.6617 172.675 79.163 173.017 79.803C173.369 80.4323 173.545 81.147 173.545 81.947ZM172.041 81.643C172.041 81.0883 171.918 80.6137 171.673 80.219C171.427 79.8137 171.091 79.5097 170.665 79.307C170.249 79.0937 169.785 78.987 169.273 78.987C168.537 78.987 167.907 79.2217 167.385 79.691C166.873 80.1603 166.579 80.811 166.505 81.643H172.041ZM174.922 82.251C174.922 81.355 175.104 80.571 175.466 79.899C175.829 79.2163 176.325 78.6883 176.954 78.315C177.594 77.9417 178.309 77.755 179.098 77.755C179.781 77.755 180.416 77.915 181.002 78.235C181.589 78.5443 182.037 78.955 182.346 79.467V74.827H183.818V86.667H182.346V85.019C182.058 85.5417 181.632 85.9737 181.066 86.315C180.501 86.6457 179.84 86.811 179.082 86.811C178.304 86.811 177.594 86.619 176.954 86.235C176.325 85.851 175.829 85.3123 175.466 84.619C175.104 83.9257 174.922 83.1363 174.922 82.251ZM182.346 82.267C182.346 81.6057 182.213 81.0297 181.946 80.539C181.68 80.0483 181.317 79.675 180.858 79.419C180.41 79.1523 179.914 79.019 179.37 79.019C178.826 79.019 178.33 79.147 177.882 79.403C177.434 79.659 177.077 80.0323 176.81 80.523C176.544 81.0137 176.41 81.5897 176.41 82.251C176.41 82.923 176.544 83.5097 176.81 84.011C177.077 84.5017 177.434 84.8803 177.882 85.147C178.33 85.403 178.826 85.531 179.37 85.531C179.914 85.531 180.41 85.403 180.858 85.147C181.317 84.8803 181.68 84.5017 181.946 84.011C182.213 83.5097 182.346 82.9283 182.346 82.267Z" fill="#242424"/>
<circle cx="221" cy="80.667" r="7" fill="#9FC4FF"/>
<path d="M244.688 78.779C244.688 79.707 244.368 80.4803 243.728 81.099C243.099 81.707 242.133 82.011 240.832 82.011H238.688V86.667H237.232V75.515H240.832C242.091 75.515 243.045 75.819 243.696 76.427C244.357 77.035 244.688 77.819 244.688 78.779ZM240.832 80.811C241.643 80.811 242.24 80.635 242.624 80.283C243.008 79.931 243.2 79.4297 243.2 78.779C243.2 77.403 242.411 76.715 240.832 76.715H238.688V80.811H240.832ZM247.954 79.323C248.21 78.8217 248.572 78.4323 249.042 78.155C249.522 77.8777 250.103 77.739 250.786 77.739V79.243H250.402C248.77 79.243 247.954 80.1283 247.954 81.899V86.667H246.498V77.899H247.954V79.323ZM256.29 86.811C255.469 86.811 254.722 86.6243 254.05 86.251C253.389 85.8777 252.866 85.3497 252.482 84.667C252.109 83.9737 251.922 83.1737 251.922 82.267C251.922 81.371 252.114 80.5817 252.498 79.899C252.893 79.2057 253.426 78.6777 254.098 78.315C254.77 77.9417 255.522 77.755 256.354 77.755C257.186 77.755 257.938 77.9417 258.61 78.315C259.282 78.6777 259.81 79.2003 260.194 79.883C260.589 80.5657 260.786 81.3603 260.786 82.267C260.786 83.1737 260.584 83.9737 260.178 84.667C259.784 85.3497 259.245 85.8777 258.562 86.251C257.88 86.6243 257.122 86.811 256.29 86.811ZM256.29 85.531C256.813 85.531 257.304 85.4083 257.762 85.163C258.221 84.9177 258.589 84.5497 258.866 84.059C259.154 83.5683 259.298 82.971 259.298 82.267C259.298 81.563 259.16 80.9657 258.882 80.475C258.605 79.9843 258.242 79.6217 257.794 79.387C257.346 79.1417 256.861 79.019 256.338 79.019C255.805 79.019 255.314 79.1417 254.866 79.387C254.429 79.6217 254.077 79.9843 253.81 80.475C253.544 80.9657 253.41 81.563 253.41 82.267C253.41 82.9817 253.538 83.5843 253.794 84.075C254.061 84.5657 254.413 84.9337 254.85 85.179C255.288 85.4137 255.768 85.531 256.29 85.531ZM266.269 79.099H264.429V86.667H262.973V79.099H261.837V77.899H262.973V77.275C262.973 76.2937 263.223 75.579 263.725 75.131C264.237 74.6723 265.053 74.443 266.173 74.443V75.659C265.533 75.659 265.079 75.787 264.813 76.043C264.557 76.2883 264.429 76.699 264.429 77.275V77.899H266.269V79.099ZM268.718 76.475C268.441 76.475 268.206 76.379 268.014 76.187C267.822 75.995 267.726 75.7603 267.726 75.483C267.726 75.2057 267.822 74.971 268.014 74.779C268.206 74.587 268.441 74.491 268.718 74.491C268.985 74.491 269.209 74.587 269.39 74.779C269.582 74.971 269.678 75.2057 269.678 75.483C269.678 75.7603 269.582 75.995 269.39 76.187C269.209 76.379 268.985 76.475 268.718 76.475ZM269.422 77.899V86.667H267.966V77.899H269.422ZM273.68 79.099V84.267C273.68 84.6937 273.771 84.9977 273.952 85.179C274.133 85.3497 274.448 85.435 274.896 85.435H275.968V86.667H274.656C273.845 86.667 273.237 86.4803 272.832 86.107C272.427 85.7337 272.224 85.1203 272.224 84.267V79.099H271.088V77.899H272.224V75.691H273.68V77.899H275.968V79.099H273.68ZM292.542 77.739C293.224 77.739 293.832 77.883 294.366 78.171C294.899 78.4483 295.32 78.8697 295.63 79.435C295.939 80.0003 296.094 80.6883 296.094 81.499V86.667H294.654V81.707C294.654 80.8323 294.435 80.1657 293.998 79.707C293.571 79.2377 292.99 79.003 292.254 79.003C291.496 79.003 290.894 79.2483 290.446 79.739C289.998 80.219 289.774 80.9177 289.774 81.835V86.667H288.334V81.707C288.334 80.8323 288.115 80.1657 287.678 79.707C287.251 79.2377 286.67 79.003 285.934 79.003C285.176 79.003 284.574 79.2483 284.126 79.739C283.678 80.219 283.454 80.9177 283.454 81.835V86.667H281.998V77.899H283.454V79.163C283.742 78.7043 284.126 78.3523 284.606 78.107C285.096 77.8617 285.635 77.739 286.222 77.739C286.958 77.739 287.608 77.9043 288.174 78.235C288.739 78.5657 289.16 79.051 289.438 79.691C289.683 79.0723 290.088 78.5923 290.654 78.251C291.219 77.9097 291.848 77.739 292.542 77.739ZM297.938 82.251C297.938 81.355 298.119 80.571 298.482 79.899C298.845 79.2163 299.341 78.6883 299.97 78.315C300.61 77.9417 301.319 77.755 302.098 77.755C302.866 77.755 303.533 77.9203 304.098 78.251C304.663 78.5817 305.085 78.9977 305.362 79.499V77.899H306.834V86.667H305.362V85.035C305.074 85.547 304.642 85.9737 304.066 86.315C303.501 86.6457 302.839 86.811 302.082 86.811C301.303 86.811 300.599 86.619 299.97 86.235C299.341 85.851 298.845 85.3123 298.482 84.619C298.119 83.9257 297.938 83.1363 297.938 82.251ZM305.362 82.267C305.362 81.6057 305.229 81.0297 304.962 80.539C304.695 80.0483 304.333 79.675 303.874 79.419C303.426 79.1523 302.93 79.019 302.386 79.019C301.842 79.019 301.346 79.147 300.898 79.403C300.45 79.659 300.093 80.0323 299.826 80.523C299.559 81.0137 299.426 81.5897 299.426 82.251C299.426 82.923 299.559 83.5097 299.826 84.011C300.093 84.5017 300.45 84.8803 300.898 85.147C301.346 85.403 301.842 85.531 302.386 85.531C302.93 85.531 303.426 85.403 303.874 85.147C304.333 84.8803 304.695 84.5017 304.962 84.011C305.229 83.5097 305.362 82.9283 305.362 82.267ZM308.751 82.251C308.751 81.355 308.932 80.571 309.295 79.899C309.657 79.2163 310.153 78.6883 310.783 78.315C311.423 77.9417 312.137 77.755 312.927 77.755C313.609 77.755 314.244 77.915 314.831 78.235C315.417 78.5443 315.865 78.955 316.175 79.467V74.827H317.647V86.667H316.175V85.019C315.887 85.5417 315.46 85.9737 314.895 86.315C314.329 86.6457 313.668 86.811 312.911 86.811C312.132 86.811 311.423 86.619 310.783 86.235C310.153 85.851 309.657 85.3123 309.295 84.619C308.932 83.9257 308.751 83.1363 308.751 82.251ZM316.175 82.267C316.175 81.6057 316.041 81.0297 315.775 80.539C315.508 80.0483 315.145 79.675 314.687 79.419C314.239 79.1523 313.743 79.019 313.199 79.019C312.655 79.019 312.159 79.147 311.711 79.403C311.263 79.659 310.905 80.0323 310.639 80.523C310.372 81.0137 310.239 81.5897 310.239 82.251C310.239 82.923 310.372 83.5097 310.639 84.011C310.905 84.5017 311.263 84.8803 311.711 85.147C312.159 85.403 312.655 85.531 313.199 85.531C313.743 85.531 314.239 85.403 314.687 85.147C315.145 84.8803 315.508 84.5017 315.775 84.011C316.041 83.5097 316.175 82.9283 316.175 82.267ZM328.107 81.947C328.107 82.2243 328.091 82.5177 328.059 82.827H321.051C321.104 83.691 321.398 84.3683 321.931 84.859C322.475 85.339 323.131 85.579 323.899 85.579C324.528 85.579 325.051 85.435 325.467 85.147C325.894 84.8483 326.192 84.4537 326.363 83.963H327.931C327.696 84.8057 327.227 85.4937 326.523 86.027C325.819 86.5497 324.944 86.811 323.899 86.811C323.067 86.811 322.32 86.6243 321.659 86.251C321.008 85.8777 320.496 85.3497 320.123 84.667C319.75 83.9737 319.563 83.1737 319.563 82.267C319.563 81.3603 319.744 80.5657 320.107 79.883C320.47 79.2003 320.976 78.6777 321.627 78.315C322.288 77.9417 323.046 77.755 323.899 77.755C324.731 77.755 325.467 77.9363 326.107 78.299C326.747 78.6617 327.238 79.163 327.579 79.803C327.931 80.4323 328.107 81.147 328.107 81.947ZM326.603 81.643C326.603 81.0883 326.48 80.6137 326.235 80.219C325.99 79.8137 325.654 79.5097 325.227 79.307C324.811 79.0937 324.347 78.987 323.835 78.987C323.099 78.987 322.47 79.2217 321.947 79.691C321.435 80.1603 321.142 80.811 321.067 81.643H326.603Z" fill="#242424"/>
<path d="M256.868 401.807H253.22L252.548 403.667H251.396L254.42 395.351H255.68L258.692 403.667H257.54L256.868 401.807ZM256.556 400.919L255.044 396.695L253.532 400.919H256.556ZM267.918 396.971C268.43 396.971 268.886 397.079 269.286 397.295C269.686 397.503 270.002 397.819 270.234 398.243C270.466 398.667 270.582 399.183 270.582 399.791V403.667H269.502V399.947C269.502 399.291 269.338 398.791 269.01 398.447C268.69 398.095 268.254 397.919 267.702 397.919C267.134 397.919 266.682 398.103 266.346 398.471C266.01 398.831 265.842 399.355 265.842 400.043V403.667H264.762V399.947C264.762 399.291 264.598 398.791 264.27 398.447C263.95 398.095 263.514 397.919 262.962 397.919C262.394 397.919 261.942 398.103 261.606 398.471C261.27 398.831 261.102 399.355 261.102 400.043V403.667H260.01V397.091H261.102V398.039C261.318 397.695 261.606 397.431 261.966 397.247C262.334 397.063 262.738 396.971 263.178 396.971C263.73 396.971 264.218 397.095 264.642 397.343C265.066 397.591 265.382 397.955 265.59 398.435C265.774 397.971 266.078 397.611 266.502 397.355C266.926 397.099 267.398 396.971 267.918 396.971ZM275.241 403.775C274.625 403.775 274.065 403.635 273.561 403.355C273.065 403.075 272.673 402.679 272.385 402.167C272.105 401.647 271.965 401.047 271.965 400.367C271.965 399.695 272.109 399.103 272.397 398.591C272.693 398.071 273.093 397.675 273.597 397.403C274.101 397.123 274.665 396.983 275.289 396.983C275.913 396.983 276.477 397.123 276.981 397.403C277.485 397.675 277.881 398.067 278.169 398.579C278.465 399.091 278.613 399.687 278.613 400.367C278.613 401.047 278.461 401.647 278.157 402.167C277.861 402.679 277.457 403.075 276.945 403.355C276.433 403.635 275.865 403.775 275.241 403.775ZM275.241 402.815C275.633 402.815 276.001 402.723 276.345 402.539C276.689 402.355 276.965 402.079 277.173 401.711C277.389 401.343 277.497 400.895 277.497 400.367C277.497 399.839 277.393 399.391 277.185 399.023C276.977 398.655 276.705 398.383 276.369 398.207C276.033 398.023 275.669 397.931 275.277 397.931C274.877 397.931 274.509 398.023 274.173 398.207C273.845 398.383 273.581 398.655 273.381 399.023C273.181 399.391 273.081 399.839 273.081 400.367C273.081 400.903 273.177 401.355 273.369 401.723C273.569 402.091 273.833 402.367 274.161 402.551C274.489 402.727 274.849 402.815 275.241 402.815ZM285.881 397.091V403.667H284.789V402.695C284.581 403.031 284.289 403.295 283.913 403.487C283.545 403.671 283.137 403.763 282.689 403.763C282.177 403.763 281.717 403.659 281.309 403.451C280.901 403.235 280.577 402.915 280.337 402.491C280.105 402.067 279.989 401.551 279.989 400.943V397.091H281.069V400.799C281.069 401.447 281.233 401.947 281.561 402.299C281.889 402.643 282.337 402.815 282.905 402.815C283.489 402.815 283.949 402.635 284.285 402.275C284.621 401.915 284.789 401.391 284.789 400.703V397.091H285.881ZM290.929 396.971C291.729 396.971 292.377 397.215 292.873 397.703C293.369 398.183 293.617 398.879 293.617 399.791V403.667H292.537V399.947C292.537 399.291 292.373 398.791 292.045 398.447C291.717 398.095 291.269 397.919 290.701 397.919C290.125 397.919 289.665 398.099 289.321 398.459C288.985 398.819 288.817 399.343 288.817 400.031V403.667H287.725V397.091H288.817V398.027C289.033 397.691 289.325 397.431 289.693 397.247C290.069 397.063 290.481 396.971 290.929 396.971ZM296.733 397.991V401.867C296.733 402.187 296.801 402.415 296.937 402.551C297.073 402.679 297.309 402.743 297.645 402.743H298.449V403.667H297.465C296.857 403.667 296.401 403.527 296.097 403.247C295.793 402.967 295.641 402.507 295.641 401.867V397.991H294.789V397.091H295.641V395.435H296.733V397.091H298.449V397.991H296.733ZM303.535 396.023C303.327 396.023 303.151 395.951 303.007 395.807C302.863 395.663 302.791 395.487 302.791 395.279C302.791 395.071 302.863 394.895 303.007 394.751C303.151 394.607 303.327 394.535 303.535 394.535C303.735 394.535 303.903 394.607 304.039 394.751C304.183 394.895 304.255 395.071 304.255 395.279C304.255 395.487 304.183 395.663 304.039 395.807C303.903 395.951 303.735 396.023 303.535 396.023ZM304.063 397.091V403.667H302.971V397.091H304.063ZM309.128 396.971C309.928 396.971 310.576 397.215 311.072 397.703C311.568 398.183 311.816 398.879 311.816 399.791V403.667H310.736V399.947C310.736 399.291 310.572 398.791 310.244 398.447C309.916 398.095 309.468 397.919 308.9 397.919C308.324 397.919 307.864 398.099 307.52 398.459C307.184 398.819 307.016 399.343 307.016 400.031V403.667H305.924V397.091H307.016V398.027C307.232 397.691 307.524 397.431 307.892 397.247C308.268 397.063 308.68 396.971 309.128 396.971ZM322.028 397.002L321.739 397.991H316.216L316.506 397.002H322.028ZM319.438 403.667L316.318 399.849L316.301 399.133H317.852C318.256 399.133 318.599 399.076 318.884 398.962C319.168 398.846 319.385 398.673 319.536 398.443C319.686 398.21 319.761 397.917 319.761 397.565C319.761 397.045 319.605 396.637 319.293 396.342C318.98 396.043 318.5 395.894 317.852 395.894H316.216L316.506 394.94H317.852C318.545 394.94 319.114 395.055 319.557 395.285C320.003 395.512 320.332 395.825 320.545 396.222C320.761 396.617 320.869 397.065 320.869 397.565C320.869 398.016 320.77 398.433 320.571 398.813C320.375 399.191 320.06 399.495 319.625 399.725C319.193 399.955 318.622 400.07 317.912 400.07H317.886L320.767 403.599V403.667H319.438ZM322.028 394.94L321.739 395.928L317.392 395.894L317.682 394.94H322.028Z" fill="#242424"/>
<path d="M120.54 346.167V344.919H123.036V353.667H121.656V346.167H120.54ZM126.463 352.563H129.283V353.667H125.095V345.327H126.463V352.563Z" fill="#676C76"/>
<path d="M49.72 349.179C49.72 347.795 49.952 346.715 50.416 345.939C50.888 345.155 51.696 344.763 52.84 344.763C53.984 344.763 54.788 345.155 55.252 345.939C55.724 346.715 55.96 347.795 55.96 349.179C55.96 350.579 55.724 351.675 55.252 352.467C54.788 353.251 53.984 353.643 52.84 353.643C51.696 353.643 50.888 353.251 50.416 352.467C49.952 351.675 49.72 350.579 49.72 349.179ZM54.616 349.179C54.616 348.531 54.572 347.983 54.484 347.535C54.404 347.087 54.236 346.723 53.98 346.443C53.724 346.155 53.344 346.011 52.84 346.011C52.336 346.011 51.956 346.155 51.7 346.443C51.444 346.723 51.272 347.087 51.184 347.535C51.104 347.983 51.064 348.531 51.064 349.179C51.064 349.851 51.104 350.415 51.184 350.871C51.264 351.327 51.432 351.695 51.688 351.975C51.952 352.255 52.336 352.395 52.84 352.395C53.344 352.395 53.724 352.255 53.98 351.975C54.244 351.695 54.416 351.327 54.496 350.871C54.576 350.415 54.616 349.851 54.616 349.179Z" fill="#676C76"/>
<path d="M177.476 351.807C178.244 351.143 178.848 350.599 179.288 350.175C179.736 349.743 180.108 349.295 180.404 348.831C180.7 348.367 180.848 347.903 180.848 347.439C180.848 346.959 180.732 346.583 180.5 346.311C180.276 346.039 179.92 345.903 179.432 345.903C178.96 345.903 178.592 346.055 178.328 346.359C178.072 346.655 177.936 347.055 177.92 347.559H176.6C176.624 346.647 176.896 345.951 177.416 345.471C177.944 344.983 178.612 344.739 179.42 344.739C180.292 344.739 180.972 344.979 181.46 345.459C181.956 345.939 182.204 346.579 182.204 347.379C182.204 347.955 182.056 348.511 181.76 349.047C181.472 349.575 181.124 350.051 180.716 350.475C180.316 350.891 179.804 351.375 179.18 351.927L178.64 352.407H182.444V353.547H176.612V352.551L177.476 351.807ZM185.194 352.563H188.014V353.667H183.826V345.327H185.194V352.563Z" fill="#676C76"/>
<path d="M228.696 347.079C228.744 346.335 229.028 345.755 229.548 345.339C230.076 344.923 230.748 344.715 231.564 344.715C232.124 344.715 232.608 344.815 233.016 345.015C233.424 345.215 233.732 345.487 233.94 345.831C234.148 346.175 234.252 346.563 234.252 346.995C234.252 347.491 234.12 347.915 233.856 348.267C233.592 348.619 233.276 348.855 232.908 348.975V349.023C233.38 349.167 233.748 349.431 234.012 349.815C234.276 350.191 234.408 350.675 234.408 351.267C234.408 351.739 234.3 352.159 234.084 352.527C233.868 352.895 233.548 353.187 233.124 353.403C232.7 353.611 232.192 353.715 231.6 353.715C230.736 353.715 230.024 353.495 229.464 353.055C228.912 352.607 228.616 351.967 228.576 351.135H229.896C229.928 351.559 230.092 351.907 230.388 352.179C230.684 352.443 231.084 352.575 231.588 352.575C232.076 352.575 232.452 352.443 232.716 352.179C232.98 351.907 233.112 351.559 233.112 351.135C233.112 350.575 232.932 350.179 232.572 349.947C232.22 349.707 231.676 349.587 230.94 349.587H230.628V348.459H230.952C231.6 348.451 232.092 348.343 232.428 348.135C232.772 347.927 232.944 347.599 232.944 347.151C232.944 346.767 232.82 346.463 232.572 346.239C232.324 346.007 231.972 345.891 231.516 345.891C231.068 345.891 230.72 346.007 230.472 346.239C230.224 346.463 230.076 346.743 230.028 347.079H228.696ZM237.393 352.563H240.213V353.667H236.025V345.327H237.393V352.563Z" fill="#676C76"/>
<path d="M281.552 352.176V351.144L285.584 345.36H287.24V350.988H288.356V352.176H287.24V354H285.896V352.176H281.552ZM285.956 346.752L283.124 350.988H285.956V346.752ZM291.038 352.896H293.858V354H289.67V345.66H291.038V352.896Z" fill="#676C76"/>
<path d="M342.36 346.428H338.34V348.816C338.508 348.592 338.756 348.404 339.084 348.252C339.42 348.1 339.776 348.024 340.152 348.024C340.824 348.024 341.368 348.168 341.784 348.456C342.208 348.744 342.508 349.108 342.684 349.548C342.868 349.988 342.96 350.452 342.96 350.94C342.96 351.532 342.844 352.06 342.612 352.524C342.388 352.98 342.048 353.34 341.592 353.604C341.144 353.868 340.592 354 339.936 354C339.064 354 338.364 353.784 337.836 353.352C337.308 352.92 336.992 352.348 336.888 351.636H338.22C338.308 352.012 338.504 352.312 338.808 352.536C339.112 352.752 339.492 352.86 339.948 352.86C340.516 352.86 340.94 352.688 341.22 352.344C341.508 352 341.652 351.544 341.652 350.976C341.652 350.4 341.508 349.96 341.22 349.656C340.932 349.344 340.508 349.188 339.948 349.188C339.556 349.188 339.224 349.288 338.952 349.488C338.688 349.68 338.496 349.944 338.376 350.28H337.08V345.228H342.36V346.428ZM345.932 352.896H348.752V354H344.564V345.66H345.932V352.896Z" fill="#676C76"/>
<path d="M395.424 346.947C395.336 346.579 395.176 346.303 394.944 346.119C394.712 345.935 394.388 345.843 393.972 345.843C393.34 345.843 392.868 346.087 392.556 346.575C392.244 347.055 392.08 347.855 392.064 348.975C392.272 348.623 392.576 348.351 392.976 348.159C393.376 347.967 393.808 347.871 394.272 347.871C394.8 347.871 395.264 347.987 395.664 348.219C396.072 348.443 396.388 348.771 396.612 349.203C396.844 349.635 396.96 350.151 396.96 350.751C396.96 351.311 396.848 351.811 396.624 352.251C396.408 352.691 396.084 353.039 395.652 353.295C395.22 353.543 394.7 353.667 394.092 353.667C393.268 353.667 392.62 353.487 392.148 353.127C391.684 352.759 391.356 352.243 391.164 351.579C390.98 350.915 390.888 350.087 390.888 349.095C390.888 346.167 391.92 344.703 393.984 344.703C394.784 344.703 395.412 344.919 395.868 345.351C396.332 345.783 396.604 346.315 396.684 346.947H395.424ZM393.972 349.023C393.484 349.023 393.068 349.171 392.724 349.467C392.388 349.755 392.22 350.175 392.22 350.727C392.22 351.279 392.376 351.719 392.688 352.047C393.008 352.367 393.452 352.527 394.02 352.527C394.524 352.527 394.92 352.371 395.208 352.059C395.504 351.747 395.652 351.331 395.652 350.811C395.652 350.267 395.508 349.835 395.22 349.515C394.94 349.187 394.524 349.023 393.972 349.023ZM399.967 352.563H402.787V353.667H398.599V345.327H399.967V352.563Z" fill="#676C76"/>
<path d="M450.264 345.975L446.928 353.667H445.548L448.92 346.119H444.48V344.955H450.264V345.975ZM452.983 352.563H455.803V353.667H451.615V345.327H452.983V352.563Z" fill="#676C76"/>
<path d="M501.196 349.095C500.364 348.679 499.948 348.023 499.948 347.127C499.948 346.695 500.056 346.299 500.272 345.939C500.488 345.579 500.812 345.295 501.244 345.087C501.676 344.871 502.204 344.763 502.828 344.763C503.444 344.763 503.968 344.871 504.4 345.087C504.84 345.295 505.168 345.579 505.384 345.939C505.6 346.299 505.708 346.695 505.708 347.127C505.708 347.575 505.592 347.971 505.36 348.315C505.136 348.651 504.836 348.911 504.46 349.095C504.916 349.263 505.276 349.539 505.54 349.923C505.804 350.299 505.936 350.743 505.936 351.255C505.936 351.775 505.804 352.235 505.54 352.635C505.276 353.035 504.908 353.343 504.436 353.559C503.964 353.775 503.428 353.883 502.828 353.883C502.228 353.883 501.692 353.775 501.22 353.559C500.756 353.343 500.392 353.035 500.128 352.635C499.864 352.235 499.732 351.775 499.732 351.255C499.732 350.735 499.864 350.287 500.128 349.911C500.392 349.535 500.748 349.263 501.196 349.095ZM504.4 347.295C504.4 346.847 504.26 346.503 503.98 346.263C503.7 346.023 503.316 345.903 502.828 345.903C502.348 345.903 501.968 346.023 501.688 346.263C501.408 346.503 501.268 346.851 501.268 347.307C501.268 347.707 501.412 348.035 501.7 348.291C501.996 348.539 502.372 348.663 502.828 348.663C503.284 348.663 503.66 348.535 503.956 348.279C504.252 348.023 504.4 347.695 504.4 347.295ZM502.828 349.695C502.3 349.695 501.868 349.827 501.532 350.091C501.204 350.347 501.04 350.719 501.04 351.207C501.04 351.663 501.2 352.035 501.52 352.323C501.84 352.603 502.276 352.743 502.828 352.743C503.372 352.743 503.8 352.599 504.112 352.311C504.432 352.023 504.592 351.655 504.592 351.207C504.592 350.727 504.428 350.355 504.1 350.091C503.78 349.827 503.356 349.695 502.828 349.695ZM508.92 352.563H511.74V353.667H507.552V345.327H508.92V352.563Z" fill="#676C76"/>
<rect x="288" y="238.667" width="24" height="215" transform="rotate(90 288 238.667)" fill="#142E56"/>
<rect x="413" y="238.667" width="24" height="125" transform="rotate(90 413 238.667)" fill="#9FC4FF"/>
<line x1="72.5" y1="144.667" x2="72.5" y2="358.667" stroke="#CBCBCB"/>
<line x1="41" y1="328.167" x2="533" y2="328.167" stroke="#CBCBCB"/>
<line x1="126.5" y1="143.667" x2="126.5" y2="327.667" stroke="#CFCFCF" stroke-dasharray="5 5"/>
<line x1="234.5" y1="143.667" x2="234.5" y2="327.667" stroke="#CFCFCF" stroke-dasharray="5 5"/>
<line x1="342.5" y1="143.667" x2="342.5" y2="327.667" stroke="#CFCFCF" stroke-dasharray="5 5"/>
<line x1="450.5" y1="143.667" x2="450.5" y2="327.667" stroke="#CFCFCF" stroke-dasharray="5 5"/>
<line x1="180.5" y1="143.667" x2="180.5" y2="327.667" stroke="#CFCFCF" stroke-dasharray="5 5"/>
<line x1="288.5" y1="143.667" x2="288.5" y2="327.667" stroke="#CFCFCF" stroke-dasharray="5 5"/>
<line x1="396.5" y1="143.667" x2="396.5" y2="327.667" stroke="#CFCFCF" stroke-dasharray="5 5"/>
<line x1="504.5" y1="143.667" x2="504.5" y2="327.667" stroke="#CFCFCF" stroke-dasharray="5 5"/>
<g filter="url(#filter1_dd_690_49269)">
<rect x="284" y="186.667" width="137" height="34" rx="8" fill="white"/>
<path d="M302.946 201.883C302.946 202.331 302.838 202.751 302.622 203.143C302.414 203.535 302.082 203.851 301.626 204.091C301.178 204.331 300.61 204.451 299.922 204.451H298.518V207.667H296.838V199.291H299.922C300.57 199.291 301.122 199.403 301.578 199.627C302.034 199.851 302.374 200.159 302.598 200.551C302.83 200.943 302.946 201.387 302.946 201.883ZM299.85 203.095C300.314 203.095 300.658 202.991 300.882 202.783C301.106 202.567 301.218 202.267 301.218 201.883C301.218 201.067 300.762 200.659 299.85 200.659H298.518V203.095H299.85ZM305.819 202.051C306.035 201.699 306.315 201.423 306.659 201.223C307.011 201.023 307.411 200.923 307.859 200.923V202.687H307.415C306.887 202.687 306.487 202.811 306.215 203.059C305.951 203.307 305.819 203.739 305.819 204.355V207.667H304.139V201.019H305.819V202.051ZM311.942 207.775C311.302 207.775 310.726 207.635 310.214 207.355C309.702 207.067 309.298 206.663 309.002 206.143C308.714 205.623 308.57 205.023 308.57 204.343C308.57 203.663 308.718 203.063 309.014 202.543C309.318 202.023 309.73 201.623 310.25 201.343C310.77 201.055 311.35 200.911 311.99 200.911C312.63 200.911 313.21 201.055 313.73 201.343C314.25 201.623 314.658 202.023 314.954 202.543C315.258 203.063 315.41 203.663 315.41 204.343C315.41 205.023 315.254 205.623 314.942 206.143C314.638 206.663 314.222 207.067 313.694 207.355C313.174 207.635 312.59 207.775 311.942 207.775ZM311.942 206.311C312.246 206.311 312.53 206.239 312.794 206.095C313.066 205.943 313.282 205.719 313.442 205.423C313.602 205.127 313.682 204.767 313.682 204.343C313.682 203.711 313.514 203.227 313.178 202.891C312.85 202.547 312.446 202.375 311.966 202.375C311.486 202.375 311.082 202.547 310.754 202.891C310.434 203.227 310.274 203.711 310.274 204.343C310.274 204.975 310.43 205.463 310.742 205.807C311.062 206.143 311.462 206.311 311.942 206.311ZM319.69 202.399H318.526V207.667H316.822V202.399H316.066V201.019H316.822V200.683C316.822 199.867 317.054 199.267 317.518 198.883C317.982 198.499 318.682 198.319 319.618 198.343V199.759C319.21 199.751 318.926 199.819 318.766 199.963C318.606 200.107 318.526 200.367 318.526 200.743V201.019H319.69V202.399ZM321.631 200.227C321.335 200.227 321.087 200.135 320.887 199.951C320.695 199.759 320.599 199.523 320.599 199.243C320.599 198.963 320.695 198.731 320.887 198.547C321.087 198.355 321.335 198.259 321.631 198.259C321.927 198.259 322.171 198.355 322.363 198.547C322.563 198.731 322.663 198.963 322.663 199.243C322.663 199.523 322.563 199.759 322.363 199.951C322.171 200.135 321.927 200.227 321.631 200.227ZM322.459 201.019V207.667H320.779V201.019H322.459ZM326.075 202.399V205.615C326.075 205.839 326.127 206.003 326.231 206.107C326.343 206.203 326.527 206.251 326.783 206.251H327.563V207.667H326.507C325.091 207.667 324.383 206.979 324.383 205.603V202.399H323.591V201.019H324.383V199.375H326.075V201.019H327.563V202.399H326.075ZM332.375 207.751C332.071 207.751 331.819 207.659 331.619 207.475C331.427 207.283 331.331 207.047 331.331 206.767C331.331 206.487 331.427 206.255 331.619 206.071C331.819 205.879 332.071 205.783 332.375 205.783C332.671 205.783 332.915 205.879 333.107 206.071C333.299 206.255 333.395 206.487 333.395 206.767C333.395 207.047 333.299 207.283 333.107 207.475C332.915 207.659 332.671 207.751 332.375 207.751ZM332.375 202.783C332.071 202.783 331.819 202.691 331.619 202.507C331.427 202.315 331.331 202.079 331.331 201.799C331.331 201.519 331.427 201.287 331.619 201.103C331.819 200.911 332.071 200.815 332.375 200.815C332.671 200.815 332.915 200.911 333.107 201.103C333.299 201.287 333.395 201.519 333.395 201.799C333.395 202.079 333.299 202.315 333.107 202.507C332.915 202.691 332.671 202.783 332.375 202.783Z" fill="#242424"/>
<path d="M343.172 201.07L342.87 202.187H337.215L337.522 201.07H343.172ZM340.33 207.667L337.347 204.079L337.343 203.133H338.817C339.17 203.133 339.464 203.075 339.699 202.958C339.938 202.839 340.118 202.673 340.241 202.46C340.366 202.244 340.428 201.991 340.428 201.701C340.428 201.266 340.3 200.917 340.045 200.653C339.789 200.389 339.38 200.256 338.817 200.256H337.215L337.547 198.94H338.817C339.533 198.94 340.126 199.051 340.594 199.272C341.066 199.491 341.418 199.801 341.651 200.201C341.887 200.602 342.005 201.07 342.005 201.607C342.005 202.082 341.918 202.505 341.745 202.877C341.572 203.249 341.299 203.555 340.927 203.793C340.555 204.032 340.067 204.191 339.465 204.271L339.414 204.288L342.107 207.59V207.667H340.33ZM343.181 198.94L342.87 200.073L338.285 200.056L338.596 198.94H343.181ZM346.973 200.467V198.919H349.865V207.667H348.137V200.467H346.973ZM352.053 205.771C352.821 205.131 353.433 204.599 353.889 204.175C354.345 203.743 354.725 203.295 355.029 202.831C355.333 202.367 355.485 201.911 355.485 201.463C355.485 201.055 355.389 200.735 355.197 200.503C355.005 200.271 354.709 200.155 354.309 200.155C353.909 200.155 353.601 200.291 353.385 200.563C353.169 200.827 353.057 201.191 353.049 201.655H351.417C351.449 200.695 351.733 199.967 352.269 199.471C352.813 198.975 353.501 198.727 354.333 198.727C355.245 198.727 355.945 198.971 356.433 199.459C356.921 199.939 357.165 200.575 357.165 201.367C357.165 201.991 356.997 202.587 356.661 203.155C356.325 203.723 355.941 204.219 355.509 204.643C355.077 205.059 354.513 205.563 353.817 206.155H357.357V207.547H351.429V206.299L352.053 205.771ZM358.415 203.179C358.415 201.795 358.663 200.711 359.159 199.927C359.663 199.143 360.495 198.751 361.655 198.751C362.815 198.751 363.643 199.143 364.139 199.927C364.643 200.711 364.895 201.795 364.895 203.179C364.895 204.571 364.643 205.663 364.139 206.455C363.643 207.247 362.815 207.643 361.655 207.643C360.495 207.643 359.663 207.247 359.159 206.455C358.663 205.663 358.415 204.571 358.415 203.179ZM363.239 203.179C363.239 202.587 363.199 202.091 363.119 201.691C363.047 201.283 362.895 200.951 362.663 200.695C362.439 200.439 362.103 200.311 361.655 200.311C361.207 200.311 360.867 200.439 360.635 200.695C360.411 200.951 360.259 201.283 360.179 201.691C360.107 202.091 360.071 202.587 360.071 203.179C360.071 203.787 360.107 204.299 360.179 204.715C360.251 205.123 360.403 205.455 360.635 205.711C360.867 205.959 361.207 206.083 361.655 206.083C362.103 206.083 362.443 205.959 362.675 205.711C362.907 205.455 363.059 205.123 363.131 204.715C363.203 204.299 363.239 203.787 363.239 203.179ZM366.173 203.179C366.173 201.795 366.421 200.711 366.917 199.927C367.421 199.143 368.253 198.751 369.413 198.751C370.573 198.751 371.401 199.143 371.897 199.927C372.401 200.711 372.653 201.795 372.653 203.179C372.653 204.571 372.401 205.663 371.897 206.455C371.401 207.247 370.573 207.643 369.413 207.643C368.253 207.643 367.421 207.247 366.917 206.455C366.421 205.663 366.173 204.571 366.173 203.179ZM370.997 203.179C370.997 202.587 370.957 202.091 370.877 201.691C370.805 201.283 370.653 200.951 370.421 200.695C370.197 200.439 369.861 200.311 369.413 200.311C368.965 200.311 368.625 200.439 368.393 200.695C368.169 200.951 368.017 201.283 367.937 201.691C367.865 202.091 367.829 202.587 367.829 203.179C367.829 203.787 367.865 204.299 367.937 204.715C368.009 205.123 368.161 205.455 368.393 205.711C368.625 205.959 368.965 206.083 369.413 206.083C369.861 206.083 370.201 205.959 370.433 205.711C370.665 205.455 370.817 205.123 370.889 204.715C370.961 204.299 370.997 203.787 370.997 203.179ZM379.886 210.031C379.11 209.279 378.506 208.319 378.074 207.151C377.65 205.983 377.438 204.731 377.438 203.395C377.438 202.027 377.662 200.743 378.11 199.543C378.558 198.335 379.21 197.347 380.066 196.579H381.758V196.735C380.878 197.575 380.206 198.583 379.742 199.759C379.286 200.935 379.058 202.147 379.058 203.395C379.058 204.611 379.274 205.787 379.706 206.923C380.146 208.051 380.77 209.031 381.578 209.863V210.031H379.886ZM382.411 200.467V198.919H385.303V207.667H383.575V200.467H382.411ZM387.49 205.771C388.258 205.131 388.87 204.599 389.326 204.175C389.782 203.743 390.162 203.295 390.466 202.831C390.77 202.367 390.922 201.911 390.922 201.463C390.922 201.055 390.826 200.735 390.634 200.503C390.442 200.271 390.146 200.155 389.746 200.155C389.346 200.155 389.038 200.291 388.822 200.563C388.606 200.827 388.494 201.191 388.486 201.655H386.854C386.886 200.695 387.17 199.967 387.706 199.471C388.25 198.975 388.938 198.727 389.77 198.727C390.682 198.727 391.382 198.971 391.87 199.459C392.358 199.939 392.602 200.575 392.602 201.367C392.602 201.991 392.434 202.587 392.098 203.155C391.762 203.723 391.378 204.219 390.946 204.643C390.514 205.059 389.95 205.563 389.254 206.155H392.794V207.547H386.866V206.299L387.49 205.771ZM393.661 201.067C393.661 200.459 393.837 199.983 394.189 199.639C394.549 199.295 395.009 199.123 395.569 199.123C396.129 199.123 396.585 199.295 396.937 199.639C397.297 199.983 397.477 200.459 397.477 201.067C397.477 201.683 397.297 202.163 396.937 202.507C396.585 202.851 396.129 203.023 395.569 203.023C395.009 203.023 394.549 202.851 394.189 202.507C393.837 202.163 393.661 201.683 393.661 201.067ZM401.365 199.267L396.649 207.667H395.017L399.721 199.267H401.365ZM395.557 200.131C395.117 200.131 394.897 200.443 394.897 201.067C394.897 201.699 395.117 202.015 395.557 202.015C395.773 202.015 395.941 201.939 396.061 201.787C396.181 201.627 396.241 201.387 396.241 201.067C396.241 200.443 396.013 200.131 395.557 200.131ZM398.929 205.855C398.929 205.239 399.105 204.763 399.457 204.427C399.817 204.083 400.277 203.911 400.837 203.911C401.397 203.911 401.849 204.083 402.193 204.427C402.545 204.763 402.721 205.239 402.721 205.855C402.721 206.471 402.545 206.951 402.193 207.295C401.849 207.639 401.397 207.811 400.837 207.811C400.269 207.811 399.809 207.639 399.457 207.295C399.105 206.951 398.929 206.471 398.929 205.855ZM400.825 204.919C400.369 204.919 400.141 205.231 400.141 205.855C400.141 206.487 400.369 206.803 400.825 206.803C401.273 206.803 401.497 206.487 401.497 205.855C401.497 205.231 401.273 204.919 400.825 204.919ZM403.562 210.031V209.863C404.37 209.031 404.99 208.051 405.422 206.923C405.862 205.787 406.082 204.611 406.082 203.395C406.082 202.147 405.85 200.935 405.386 199.759C404.93 198.583 404.262 197.575 403.382 196.735V196.579H405.074C405.93 197.347 406.582 198.335 407.03 199.543C407.478 200.743 407.702 202.027 407.702 203.395C407.702 204.731 407.486 205.983 407.054 207.151C406.63 208.319 406.03 209.279 405.254 210.031H403.562Z" fill="#219653"/>
<path d="M358.571 218.152C359.462 218.152 359.908 219.229 359.278 219.859L353.207 225.93C352.817 226.321 352.183 226.321 351.793 225.93L345.722 219.859C345.092 219.229 345.538 218.152 346.429 218.152L358.571 218.152Z" fill="white"/>
</g>
</g>
<defs>
<filter id="filter0_d_690_49269" x="0" y="0.666992" width="574" height="434" filterUnits="userSpaceOnUse" color-interpolation-filters="sRGB">
<feFlood flood-opacity="0" result="BackgroundImageFix"/>
<feColorMatrix in="SourceAlpha" type="matrix" values="0 0 0 0 0 0 0 0 0 0 0 0 0 0 0 0 0 0 127 0" result="hardAlpha"/>
<feOffset dy="1"/>
<feGaussianBlur stdDeviation="1.5"/>
<feColorMatrix type="matrix" values="0 0 0 0 0.0627451 0 0 0 0 0.0941176 0 0 0 0 0.156863 0 0 0 0.1 0"/>
<feBlend mode="normal" in2="BackgroundImageFix" result="effect1_dropShadow_690_49269"/>
<feBlend mode="normal" in="SourceGraphic" in2="effect1_dropShadow_690_49269" result="shape"/>
</filter>
<filter id="filter1_dd_690_49269" x="272" y="186.667" width="161" height="64" filterUnits="userSpaceOnUse" color-interpolation-filters="sRGB">
<feFlood flood-opacity="0" result="BackgroundImageFix"/>
<feColorMatrix in="SourceAlpha" type="matrix" values="0 0 0 0 0 0 0 0 0 0 0 0 0 0 0 0 0 0 127 0" result="hardAlpha"/>
<feMorphology radius="2" operator="erode" in="SourceAlpha" result="effect1_dropShadow_690_49269"/>
<feOffset dy="4"/>
<feGaussianBlur stdDeviation="3"/>
<feColorMatrix type="matrix" values="0 0 0 0 0.0627451 0 0 0 0 0.0941176 0 0 0 0 0.156863 0 0 0 0.03 0"/>
<feBlend mode="normal" in2="BackgroundImageFix" result="effect1_dropShadow_690_49269"/>
<feColorMatrix in="SourceAlpha" type="matrix" values="0 0 0 0 0 0 0 0 0 0 0 0 0 0 0 0 0 0 127 0" result="hardAlpha"/>
<feMorphology radius="4" operator="erode" in="SourceAlpha" result="effect2_dropShadow_690_49269"/>
<feOffset dy="12"/>
<feGaussianBlur stdDeviation="8"/>
<feColorMatrix type="matrix" values="0 0 0 0 0.0627451 0 0 0 0 0.0941176 0 0 0 0 0.156863 0 0 0 0.08 0"/>
<feBlend mode="normal" in2="effect1_dropShadow_690_49269" result="effect2_dropShadow_690_49269"/>
<feBlend mode="normal" in="SourceGraphic" in2="effect2_dropShadow_690_49269" result="shape"/>
</filter>
</defs>
</svg>
