<svg width="20" height="20" viewBox="0 0 20 20" fill="none" xmlns="http://www.w3.org/2000/svg">
<path d="M9.16676 1.66699H7.50009C3.33342 1.66699 1.66675 3.33366 1.66675 7.50033V12.5003C1.66675 16.667 3.33342 18.3337 7.50009 18.3337H12.5001C16.6668 18.3337 18.3334 16.667 18.3334 12.5003V10.8337" stroke="#242424" stroke-width="1.25" stroke-linecap="round" stroke-linejoin="round"/>
<path d="M13.3666 2.51639L6.7999 9.08306C6.5499 9.33306 6.2999 9.82473 6.2499 10.1831L5.89157 12.6914C5.75823 13.5997 6.3999 14.2331 7.30823 14.1081L9.81657 13.7497C10.1666 13.6997 10.6582 13.4497 10.9166 13.1997L17.4832 6.63306C18.6166 5.49973 19.1499 4.18306 17.4832 2.51639C15.8166 0.849722 14.4999 1.38306 13.3666 2.51639Z" stroke="#242424" stroke-width="1.25" stroke-miterlimit="10" stroke-linecap="round" stroke-linejoin="round"/>
<path d="M12.425 3.45898C12.9834 5.45065 14.5417 7.00899 16.5417 7.57566" stroke="#292D32" stroke-width="1.25" stroke-miterlimit="10" stroke-linecap="round" stroke-linejoin="round"/>
</svg>
